{
.appVersion = "3517";
DisplayStrings = (
"*afkmkdsfkms123456/space 88888/space faDEFG",
$,
"9",
EEF,
F,
C,
G,
H,
I,
J,
K,
L,
M,
"F\012",
B
);
classes = (
{
automatic = 1;
code = "A B C D E F G H I J K L M N O P Q R S T U V W X Y Z Agrave Aacute Acircumflex Atilde Adieresis Aring AE Ccedilla Egrave Eacute Ecircumflex Edieresis Igrave Iacute Icircumflex Idieresis Eth Ntilde Ograve Oacute Ocircumflex Otilde Odieresis Oslash Ugrave Uacute Ucircumflex Udieresis Yacute Thorn Amacron Abreve Aogonek Cacute Ccircumflex Cdotaccent Ccaron Dcaron Dcroat Emacron Edotaccent Eogonek Ecaron Gcircumflex Gbreve Gdotaccent Gcommaaccent Hcircumflex Hbar Imacron Iogonek Idotaccent IJ Jcircumflex Kcommaaccent Lacute Lcommaaccent Lcaron Lslash Nacute Ncommaaccent Ncaron Omacron Ohungarumlaut OE Racute Rcommaaccent Rcaron Sacute Scircumflex Scedilla Scaron Tcommaaccent Tcaron Umacron Ubreve Uring Uhungarumlaut Uogonek Ydieresis Zacute Zdotaccent Zcaron Scommaaccent Omega Delta Tcedilla Ebreve Ibreve Itilde Ldot Eng Obreve Tbar Utilde Wacute Wcircumflex Wdieresis Wgrave Ycircumflex Ygrave";
name = Uppercase;
}
);
copyright = "Copyright 2015 The Courier Prime Project Authors (https://github.com/quoteunquoteapps/CourierPrime).";
customParameters = (
{
name = isFixedPitch;
value = 1;
},
{
name = "Enforce Compatibility Check";
value = 1;
},
{
name = fsType;
value = (
);
},
{
name = glyphOrder;
value = (
.notdef,
.null,
CR,
space,
exclam,
quotedbl,
numbersign,
dollar,
percent,
ampersand,
quotesingle,
parenleft,
parenright,
asterisk,
plus,
comma,
hyphen,
period,
slash,
zero,
one,
two,
three,
four,
five,
six,
seven,
eight,
nine,
colon,
semicolon,
less,
equal,
greater,
question,
at,
A,
B,
C,
D,
E,
F,
G,
H,
I,
J,
K,
L,
M,
N,
O,
P,
Q,
R,
S,
T,
U,
V,
W,
X,
Y,
Z,
bracketleft,
backslash,
bracketright,
asciicircum,
underscore,
grave,
a,
b,
c,
d,
e,
f,
g,
h,
i,
j,
k,
l,
m,
n,
o,
p,
q,
r,
s,
t,
u,
v,
w,
x,
y,
z,
braceleft,
bar,
braceright,
asciitilde,
uni00A0,
exclamdown,
cent,
sterling,
currency,
yen,

glyphs = (
{
glyphname = .notdef;
lastChange = "2026-02-27 13:18:02 +0000";
layers = (
{
layerId = UUID0;
paths = (
{
closed = 1;
nodes = (
"418 1129 OFFCURVE",
"404 1108 OFFCURVE",
"408 1080 CURVE SMOOTH",
"500 577 LINE",
"579 98 LINE SMOOTH",
"582 83 OFFCURVE",
"589 76 OFFCURVE",
"598 76 CURVE SMOOTH",
"611 76 OFFCURVE",
"625 94 OFFCURVE",
"620 123 CURVE SMOOTH",
"524 658 LINE",
"449 1105 LINE SMOOTH",
"447 1120 OFFCURVE",
"440 1129 OFFCURVE",
"431 1129 CURVE SMOOTH"
);
},
{
closed = 1;
nodes = (
"321 -310 OFFCURVE",
"328 -331 OFFCURVE",
"346 -331 CURVE SMOOTH",
"675 -331 LINE SMOOTH",
"694 -331 OFFCURVE",
"701 -310 OFFCURVE",
"701 -252 CURVE SMOOTH",
"702 1468 LINE SMOOTH",
"702 1526 OFFCURVE",
"695 1547 OFFCURVE",
"676 1547 CURVE SMOOTH",
"348 1547 LINE SMOOTH",
"329 1547 OFFCURVE",
"322 1526 OFFCURVE",
"322 1468 CURVE SMOOTH",
"321 -252 LINE SMOOTH"
);
},
{
closed = 1;
nodes = (
"364 1428 LINE",
"659 1428 LINE",
"659 -212 LINE",
"363 -212 LINE"
);
},
{
closed = 1;
nodes = (
"589 1129 OFFCURVE",
"582 1120 OFFCURVE",
"579 1105 CURVE SMOOTH",
"504 658 LINE",
"408 123 LINE SMOOTH",
"404 94 OFFCURVE",
"419 76 OFFCURVE",
"431 76 CURVE SMOOTH",
"440 76 OFFCURVE",
"447 83 OFFCURVE",
"449 98 CURVE SMOOTH",
"529 577 LINE",
"620 1080 LINE SMOOTH",
"625 1108 OFFCURVE",
"611 1129 OFFCURVE",
"599 1129 CURVE SMOOTH"
);
}
);
width = 1006;
},
{
background = {
paths = (
{
closed = 1;
nodes = (
"-1441 1219 OFFCURVE",
"-1462 1211 OFFCURVE",
"-1472 1194 CURVE SMOOTH",
"-1787 674 LINE",
"-2156 61 LINE SMOOTH",
"-2174 30 OFFCURVE",
"-2144 -2 OFFCURVE",
"-2096 -2 CURVE SMOOTH",
"-2067 -2 OFFCURVE",
"-2046 4 OFFCURVE",
"-2035 22 CURVE SMOOTH",
"-1731 566 LINE",
"-1352 1156 LINE SMOOTH",
"-1334 1184 OFFCURVE",
"-1363 1219 OFFCURVE",
"-1411 1219 CURVE SMOOTH"
);
},
{
closed = 1;
nodes = (
"-1904 1219 OFFCURVE",
"-1946 1198 OFFCURVE",
"-1939 1168 CURVE SMOOTH",
"-1802 576 LINE",
"-1691 9 LINE SMOOTH",
"-1688 -7 OFFCURVE",
"-1669 -15 OFFCURVE",
"-1641 -15 CURVE SMOOTH",
"-1606 -15 OFFCURVE",
"-1562 4 OFFCURVE",
"-1569 35 CURVE SMOOTH",
"-1716 661 LINE",
"-1817 1194 LINE SMOOTH",
"-1821 1210 OFFCURVE",
"-1841 1219 OFFCURVE",
"-1869 1219 CURVE SMOOTH"
);
},
{
closed = 1;
nodes = (
"-2474 -369 OFFCURVE",
"-2456 -390 OFFCURVE",
"-2404 -390 CURVE SMOOTH",
"-1443 -390 LINE SMOOTH",
"-1390 -390 OFFCURVE",
"-1366 -369 OFFCURVE",
"-1355 -310 CURVE SMOOTH",
"-1031 1526 LINE SMOOTH",
"-1020 1585 OFFCURVE",
"-1038 1606 OFFCURVE",
"-1091 1606 CURVE SMOOTH",
"-2052 1606 LINE SMOOTH",
"-2104 1606 OFFCURVE",
"-2129 1585 OFFCURVE",
"-2139 1526 CURVE SMOOTH",
"-2463 -310 LINE SMOOTH"
);
},
{
closed = 1;
nodes = (
"-2012 1486 LINE",
"-1174 1486 LINE",
"-1483 -270 LINE",
"-2321 -270 LINE"
);
},
{
closed = 1;
nodes = (
"482 1188 OFFCURVE",
"444 1167 OFFCURVE",
"455 1139 CURVE SMOOTH",
"696 577 LINE",
"906 40 LINE SMOOTH",
"912 25 OFFCURVE",
"933 18 OFFCURVE",
"961 18 CURVE SMOOTH",
"996 18 OFFCURVE",
"1037 35 OFFCURVE",
"1024 64 CURVE SMOOTH",
"768 658 LINE",
"573 1163 LINE SMOOTH",
"568 1178 OFFCURVE",
"545 1188 OFFCURVE",
"517 1188 CURVE SMOOTH"
);
},
{
closed = 1;
nodes = (
"174 -310 OFFCURVE",
"195 -331 OFFCURVE",
"248 -331 CURVE SMOOTH",
"1209 -331 LINE SMOOTH",
"1262 -331 OFFCURVE",
"1283 -310 OFFCURVE",
"1283 -252 CURVE SMOOTH",
"1286 1468 LINE SMOOTH",
"1286 1526 OFFCURVE",
"1265 1547 OFFCURVE",
"1212 1547 CURVE SMOOTH",
"252 1547 LINE SMOOTH",
"199 1547 OFFCURVE",
"178 1526 OFFCURVE",
"178 1468 CURVE SMOOTH",
"174 -252 LINE SMOOTH"
);
},
{
closed = 1;
nodes = (
"301 1428 LINE",
"1162 1428 LINE",
"1160 -212 LINE",
"298 -212 LINE"
);
},
{
closed = 1;
nodes = (
"934 1188 OFFCURVE",
"912 1178 OFFCURVE",
"906 1163 CURVE SMOOTH",
"712 658 LINE",
"455 64 LINE SMOOTH",
"442 35 OFFCURVE",
"483 18 OFFCURVE",
"518 18 CURVE SMOOTH",
"547 18 OFFCURVE",
"568 25 OFFCURVE",
"573 40 CURVE SMOOTH",
"783 577 LINE",
"1024 1139 LINE SMOOTH",
"1036 1167 OFFCURVE",
"997 1188 OFFCURVE",
"962 1188 CURVE SMOOTH"
);
}
);
};
guideLines = (
{
angle = 90;
position = "{265, 47}";
},
{
angle = 90;
position = "{149, 66}";
}
);
layerId = "8538028E-5D6C-4318-9676-30148CDA39CA";
paths = (
{
closed = 1;
nodes = (
"321 1129 OFFCURVE",
"293 1108 OFFCURVE",
"302 1080 CURVE SMOOTH",
"488 577 LINE",
"651 98 LINE SMOOTH",
"655 83 OFFCURVE",
"669 76 OFFCURVE",
"689 76 CURVE SMOOTH",
"714 76 OFFCURVE",
"744 94 OFFCURVE",
"734 123 CURVE SMOOTH",
"537 658 LINE",
"385 1105 LINE SMOOTH",
"380 1120 OFFCURVE",
"365 1129 OFFCURVE",
"345 1129 CURVE SMOOTH"
);
},
{
closed = 1;
nodes = (
"122 -310 OFFCURVE",
"137 -331 OFFCURVE",
"173 -331 CURVE SMOOTH",
"846 -331 LINE SMOOTH",
"884 -331 OFFCURVE",
"898 -310 OFFCURVE",
"898 -252 CURVE SMOOTH",
"900 1468 LINE SMOOTH",
"900 1526 OFFCURVE",
"886 1547 OFFCURVE",
"848 1547 CURVE SMOOTH",
"177 1547 LINE SMOOTH",
"139 1547 OFFCURVE",
"124 1526 OFFCURVE",
"124 1468 CURVE SMOOTH",
"122 -252 LINE SMOOTH"
);
},
{
closed = 1;
nodes = (
"211 1428 LINE",
"813 1428 LINE",
"812 -212 LINE",
"209 -212 LINE"
);
},
{
closed = 1;
nodes = (
"671 1129 OFFCURVE",
"655 1120 OFFCURVE",
"651 1105 CURVE SMOOTH",
"499 658 LINE",
"302 123 LINE SMOOTH",
"291 94 OFFCURVE",
"322 76 OFFCURVE",
"346 76 CURVE SMOOTH",
"366 76 OFFCURVE",
"380 83 OFFCURVE",
"385 98 CURVE SMOOTH",
"548 577 LINE",
"734 1080 LINE SMOOTH",
"743 1108 OFFCURVE",
"714 1129 OFFCURVE",
"689 1129 CURVE SMOOTH"
);
}
);
width = 1006;
}
);
},
{
glyphname = exclam;
lastChange = "2026-02-27 13:18:02 +0000";
layers = (
{
layerId = UUID0;
paths = (
{
closed = 1;
nodes = (
"466 1485 LINE SMOOTH",
"448 1485 OFFCURVE",
"440 1468 OFFCURVE",
"442 1427 CURVE SMOOTH",
"469 599 LINE SMOOTH",
"470 563 OFFCURVE",
"483 543 OFFCURVE",
"503 543 CURVE SMOOTH",
"523 543 OFFCURVE",
"535 563 OFFCURVE",
"536 599 CURVE SMOOTH",
"564 1427 LINE SMOOTH",
"565 1468 OFFCURVE",
"557 1485 OFFCURVE",
"541 1485 CURVE SMOOTH"
);
},
{
closed = 1;
nodes = (
"453 316 OFFCURVE",
"432 295 OFFCURVE",
"432 242 CURVE SMOOTH",
"432 62 LINE SMOOTH",
"432 9 OFFCURVE",
"453 -12 OFFCURVE",
"503 -12 CURVE SMOOTH",
"554 -12 OFFCURVE",
"575 9 OFFCURVE",
"575 62 CURVE SMOOTH",
"575 242 LINE SMOOTH",
"575 295 OFFCURVE",
"554 316 OFFCURVE",
"503 316 CURVE SMOOTH"
);
}
);
width = 1006;
},
{
layerId = "8538028E-5D6C-4318-9676-30148CDA39CA";
paths = (
{
closed = 1;
nodes = (
"408 1485 LINE SMOOTH",
"384 1485 OFFCURVE",
"373 1468 OFFCURVE",
"376 1427 CURVE SMOOTH",
"422 658 LINE SMOOTH",
"425 613 OFFCURVE",
"451 590 OFFCURVE",
"503 590 CURVE SMOOTH",
"556 590 OFFCURVE",
"582 613 OFFCURVE",
"584 658 CURVE SMOOTH",
"631 1427 LINE SMOOTH",
"633 1468 OFFCURVE",
"621 1485 OFFCURVE",
"597 1485 CURVE SMOOTH"
);
},
{
closed = 1;
nodes = (
"414 386 OFFCURVE",
"376 365 OFFCURVE",
"376 312 CURVE SMOOTH",
"376 62 LINE SMOOTH",
"376 9 OFFCURVE",
"414 -12 OFFCURVE",
"503 -12 CURVE SMOOTH",
"592 -12 OFFCURVE",
"630 9 OFFCURVE",
"630 62 CURVE SMOOTH",
"630 312 LINE SMOOTH",
"630 365 OFFCURVE",
"592 386 OFFCURVE",
"503 386 CURVE SMOOTH"
);
}
);
width = 1006;
}
);
unicode = 0021;
},
{
glyphname = numbersign;
lastChange = "2026-02-27 13:18:02 +0000";
layers = (
{
layerId = UUID0;
paths = (
{
closed = 1;
nodes = (
"682 1415 OFFCURVE",
"668 1403 OFFCURVE",
"665 1376 CURVE SMOOTH",
"496 53 LINE SMOOTH",
"490 4 OFFCURVE",
"514 -26 OFFCURVE",
"536 -26 CURVE SMOOTH",
"550 -26 OFFCURVE",
"564 -14 OFFCURVE",
"568 13 CURVE SMOOTH",
"736 1336 LINE SMOOTH",
"742 1386 OFFCURVE",
"719 1415 OFFCURVE",
"695 1415 CURVE SMOOTH"
);
},
{
closed = 1;
nodes = (
"221 557 LINE SMOOTH",
"195 557 OFFCURVE",
"185 534 OFFCURVE",
"185 473 CURVE SMOOTH",
"185 412 OFFCURVE",
"195 389 OFFCURVE",
"221 389 CURVE SMOOTH",
"744 389 LINE SMOOTH",
"770 389 OFFCURVE",
"781 412 OFFCURVE",
"781 473 CURVE SMOOTH",
"781 534 OFFCURVE",
"770 557 OFFCURVE",
"744 557 CURVE SMOOTH"
);
},
{
closed = 1;
nodes = (
"456 1415 OFFCURVE",
"442 1403 OFFCURVE",
"439 1376 CURVE SMOOTH",
"270 53 LINE SMOOTH",
"263 4 OFFCURVE",
"288 -26 OFFCURVE",
"310 -26 CURVE SMOOTH",
"324 -26 OFFCURVE",
"338 -14 OFFCURVE",
"342 13 CURVE SMOOTH",
"510 1336 LINE SMOOTH",
"516 1386 OFFCURVE",
"492 1415 OFFCURVE",
"469 1415 CURVE SMOOTH"
);
},
{
closed = 1;
nodes = (
"262 1012 LINE SMOOTH",
"235 1012 OFFCURVE",
"226 989 OFFCURVE",
"226 928 CURVE SMOOTH",
"226 867 OFFCURVE",
"235 844 OFFCURVE",
"262 844 CURVE SMOOTH",
"784 844 LINE SMOOTH",
"810 844 OFFCURVE",
"820 867 OFFCURVE",
"820 928 CURVE SMOOTH",
"820 989 OFFCURVE",
"810 1012 OFFCURVE",
"784 1012 CURVE SMOOTH"
);
}
);
width = 1006;
},
{
layerId = "8538028E-5D6C-4318-9676-30148CDA39CA";
paths = (
{
closed = 1;
nodes = (
"750 1415 OFFCURVE",
"722 1403 OFFCURVE",
"717 1376 CURVE SMOOTH",
"476 53 LINE SMOOTH",
"468 5 OFFCURVE",
"523 -26 OFFCURVE",
"572 -26 CURVE SMOOTH",
"603 -26 OFFCURVE",
"631 -14 OFFCURVE",
"635 13 CURVE SMOOTH",
"877 1336 LINE SMOOTH",
"886 1384 OFFCURVE",
"830 1415 OFFCURVE",
"781 1415 CURVE SMOOTH"
);
},
{
closed = 1;
nodes = (
"92 564 LINE SMOOTH",
"56 564 OFFCURVE",
"41 543 OFFCURVE",
"41 432 CURVE SMOOTH",
"41 321 OFFCURVE",
"56 301 OFFCURVE",
"92 301 CURVE SMOOTH",
"840 301 LINE SMOOTH",
"877 301 OFFCURVE",
"892 321 OFFCURVE",
"892 432 CURVE SMOOTH",
"892 543 OFFCURVE",
"877 564 OFFCURVE",
"840 564 CURVE SMOOTH"
);
},
{
closed = 1;
nodes = (
"403 1415 OFFCURVE",
"376 1403 OFFCURVE",
"370 1376 CURVE SMOOTH",
"130 53 LINE SMOOTH",
"121 5 OFFCURVE",
"177 -26 OFFCURVE",
"226 -26 CURVE SMOOTH",
"255 -26 OFFCURVE",
"283 -14 OFFCURVE",
"288 13 CURVE SMOOTH",
"529 1336 LINE SMOOTH",
"538 1384 OFFCURVE",
"482 1415 OFFCURVE",
"433 1415 CURVE SMOOTH"
);
},
{
closed = 1;
nodes = (
"166 1100 LINE SMOOTH",
"130 1100 OFFCURVE",
"115 1079 OFFCURVE",
"115 968 CURVE SMOOTH",
"115 857 OFFCURVE",
"130 837 OFFCURVE",
"166 837 CURVE SMOOTH",
"914 837 LINE SMOOTH",
"950 837 OFFCURVE",
"965 857 OFFCURVE",
"965 968 CURVE SMOOTH",
"965 1079 OFFCURVE",
"950 1100 OFFCURVE",
"914 1100 CURVE SMOOTH"
);
}
);
width = 1006;
}
);
unicode = 0023;
},
{
glyphname = dollar;
lastChange = "2026-02-27 13:18:02 +0000";
layers = (
{
layerId = UUID0;
paths = (
{
closed = 1;
nodes = (
"472 1535 OFFCURVE",
"460 1513 OFFCURVE",
"460 1459 CURVE SMOOTH",
"460 1271 LINE",
"344 1271 OFFCURVE",
"256 1157 OFFCURVE",
"256 948 CURVE SMOOTH",
"256 811 OFFCURVE",
"294 738 OFFCURVE",
"345 696 CURVE SMOOTH",
"379 668 OFFCURVE",
"419 654 OFFCURVE",
"460 644 CURVE",
"460 317 LINE",
"392 341 OFFCURVE",
"350 406 OFFCURVE",
"328 523 CURVE SMOOTH",
"322 556 OFFCURVE",
"314 571 OFFCURVE",
"297 571 CURVE SMOOTH",
"264 571 OFFCURVE",
"254 549 OFFCURVE",
"254 495 CURVE SMOOTH",
"254 214 LINE SMOOTH",
"254 160 OFFCURVE",
"264 138 OFFCURVE",
"297 138 CURVE SMOOTH",
"329 138 OFFCURVE",
"339 160 OFFCURVE",
"339 214 CURVE SMOOTH",
"339 280 LINE",
"372 214 OFFCURVE",
"411 171 OFFCURVE",
"460 151 CURVE",
"460 -70 LINE SMOOTH",
"460 -124 OFFCURVE",
"472 -146 OFFCURVE",
"500 -146 CURVE SMOOTH",
"528 -146 OFFCURVE",
"540 -124 OFFCURVE",
"540 -70 CURVE SMOOTH",
"540 138 LINE",
"676 144 OFFCURVE",
"754 283 OFFCURVE",
"754 488 CURVE SMOOTH",
"754 637 OFFCURVE",
"713 714 OFFCURVE",
"657 756 CURVE SMOOTH",
"621 782 OFFCURVE",
"580 796 OFFCURVE",
"540 805 CURVE",
"540 1094 LINE",
"592 1074 OFFCURVE",
"632 1022 OFFCURVE",
"657 927 CURVE SMOOTH",
"661 907 OFFCURVE",
"669 896 OFFCURVE",
"683 896 CURVE SMOOTH",
"716 896 OFFCURVE",
"727 919 OFFCURVE",
"727 973 CURVE SMOOTH",
"727 1195 LINE SMOOTH",
"727 1249 OFFCURVE",
"716 1271 OFFCURVE",
"683 1271 CURVE SMOOTH",
"652 1271 OFFCURVE",
"641 1249 OFFCURVE",
"641 1195 CURVE SMOOTH",
"641 1142 LINE",
"613 1191 OFFCURVE",
"580 1235 OFFCURVE",
"540 1256 CURVE",
"540 1459 LINE SMOOTH",
"540 1513 OFFCURVE",
"528 1535 OFFCURVE",
"500 1535 CURVE SMOOTH"
);
},
{
closed = 1;
nodes = (
"568 618 OFFCURVE",
"593 610 OFFCURVE",
"613 596 CURVE SMOOTH",
"644 576 OFFCURVE",
"662 544 OFFCURVE",
"662 488 CURVE SMOOTH",
"662 387 OFFCURVE",
"621 316 OFFCURVE",
"540 308 CURVE",
"540 625 LINE"
);
},
{
closed = 1;
nodes = (
"460 822 LINE",
"434 829 OFFCURVE",
"412 836 OFFCURVE",
"393 848 CURVE SMOOTH",
"365 867 OFFCURVE",
"348 896 OFFCURVE",
"348 948 CURVE SMOOTH",
"348 1043 OFFCURVE",
"389 1098 OFFCURVE",
"460 1101 CURVE"
);
}
);
width = 1006;
},
{
layerId = "8538028E-5D6C-4318-9676-30148CDA39CA";
paths = (
{
closed = 1;
nodes = (
"437 1535 OFFCURVE",
"422 1514 OFFCURVE",
"422 1462 CURVE SMOOTH",
"422 1271 LINE",
"257 1266 OFFCURVE",
"135 1141 OFFCURVE",
"135 936 CURVE SMOOTH",
"135 791 OFFCURVE",
"181 707 OFFCURVE",
"247 655 CURVE SMOOTH",
"298 614 OFFCURVE",
"360 595 OFFCURVE",
"422 580 CURVE",
"422 392 LINE",
"370 413 OFFCURVE",
"324 452 OFFCURVE",
"289 514 CURVE SMOOTH",
"277 535 OFFCURVE",
"257 547 OFFCURVE",
"221 547 CURVE SMOOTH",
"169 547 OFFCURVE",
"143 525 OFFCURVE",
"143 473 CURVE SMOOTH",
"143 212 LINE SMOOTH",
"143 159 OFFCURVE",
"170 138 OFFCURVE",
"239 138 CURVE SMOOTH",
"309 138 OFFCURVE",
"339 159 OFFCURVE",
"339 212 CURVE SMOOTH",
"339 221 LINE",
"365 199 OFFCURVE",
"392 180 OFFCURVE",
"422 166 CURVE",
"422 -73 LINE SMOOTH",
"422 -125 OFFCURVE",
"437 -146 OFFCURVE",
"499 -146 CURVE SMOOTH",
"559 -146 OFFCURVE",
"575 -125 OFFCURVE",
"575 -73 CURVE SMOOTH",
"575 138 LINE",
"769 149 OFFCURVE",
"877 287 OFFCURVE",
"877 500 CURVE SMOOTH",
"877 660 OFFCURVE",
"817 743 OFFCURVE",
"737 790 CURVE SMOOTH",
"687 819 OFFCURVE",
"630 834 OFFCURVE",
"575 844 CURVE",
"575 1015 LINE",
"623 994 OFFCURVE",
"666 958 OFFCURVE",
"703 901 CURVE SMOOTH",
"715 884 OFFCURVE",
"735 877 OFFCURVE",
"763 877 CURVE SMOOTH",
"817 877 OFFCURVE",
"839 898 OFFCURVE",
"839 950 CURVE SMOOTH",
"839 1197 LINE SMOOTH",
"839 1250 OFFCURVE",
"812 1271 OFFCURVE",
"742 1271 CURVE SMOOTH",
"673 1271 OFFCURVE",
"651 1250 OFFCURVE",
"651 1197 CURVE SMOOTH",
"651 1185 LINE",
"627 1207 OFFCURVE",
"602 1224 OFFCURVE",
"575 1238 CURVE",
"575 1462 LINE SMOOTH",
"575 1514 OFFCURVE",
"559 1535 OFFCURVE",
"499 1535 CURVE SMOOTH"
);
},
{
closed = 1;
nodes = (
"598 549 OFFCURVE",
"616 542 OFFCURVE",
"631 532 CURVE SMOOTH",
"654 516 OFFCURVE",
"665 495 OFFCURVE",
"665 469 CURVE SMOOTH",
"665 417 OFFCURVE",
"637 384 OFFCURVE",
"575 374 CURVE",
"575 554 LINE"
);
},
{
closed = 1;
nodes = (
"422 868 LINE",
"406 872 OFFCURVE",
"389 878 OFFCURVE",
"376 887 CURVE SMOOTH",
"358 900 OFFCURVE",
"345 919 OFFCURVE",
"345 947 CURVE SMOOTH",
"345 991 OFFCURVE",
"373 1025 OFFCURVE",
"422 1035 CURVE"
);
}
);
width = 1006;
}
);
unicode = 0024;
},
{
glyphname = percent;
lastChange = "2026-02-27 13:18:02 +0000";
layers = (
{
layerId = UUID0;
paths = (
{
closed = 1;
nodes = (
"225 268 LINE SMOOTH",
"206 232 OFFCURVE",
"207 195 OFFCURVE",
"226 157 CURVE SMOOTH",
"243 118 OFFCURVE",
"261 115 OFFCURVE",
"280 151 CURVE SMOOTH",
"781 1122 LINE SMOOTH",
"800 1159 OFFCURVE",
"799 1195 OFFCURVE",
"781 1233 CURVE SMOOTH",
"763 1272 OFFCURVE",
"745 1276 OFFCURVE",
"726 1239 CURVE SMOOTH"
);
},
{
closed = 1;
nodes = (
"583 616 OFFCURVE",
"513 472 OFFCURVE",
"513 295 CURVE SMOOTH",
"513 118 OFFCURVE",
"583 -26 OFFCURVE",
"669 -26 CURVE SMOOTH",
"756 -26 OFFCURVE",
"826 118 OFFCURVE",
"826 295 CURVE SMOOTH",
"826 472 OFFCURVE",
"756 616 OFFCURVE",
"669 616 CURVE SMOOTH"
);
},
{
closed = 1;
nodes = (
"715 463 OFFCURVE",
"751 387 OFFCURVE",
"751 295 CURVE SMOOTH",
"751 202 OFFCURVE",
"715 126 OFFCURVE",
"669 126 CURVE SMOOTH",
"624 126 OFFCURVE",
"586 202 OFFCURVE",
"586 295 CURVE SMOOTH",
"586 387 OFFCURVE",
"624 463 OFFCURVE",
"669 463 CURVE SMOOTH"
);
},
{
closed = 1;
nodes = (
"250 1415 OFFCURVE",
"179 1271 OFFCURVE",
"179 1094 CURVE SMOOTH",
"179 918 OFFCURVE",
"250 774 OFFCURVE",
"337 774 CURVE SMOOTH",
"424 774 OFFCURVE",
"494 918 OFFCURVE",
"494 1094 CURVE SMOOTH",
"494 1271 OFFCURVE",
"424 1415 OFFCURVE",
"337 1415 CURVE SMOOTH"
);
},
{
closed = 1;
nodes = (
"382 1263 OFFCURVE",
"419 1187 OFFCURVE",
"419 1094 CURVE SMOOTH",
"419 1002 OFFCURVE",
"382 926 OFFCURVE",
"337 926 CURVE SMOOTH",
"291 926 OFFCURVE",
"254 1002 OFFCURVE",
"254 1094 CURVE SMOOTH",
"254 1187 OFFCURVE",
"291 1263 OFFCURVE",
"337 1263 CURVE SMOOTH"
);
}
);
width = 1006;
},
{
layerId = "8538028E-5D6C-4318-9676-30148CDA39CA";
paths = (
{
closed = 1;
nodes = (
"89 291 LINE SMOOTH",
"62 255 OFFCURVE",
"62 226 OFFCURVE",
"106 157 CURVE SMOOTH",
"152 88 OFFCURVE",
"172 88 OFFCURVE",
"199 124 CURVE SMOOTH",
"918 1100 LINE SMOOTH",
"943 1136 OFFCURVE",
"946 1166 OFFCURVE",
"900 1233 CURVE SMOOTH",
"853 1301 OFFCURVE",
"833 1304 OFFCURVE",
"807 1267 CURVE SMOOTH"
);
},
{
closed = 1;
nodes = (
"617 616 OFFCURVE",
"516 472 OFFCURVE",
"516 295 CURVE SMOOTH",
"516 118 OFFCURVE",
"617 -26 OFFCURVE",
"741 -26 CURVE SMOOTH",
"865 -26 OFFCURVE",
"965 118 OFFCURVE",
"965 295 CURVE SMOOTH",
"965 472 OFFCURVE",
"865 616 OFFCURVE",
"741 616 CURVE SMOOTH"
);
},
{
closed = 1;
nodes = (
"779 397 OFFCURVE",
"812 351 OFFCURVE",
"812 295 CURVE SMOOTH",
"812 239 OFFCURVE",
"779 193 OFFCURVE",
"741 193 CURVE SMOOTH",
"701 193 OFFCURVE",
"669 239 OFFCURVE",
"669 295 CURVE SMOOTH",
"669 351 OFFCURVE",
"701 397 OFFCURVE",
"741 397 CURVE SMOOTH"
);
},
{
closed = 1;
nodes = (
"142 1415 OFFCURVE",
"41 1271 OFFCURVE",
"41 1094 CURVE SMOOTH",
"41 918 OFFCURVE",
"142 774 OFFCURVE",
"266 774 CURVE SMOOTH",
"390 774 OFFCURVE",
"490 918 OFFCURVE",
"490 1094 CURVE SMOOTH",
"490 1271 OFFCURVE",
"390 1415 OFFCURVE",
"266 1415 CURVE SMOOTH"
);
},
{
closed = 1;
nodes = (
"304 1196 OFFCURVE",
"337 1150 OFFCURVE",
"337 1094 CURVE SMOOTH",
"337 1038 OFFCURVE",
"304 992 OFFCURVE",
"266 992 CURVE SMOOTH",
"226 992 OFFCURVE",
"194 1038 OFFCURVE",
"194 1094 CURVE SMOOTH",
"194 1150 OFFCURVE",
"226 1196 OFFCURVE",
"266 1196 CURVE SMOOTH"
);
}
);
width = 1006;
}
);
unicode = 0025;
},
{
glyphname = ampersand;
lastChange = "2026-02-27 13:18:02 +0000";
layers = (
{
layerId = UUID0;
paths = (
{
closed = 1;
nodes = (
"371 1415 OFFCURVE",
"296 1250 OFFCURVE",
"296 1042 CURVE SMOOTH",
"296 919 OFFCURVE",
"321 822 OFFCURVE",
"353 742 CURVE",
"287 647 OFFCURVE",
"241 528 OFFCURVE",
"241 363 CURVE SMOOTH",
"241 153 OFFCURVE",
"312 -26 OFFCURVE",
"437 -26 CURVE SMOOTH",
"506 -26 OFFCURVE",
"564 41 OFFCURVE",
"611 152 CURVE",
"661 39 LINE SMOOTH",
"673 12 OFFCURVE",
"689 0 OFFCURVE",
"706 0 CURVE SMOOTH",
"771 0 LINE SMOOTH",
"797 0 OFFCURVE",
"807 21 OFFCURVE",
"807 80 CURVE SMOOTH",
"807 138 OFFCURVE",
"797 159 OFFCURVE",
"771 159 CURVE SMOOTH",
"723 159 LINE",
"660 302 LINE",
"680 377 OFFCURVE",
"696 463 OFFCURVE",
"709 556 CURVE",
"763 556 LINE SMOOTH",
"789 556 OFFCURVE",
"799 577 OFFCURVE",
"799 635 CURVE SMOOTH",
"799 694 OFFCURVE",
"789 715 OFFCURVE",
"763 715 CURVE SMOOTH",
"673 715 LINE SMOOTH",
"655 715 OFFCURVE",
"647 694 OFFCURVE",
"642 666 CURVE SMOOTH",
"631 582 OFFCURVE",
"617 504 OFFCURVE",
"602 435 CURVE",
"434 822 LINE SMOOTH",
"404 892 OFFCURVE",
"386 957 OFFCURVE",
"386 1042 CURVE SMOOTH",
"386 1150 OFFCURVE",
"422 1242 OFFCURVE",
"488 1242 CURVE SMOOTH",
"531 1242 OFFCURVE",
"568 1221 OFFCURVE",
"595 1187 CURVE",
"595 1081 LINE SMOOTH",
"595 1028 OFFCURVE",
"605 1005 OFFCURVE",
"638 1005 CURVE SMOOTH",
"669 1005 OFFCURVE",
"680 1028 OFFCURVE",
"680 1081 CURVE SMOOTH",
"680 1230 LINE SMOOTH",
"680 1260 OFFCURVE",
"676 1280 OFFCURVE",
"668 1293 CURVE SMOOTH",
"618 1363 OFFCURVE",
"557 1415 OFFCURVE",
"489 1415 CURVE SMOOTH"
);
},
{
closed = 1;
nodes = (
"556 279 LINE",
"523 197 OFFCURVE",
"484 147 OFFCURVE",
"437 147 CURVE SMOOTH",
"374 147 OFFCURVE",
"332 240 OFFCURVE",
"332 363 CURVE SMOOTH",
"332 467 OFFCURVE",
"353 547 OFFCURVE",
"406 623 CURVE"
);
}
);
width = 1006;
},
{
layerId = "8538028E-5D6C-4318-9676-30148CDA39CA";
paths = (
{
closed = 1;
nodes = (
"283 1415 OFFCURVE",
"165 1245 OFFCURVE",
"165 1013 CURVE SMOOTH",
"165 907 OFFCURVE",
"193 812 OFFCURVE",
"235 728 CURVE",
"138 637 OFFCURVE",
"88 524 OFFCURVE",
"88 374 CURVE SMOOTH",
"88 139 OFFCURVE",
"199 -26 OFFCURVE",
"373 -26 CURVE SMOOTH",
"476 -26 OFFCURVE",
"564 20 OFFCURVE",
"635 117 CURVE",
"689 39 LINE SMOOTH",
"707 12 OFFCURVE",
"726 0 OFFCURVE",
"748 0 CURVE SMOOTH",
"888 0 LINE SMOOTH",
"925 0 OFFCURVE",
"940 20 OFFCURVE",
"940 119 CURVE SMOOTH",
"940 219 OFFCURVE",
"925 240 OFFCURVE",
"888 240 CURVE SMOOTH",
"825 240 LINE",
"750 350 LINE",
"767 400 OFFCURVE",
"783 455 OFFCURVE",
"797 515 CURVE",
"872 515 LINE SMOOTH",
"908 515 OFFCURVE",
"923 536 OFFCURVE",
"923 635 CURVE SMOOTH",
"923 735 OFFCURVE",
"908 755 OFFCURVE",
"872 755 CURVE SMOOTH",
"692 755 LINE SMOOTH",
"667 755 OFFCURVE",
"655 735 OFFCURVE",
"648 706 CURVE SMOOTH",
"637 653 OFFCURVE",
"624 604 OFFCURVE",
"611 558 CURVE",
"462 779 LINE SMOOTH",
"411 855 OFFCURVE",
"373 928 OFFCURVE",
"373 1008 CURVE SMOOTH",
"373 1100 OFFCURVE",
"417 1161 OFFCURVE",
"476 1161 CURVE SMOOTH",
"517 1161 OFFCURVE",
"558 1145 OFFCURVE",
"595 1119 CURVE",
"595 999 LINE SMOOTH",
"595 947 OFFCURVE",
"613 926 OFFCURVE",
"682 926 CURVE SMOOTH",
"752 926 OFFCURVE",
"783 947 OFFCURVE",
"783 999 CURVE SMOOTH",
"783 1230 LINE SMOOTH",
"783 1263 OFFCURVE",
"771 1284 OFFCURVE",
"747 1303 CURVE SMOOTH",
"651 1379 OFFCURVE",
"562 1415 OFFCURVE",
"477 1415 CURVE SMOOTH"
);
},
{
closed = 1;
nodes = (
"506 311 LINE",
"472 264 OFFCURVE",
"434 240 OFFCURVE",
"390 240 CURVE SMOOTH",
"329 240 OFFCURVE",
"291 297 OFFCURVE",
"291 386 CURVE SMOOTH",
"291 452 OFFCURVE",
"310 502 OFFCURVE",
"345 549 CURVE"
);
}
);
width = 1006;
}
);
unicode = 0026;
},
{
glyphname = quotesingle;
lastChange = "2026-02-27 13:18:02 +0000";
layers = (
{
layerId = UUID0;
paths = (
{
closed = 1;
nodes = (
"456 1485 LINE SMOOTH",
"439 1485 OFFCURVE",
"431 1468 OFFCURVE",
"433 1427 CURVE SMOOTH",
"463 900 LINE SMOOTH",
"466 860 OFFCURVE",
"481 837 OFFCURVE",
"503 837 CURVE SMOOTH",
"525 837 OFFCURVE",
"540 860 OFFCURVE",
"542 900 CURVE SMOOTH",
"573 1427 LINE SMOOTH",
"576 1468 OFFCURVE",
"568 1485 OFFCURVE",
"550 1485 CURVE SMOOTH"
);
}
);
width = 1006;
},
{
layerId = "8538028E-5D6C-4318-9676-30148CDA39CA";
paths = (
{
closed = 1;
nodes = (
"400 1485 LINE SMOOTH",
"376 1485 OFFCURVE",
"363 1468 OFFCURVE",
"367 1427 CURVE SMOOTH",
"427 865 LINE SMOOTH",
"432 817 OFFCURVE",
"449 785 OFFCURVE",
"503 785 CURVE SMOOTH",
"556 785 OFFCURVE",
"575 817 OFFCURVE",
"579 865 CURVE SMOOTH",
"639 1427 LINE SMOOTH",
"644 1468 OFFCURVE",
"630 1485 OFFCURVE",
"605 1485 CURVE SMOOTH"
);
}
);
width = 1006;
}
);
unicode = 0027;
},
{
glyphname = parenleft;
lastChange = "2026-02-27 13:18:02 +0000";
layers = (
{
layerId = UUID0;
paths = (
{
closed = 1;
nodes = (
"456 1452 OFFCURVE",
"314 1100 OFFCURVE",
"314 605 CURVE SMOOTH",
"314 110 OFFCURVE",
"456 -238 OFFCURVE",
"585 -394 CURVE SMOOTH",
"602 -414 OFFCURVE",
"619 -390 OFFCURVE",
"630 -355 CURVE SMOOTH",
"639 -319 OFFCURVE",
"644 -274 OFFCURVE",
"631 -257 CURVE SMOOTH",
"517 -105 OFFCURVE",
"398 171 OFFCURVE",
"398 605 CURVE SMOOTH",
"398 1039 OFFCURVE",
"517 1320 OFFCURVE",
"631 1472 CURVE SMOOTH",
"644 1489 OFFCURVE",
"639 1534 OFFCURVE",
"630 1569 CURVE SMOOTH",
"619 1604 OFFCURVE",
"602 1629 OFFCURVE",
"585 1609 CURVE SMOOTH"
);
}
);
width = 1006;
},
{
layerId = "8538028E-5D6C-4318-9676-30148CDA39CA";
paths = (
{
closed = 1;
nodes = (
"424 1441 OFFCURVE",
"211 1114 OFFCURVE",
"211 607 CURVE SMOOTH",
"211 101 OFFCURVE",
"424 -226 OFFCURVE",
"632 -394 CURVE",
"665 -421 OFFCURVE",
"702 -384 OFFCURVE",
"730 -324 CURVE SMOOTH",
"760 -261 OFFCURVE",
"771 -191 OFFCURVE",
"744 -167 CURVE SMOOTH",
"534 22 OFFCURVE",
"414 264 OFFCURVE",
"414 607 CURVE SMOOTH",
"414 950 OFFCURVE",
"534 1193 OFFCURVE",
"744 1382 CURVE SMOOTH",
"771 1406 OFFCURVE",
"760 1476 OFFCURVE",
"730 1539 CURVE SMOOTH",
"702 1599 OFFCURVE",
"665 1636 OFFCURVE",
"632 1609 CURVE SMOOTH"
);
}
);
width = 1006;
}
);
unicode = 0028;
},
{
glyphname = parenright;
lastChange = "2026-02-27 13:18:02 +0000";
layers = (
{
layerId = UUID0;
paths = (
{
closed = 1;
nodes = (
"405 1629 OFFCURVE",
"387 1604 OFFCURVE",
"377 1569 CURVE SMOOTH",
"366 1534 OFFCURVE",
"363 1489 OFFCURVE",
"374 1472 CURVE SMOOTH",
"488 1320 OFFCURVE",
"609 1039 OFFCURVE",
"609 605 CURVE SMOOTH",
"609 171 OFFCURVE",
"488 -105 OFFCURVE",
"374 -257 CURVE SMOOTH",
"363 -274 OFFCURVE",
"366 -319 OFFCURVE",
"377 -355 CURVE SMOOTH",
"387 -390 OFFCURVE",
"405 -414 OFFCURVE",
"421 -394 CURVE SMOOTH",
"550 -238 OFFCURVE",
"693 110 OFFCURVE",
"693 605 CURVE SMOOTH",
"693 1100 OFFCURVE",
"550 1452 OFFCURVE",
"421 1609 CURVE SMOOTH"
);
}
);
width = 1006;
},
{
layerId = "8538028E-5D6C-4318-9676-30148CDA39CA";
paths = (
{
closed = 1;
nodes = (
"342 1636 OFFCURVE",
"304 1599 OFFCURVE",
"276 1539 CURVE SMOOTH",
"247 1476 OFFCURVE",
"235 1406 OFFCURVE",
"261 1382 CURVE SMOOTH",
"473 1193 OFFCURVE",
"592 950 OFFCURVE",
"592 607 CURVE SMOOTH",
"592 264 OFFCURVE",
"473 22 OFFCURVE",
"261 -167 CURVE SMOOTH",
"235 -191 OFFCURVE",
"247 -261 OFFCURVE",
"276 -324 CURVE SMOOTH",
"304 -384 OFFCURVE",
"342 -421 OFFCURVE",
"374 -394 CURVE SMOOTH",
"583 -226 OFFCURVE",
"796 101 OFFCURVE",
"796 607 CURVE SMOOTH",
"796 1114 OFFCURVE",
"583 1441 OFFCURVE",
"374 1609 CURVE SMOOTH"
);
}
);
width = 1006;
}
);
unicode = 0029;
},
{
glyphname = asterisk;
lastChange = "2026-02-27 13:18:02 +0000";
layers = (
{
layerId = UUID0;
paths = (
{
closed = 1;
nodes = (
"467 1415 OFFCURVE",
"449 1374 OFFCURVE",
"454 1310 CURVE SMOOTH",
"474 982 LINE",
"328 1123 LINE SMOOTH",
"298 1150 OFFCURVE",
"275 1129 OFFCURVE",
"263 1060 CURVE SMOOTH",
"253 991 OFFCURVE",
"267 944 OFFCURVE",
"298 933 CURVE SMOOTH",
"456 871 LINE",
"345 627 LINE SMOOTH",
"323 580 OFFCURVE",
"327 528 OFFCURVE",
"355 486 CURVE SMOOTH",
"384 442 OFFCURVE",
"411 459 OFFCURVE",
"426 515 CURVE SMOOTH",
"503 802 LINE",
"580 515 LINE SMOOTH",
"596 459 OFFCURVE",
"621 442 OFFCURVE",
"651 486 CURVE SMOOTH",
"680 528 OFFCURVE",
"682 580 OFFCURVE",
"661 627 CURVE SMOOTH",
"549 871 LINE",
"708 933 LINE SMOOTH",
"738 944 OFFCURVE",
"752 991 OFFCURVE",
"742 1060 CURVE SMOOTH",
"731 1129 OFFCURVE",
"707 1150 OFFCURVE",
"679 1123 CURVE SMOOTH",
"531 982 LINE",
"552 1310 LINE SMOOTH",
"556 1374 OFFCURVE",
"538 1415 OFFCURVE",
"503 1415 CURVE SMOOTH"
);
}
);
width = 1006;
},
{
layerId = "8538028E-5D6C-4318-9676-30148CDA39CA";
paths = (
{
closed = 1;
nodes = (
"427 1415 OFFCURVE",
"394 1338 OFFCURVE",
"408 1251 CURVE SMOOTH",
"447 1012 LINE",
"300 1139 LINE SMOOTH",
"247 1184 OFFCURVE",
"185 1163 OFFCURVE",
"161 1060 CURVE SMOOTH",
"138 958 OFFCURVE",
"179 889 OFFCURVE",
"241 881 CURVE SMOOTH",
"411 859 LINE",
"282 699 LINE SMOOTH",
"235 640 OFFCURVE",
"231 550 OFFCURVE",
"291 486 CURVE SMOOTH",
"351 422 OFFCURVE",
"411 456 OFFCURVE",
"435 538 CURVE SMOOTH",
"503 764 LINE",
"571 538 LINE SMOOTH",
"596 456 OFFCURVE",
"654 422 OFFCURVE",
"715 486 CURVE SMOOTH",
"776 550 OFFCURVE",
"771 640 OFFCURVE",
"724 699 CURVE SMOOTH",
"595 859 LINE",
"765 881 LINE SMOOTH",
"827 889 OFFCURVE",
"867 958 OFFCURVE",
"845 1060 CURVE SMOOTH",
"820 1163 OFFCURVE",
"760 1184 OFFCURVE",
"706 1139 CURVE SMOOTH",
"559 1012 LINE",
"598 1251 LINE SMOOTH",
"612 1338 OFFCURVE",
"578 1415 OFFCURVE",
"503 1415 CURVE SMOOTH"
);
}
);
width = 1006;
}
);
unicode = 002A;
},
{
glyphname = plus;
lastChange = "2026-02-27 13:18:02 +0000";
layers = (
{
layerId = UUID0;
paths = (
{
closed = 1;
nodes = (
"474 1201 OFFCURVE",
"463 1180 OFFCURVE",
"463 1127 CURVE SMOOTH",
"463 761 LINE",
"284 761 LINE SMOOTH",
"259 761 OFFCURVE",
"248 740 OFFCURVE",
"248 681 CURVE SMOOTH",
"248 623 OFFCURVE",
"259 602 OFFCURVE",
"284 602 CURVE SMOOTH",
"463 602 LINE",
"463 235 LINE SMOOTH",
"463 183 OFFCURVE",
"474 161 OFFCURVE",
"503 161 CURVE SMOOTH",
"531 161 OFFCURVE",
"542 183 OFFCURVE",
"542 235 CURVE SMOOTH",
"542 602 LINE",
"721 602 LINE SMOOTH",
"748 602 OFFCURVE",
"757 623 OFFCURVE",
"757 681 CURVE SMOOTH",
"757 740 OFFCURVE",
"748 761 OFFCURVE",
"721 761 CURVE SMOOTH",
"542 761 LINE",
"542 1127 LINE SMOOTH",
"542 1180 OFFCURVE",
"531 1201 OFFCURVE",
"503 1201 CURVE SMOOTH"
);
}
);
width = 1006;
},
{
layerId = "8538028E-5D6C-4318-9676-30148CDA39CA";
paths = (
{
closed = 1;
nodes = (
"425 1201 OFFCURVE",
"411 1180 OFFCURVE",
"411 1127 CURVE SMOOTH",
"411 813 LINE",
"191 813 LINE SMOOTH",
"154 813 OFFCURVE",
"139 792 OFFCURVE",
"139 681 CURVE SMOOTH",
"139 570 OFFCURVE",
"154 550 OFFCURVE",
"191 550 CURVE SMOOTH",
"411 550 LINE",
"411 235 LINE SMOOTH",
"411 183 OFFCURVE",
"425 161 OFFCURVE",
"503 161 CURVE SMOOTH",
"580 161 OFFCURVE",
"595 183 OFFCURVE",
"595 235 CURVE SMOOTH",
"595 550 LINE",
"816 550 LINE SMOOTH",
"852 550 OFFCURVE",
"867 570 OFFCURVE",
"867 681 CURVE SMOOTH",
"867 792 OFFCURVE",
"852 813 OFFCURVE",
"816 813 CURVE SMOOTH",
"595 813 LINE",
"595 1127 LINE SMOOTH",
"595 1180 OFFCURVE",
"580 1201 OFFCURVE",
"503 1201 CURVE SMOOTH"
);
}
);
width = 1006;
}
);
unicode = 002B;
},
{
glyphname = comma;
lastChange = "2026-02-27 13:18:02 +0000";
layers = (
{
layerId = UUID0;
paths = (
{
closed = 1;
nodes = (
"437 344 LINE SMOOTH",
"420 344 OFFCURVE",
"408 328 OFFCURVE",
"406 297 CURVE SMOOTH",
"352 -267 LINE SMOOTH",
"348 -316 OFFCURVE",
"360 -344 OFFCURVE",
"392 -344 CURVE SMOOTH",
"419 -344 OFFCURVE",
"435 -329 OFFCURVE",
"441 -296 CURVE SMOOTH",
"563 270 LINE SMOOTH",
"572 311 OFFCURVE",
"566 344 OFFCURVE",
"548 344 CURVE SMOOTH"
);
}
);
width = 1006;
},
{
layerId = "8538028E-5D6C-4318-9676-30148CDA39CA";
paths = (
{
closed = 1;
nodes = (
"414 414 LINE SMOOTH",
"392 414 OFFCURVE",
"376 398 OFFCURVE",
"372 367 CURVE SMOOTH",
"290 -267 LINE SMOOTH",
"283 -317 OFFCURVE",
"310 -344 OFFCURVE",
"356 -344 CURVE SMOOTH",
"401 -344 OFFCURVE",
"431 -327 OFFCURVE",
"442 -288 CURVE SMOOTH",
"637 341 LINE SMOOTH",
"650 383 OFFCURVE",
"640 414 OFFCURVE",
"613 414 CURVE SMOOTH"
);
}
);
width = 1006;
}
);
unicode = 002C;
},
{
glyphname = hyphen;
lastChange = "2026-02-27 13:18:02 +0000";
layers = (
{
layerId = UUID0;
paths = (
{
closed = 1;
nodes = (
"284 761 LINE SMOOTH",
"259 761 OFFCURVE",
"248 740 OFFCURVE",
"248 681 CURVE SMOOTH",
"248 623 OFFCURVE",
"259 602 OFFCURVE",
"284 602 CURVE SMOOTH",
"721 602 LINE SMOOTH",
"748 602 OFFCURVE",
"757 623 OFFCURVE",
"757 681 CURVE SMOOTH",
"757 740 OFFCURVE",
"748 761 OFFCURVE",
"721 761 CURVE SMOOTH"
);
}
);
width = 1006;
},
{
layerId = "8538028E-5D6C-4318-9676-30148CDA39CA";
paths = (
{
closed = 1;
nodes = (
"191 813 LINE SMOOTH",
"154 813 OFFCURVE",
"139 792 OFFCURVE",
"139 681 CURVE SMOOTH",
"139 570 OFFCURVE",
"154 550 OFFCURVE",
"191 550 CURVE SMOOTH",
"816 550 LINE SMOOTH",
"852 550 OFFCURVE",
"867 570 OFFCURVE",
"867 681 CURVE SMOOTH",
"867 792 OFFCURVE",
"852 813 OFFCURVE",
"816 813 CURVE SMOOTH"
);
}
);
width = 1006;
}
);
unicode = 002D;
},
{
glyphname = period;
lastChange = "2026-02-27 13:18:02 +0000";
layers = (
{
layerId = UUID0;
paths = (
{
closed = 1;
nodes = (
"448 351 OFFCURVE",
"426 330 OFFCURVE",
"426 277 CURVE SMOOTH",
"426 62 LINE SMOOTH",
"426 9 OFFCURVE",
"448 -12 OFFCURVE",
"503 -12 CURVE SMOOTH",
"557 -12 OFFCURVE",
"580 9 OFFCURVE",
"580 62 CURVE SMOOTH",
"580 277 LINE SMOOTH",
"580 330 OFFCURVE",
"557 351 OFFCURVE",
"503 351 CURVE SMOOTH"
);
}
);
width = 1006;
},
{
layerId = "8538028E-5D6C-4318-9676-30148CDA39CA";
paths = (
{
closed = 1;
nodes = (
"408 433 OFFCURVE",
"367 412 OFFCURVE",
"367 359 CURVE SMOOTH",
"367 62 LINE SMOOTH",
"367 9 OFFCURVE",
"408 -12 OFFCURVE",
"503 -12 CURVE SMOOTH",
"598 -12 OFFCURVE",
"638 9 OFFCURVE",
"638 62 CURVE SMOOTH",
"638 359 LINE SMOOTH",
"638 412 OFFCURVE",
"598 433 OFFCURVE",
"503 433 CURVE SMOOTH"
);
}
);
width = 1006;
}
);
unicode = 002E;
},
{
glyphname = slash;
lastChange = "2026-02-27 13:18:02 +0000";
layers = (
{
layerId = UUID0;
paths = (
{
closed = 1;
nodes = (
"671 1631 OFFCURVE",
"657 1614 OFFCURVE",
"652 1589 CURVE SMOOTH",
"266 -334 LINE SMOOTH",
"257 -380 OFFCURVE",
"281 -415 OFFCURVE",
"317 -415 CURVE SMOOTH",
"336 -415 OFFCURVE",
"349 -398 OFFCURVE",
"355 -373 CURVE SMOOTH",
"740 1549 LINE SMOOTH",
"749 1596 OFFCURVE",
"724 1631 OFFCURVE",
"689 1631 CURVE SMOOTH"
);
}
);
width = 1006;
},
{
layerId = "8538028E-5D6C-4318-9676-30148CDA39CA";
paths = (
{
closed = 1;
nodes = (
"712 1637 OFFCURVE",
"689 1621 OFFCURVE",
"679 1587 CURVE SMOOTH",
"133 -307 LINE SMOOTH",
"115 -372 OFFCURVE",
"177 -421 OFFCURVE",
"260 -421 CURVE SMOOTH",
"294 -421 OFFCURVE",
"317 -405 OFFCURVE",
"327 -371 CURVE SMOOTH",
"873 1523 LINE SMOOTH",
"892 1588 OFFCURVE",
"829 1637 OFFCURVE",
"747 1637 CURVE SMOOTH"
);
}
);
width = 1006;
}
);
unicode = 002F;
},
{
glyphname = zero;
lastChange = "2026-02-27 13:18:02 +0000";
layers = (
{
layerId = UUID0;
paths = (
{
closed = 1;
nodes = (
"353 1415 OFFCURVE",
"259 1127 OFFCURVE",
"259 694 CURVE SMOOTH",
"259 261 OFFCURVE",
"353 -26 OFFCURVE",
"503 -26 CURVE SMOOTH",
"652 -26 OFFCURVE",
"748 261 OFFCURVE",
"748 694 CURVE SMOOTH",
"748 1127 OFFCURVE",
"652 1415 OFFCURVE",
"503 1415 CURVE SMOOTH"
);
},
{
closed = 1;
nodes = (
"593 1242 OFFCURVE",
"657 1043 OFFCURVE",
"657 694 CURVE SMOOTH",
"657 345 OFFCURVE",
"593 147 OFFCURVE",
"503 147 CURVE SMOOTH",
"413 147 OFFCURVE",
"349 345 OFFCURVE",
"349 694 CURVE SMOOTH",
"349 1043 OFFCURVE",
"413 1242 OFFCURVE",
"503 1242 CURVE SMOOTH"
);
}
);
width = 1006;
},
{
layerId = "8538028E-5D6C-4318-9676-30148CDA39CA";
paths = (
{
closed = 1;
nodes = (
"257 1415 OFFCURVE",
"109 1115 OFFCURVE",
"109 694 CURVE SMOOTH",
"109 273 OFFCURVE",
"257 -26 OFFCURVE",
"503 -26 CURVE SMOOTH",
"749 -26 OFFCURVE",
"898 273 OFFCURVE",
"898 694 CURVE SMOOTH",
"898 1115 OFFCURVE",
"749 1415 OFFCURVE",
"503 1415 CURVE SMOOTH"
);
},
{
closed = 1;
nodes = (
"616 1149 OFFCURVE",
"678 996 OFFCURVE",
"678 694 CURVE SMOOTH",
"678 392 OFFCURVE",
"616 240 OFFCURVE",
"503 240 CURVE SMOOTH",
"391 240 OFFCURVE",
"329 392 OFFCURVE",
"329 694 CURVE SMOOTH",
"329 996 OFFCURVE",
"391 1149 OFFCURVE",
"503 1149 CURVE SMOOTH"
);
}
);
width = 1006;
}
);
unicode = 0030;
},
{
glyphname = one;
lastChange = "2026-02-27 13:18:02 +0000";
layers = (
{
layerId = UUID0;
paths = (
{
closed = 1;
nodes = (
"298 1133 LINE SMOOTH",
"281 1112 OFFCURVE",
"274 1071 OFFCURVE",
"289 1018 CURVE SMOOTH",
"304 963 OFFCURVE",
"323 963 OFFCURVE",
"338 982 CURVE SMOOTH",
"481 1163 LINE",
"481 126 LINE",
"566 126 LINE",
"566 1354 LINE SMOOTH",
"566 1417 OFFCURVE",
"537 1432 OFFCURVE",
"515 1404 CURVE SMOOTH"
);
},
{
closed = 1;
nodes = (
"327 159 LINE SMOOTH",
"301 159 OFFCURVE",
"290 138 OFFCURVE",
"290 80 CURVE SMOOTH",
"290 21 OFFCURVE",
"301 0 OFFCURVE",
"327 0 CURVE SMOOTH",
"713 0 LINE SMOOTH",
"738 0 OFFCURVE",
"749 21 OFFCURVE",
"749 80 CURVE SMOOTH",
"749 138 OFFCURVE",
"738 159 OFFCURVE",
"713 159 CURVE SMOOTH"
);
}
);
width = 1006;
},
{
layerId = "8538028E-5D6C-4318-9676-30148CDA39CA";
paths = (
{
closed = 1;
nodes = (
"185 1121 LINE SMOOTH",
"151 1094 OFFCURVE",
"140 1056 OFFCURVE",
"169 965 CURVE SMOOTH",
"195 880 OFFCURVE",
"221 863 OFFCURVE",
"254 889 CURVE SMOOTH",
"425 1029 LINE",
"425 193 LINE",
"630 193 LINE",
"630 1343 LINE SMOOTH",
"630 1421 OFFCURVE",
"575 1436 OFFCURVE",
"530 1400 CURVE SMOOTH"
);
},
{
closed = 1;
nodes = (
"224 240 LINE SMOOTH",
"187 240 OFFCURVE",
"172 219 OFFCURVE",
"172 119 CURVE SMOOTH",
"172 20 OFFCURVE",
"187 0 OFFCURVE",
"224 0 CURVE SMOOTH",
"824 0 LINE SMOOTH",
"860 0 OFFCURVE",
"875 20 OFFCURVE",
"875 119 CURVE SMOOTH",
"875 219 OFFCURVE",
"860 240 OFFCURVE",
"824 240 CURVE SMOOTH"
);
}
);
width = 1006;
}
);
unicode = 0031;
},
{
glyphname = two;
lastChange = "2026-02-27 13:18:02 +0000";
layers = (
{
layerId = UUID0;
paths = (
{
closed = 1;
nodes = (
"408 1415 OFFCURVE",
"343 1365 OFFCURVE",
"288 1284 CURVE SMOOTH",
"280 1271 OFFCURVE",
"275 1251 OFFCURVE",
"275 1219 CURVE SMOOTH",
"275 1047 LINE SMOOTH",
"275 994 OFFCURVE",
"286 971 OFFCURVE",
"318 971 CURVE SMOOTH",
"350 971 OFFCURVE",
"362 994 OFFCURVE",
"362 1047 CURVE SMOOTH",
"362 1176 LINE",
"394 1215 OFFCURVE",
"433 1242 OFFCURVE",
"480 1242 CURVE SMOOTH",
"565 1242 OFFCURVE",
"611 1148 OFFCURVE",
"611 1005 CURVE SMOOTH",
"611 888 OFFCURVE",
"582 804 OFFCURVE",
"515 665 CURVE SMOOTH",
"262 143 LINE SMOOTH",
"256 130 OFFCURVE",
"254 110 OFFCURVE",
"254 80 CURVE SMOOTH",
"254 21 OFFCURVE",
"264 0 OFFCURVE",
"290 0 CURVE SMOOTH",
"688 0 LINE SMOOTH",
"714 0 OFFCURVE",
"724 21 OFFCURVE",
"724 80 CURVE SMOOTH",
"724 307 LINE SMOOTH",
"724 360 OFFCURVE",
"713 383 OFFCURVE",
"681 383 CURVE SMOOTH",
"650 383 OFFCURVE",
"638 360 OFFCURVE",
"638 307 CURVE SMOOTH",
"638 159 LINE",
"390 159 LINE",
"582 558 LINE SMOOTH",
"655 712 OFFCURVE",
"701 836 OFFCURVE",
"701 1005 CURVE SMOOTH",
"701 1264 OFFCURVE",
"613 1415 OFFCURVE",
"480 1415 CURVE SMOOTH"
);
}
);
width = 1006;
},
{
layerId = "8538028E-5D6C-4318-9676-30148CDA39CA";
paths = (
{
closed = 1;
nodes = (
"400 1415 OFFCURVE",
"296 1377 OFFCURVE",
"198 1300 CURVE SMOOTH",
"174 1283 OFFCURVE",
"163 1258 OFFCURVE",
"163 1225 CURVE SMOOTH",
"163 948 LINE SMOOTH",
"163 895 OFFCURVE",
"193 874 OFFCURVE",
"262 874 CURVE SMOOTH",
"332 874 OFFCURVE",
"351 895 OFFCURVE",
"351 948 CURVE SMOOTH",
"351 1112 LINE",
"392 1141 OFFCURVE",
"441 1161 OFFCURVE",
"493 1161 CURVE SMOOTH",
"578 1161 OFFCURVE",
"620 1086 OFFCURVE",
"620 982 CURVE SMOOTH",
"620 899 OFFCURVE",
"589 834 OFFCURVE",
"501 713 CURVE SMOOTH",
"149 229 LINE SMOOTH",
"135 209 OFFCURVE",
"130 184 OFFCURVE",
"130 121 CURVE SMOOTH",
"130 21 OFFCURVE",
"144 0 OFFCURVE",
"181 0 CURVE SMOOTH",
"816 0 LINE SMOOTH",
"853 0 OFFCURVE",
"868 22 OFFCURVE",
"868 76 CURVE SMOOTH",
"868 359 LINE SMOOTH",
"868 412 OFFCURVE",
"838 433 OFFCURVE",
"769 433 CURVE SMOOTH",
"699 433 OFFCURVE",
"680 412 OFFCURVE",
"680 359 CURVE SMOOTH",
"680 252 LINE",
"449 252 LINE",
"673 559 LINE SMOOTH",
"777 703 OFFCURVE",
"829 825 OFFCURVE",
"829 988 CURVE SMOOTH",
"829 1243 OFFCURVE",
"712 1415 OFFCURVE",
"492 1415 CURVE SMOOTH"
);
}
);
width = 1006;
}
);
unicode = 0032;
},
{
glyphname = three;
lastChange = "2026-02-27 13:18:02 +0000";
layers = (
{
layerId = UUID0;
paths = (
{
closed = 1;
nodes = (
"415 1415 OFFCURVE",
"356 1377 OFFCURVE",
"303 1312 CURVE SMOOTH",
"293 1298 OFFCURVE",
"288 1279 OFFCURVE",
"288 1245 CURVE SMOOTH",
"288 1118 LINE SMOOTH",
"288 1064 OFFCURVE",
"298 1042 OFFCURVE",
"330 1042 CURVE SMOOTH",
"363 1042 OFFCURVE",
"373 1064 OFFCURVE",
"373 1118 CURVE SMOOTH",
"373 1196 LINE",
"405 1226 OFFCURVE",
"441 1242 OFFCURVE",
"487 1242 CURVE SMOOTH",
"570 1242 OFFCURVE",
"616 1160 OFFCURVE",
"616 1029 CURVE SMOOTH",
"616 886 OFFCURVE",
"571 809 OFFCURVE",
"483 809 CURVE SMOOTH",
"452 809 LINE SMOOTH",
"426 809 OFFCURVE",
"415 788 OFFCURVE",
"415 729 CURVE SMOOTH",
"415 671 OFFCURVE",
"426 650 OFFCURVE",
"452 650 CURVE SMOOTH",
"494 650 LINE SMOOTH",
"583 650 OFFCURVE",
"637 566 OFFCURVE",
"637 404 CURVE SMOOTH",
"637 249 OFFCURVE",
"587 147 OFFCURVE",
"490 147 CURVE SMOOTH",
"429 147 OFFCURVE",
"369 197 OFFCURVE",
"319 272 CURVE SMOOTH",
"303 297 OFFCURVE",
"283 291 OFFCURVE",
"267 238 CURVE SMOOTH",
"250 184 OFFCURVE",
"256 149 OFFCURVE",
"274 122 CURVE SMOOTH",
"334 33 OFFCURVE",
"414 -26 OFFCURVE",
"490 -26 CURVE SMOOTH",
"641 -26 OFFCURVE",
"727 150 OFFCURVE",
"727 404 CURVE SMOOTH",
"727 566 OFFCURVE",
"685 681 OFFCURVE",
"617 738 CURVE",
"671 795 OFFCURVE",
"705 889 OFFCURVE",
"705 1029 CURVE SMOOTH",
"705 1264 OFFCURVE",
"618 1415 OFFCURVE",
"486 1415 CURVE SMOOTH"
);
}
);
width = 1006;
},
{
layerId = "8538028E-5D6C-4318-9676-30148CDA39CA";
paths = (
{
closed = 1;
nodes = (
"391 1415 OFFCURVE",
"295 1384 OFFCURVE",
"211 1335 CURVE SMOOTH",
"184 1320 OFFCURVE",
"171 1296 OFFCURVE",
"171 1260 CURVE SMOOTH",
"171 1042 LINE SMOOTH",
"171 989 OFFCURVE",
"201 968 OFFCURVE",
"270 968 CURVE SMOOTH",
"341 968 OFFCURVE",
"359 989 OFFCURVE",
"359 1042 CURVE SMOOTH",
"359 1134 LINE",
"394 1149 OFFCURVE",
"435 1161 OFFCURVE",
"484 1161 CURVE SMOOTH",
"575 1161 OFFCURVE",
"620 1106 OFFCURVE",
"620 999 CURVE SMOOTH",
"620 889 OFFCURVE",
"572 840 OFFCURVE",
"476 840 CURVE SMOOTH",
"414 840 LINE SMOOTH",
"377 840 OFFCURVE",
"362 813 OFFCURVE",
"362 714 CURVE SMOOTH",
"362 614 OFFCURVE",
"377 589 OFFCURVE",
"414 589 CURVE SMOOTH",
"499 589 LINE SMOOTH",
"589 589 OFFCURVE",
"638 531 OFFCURVE",
"638 419 CURVE SMOOTH",
"638 305 OFFCURVE",
"579 240 OFFCURVE",
"462 240 CURVE SMOOTH",
"390 240 OFFCURVE",
"312 269 OFFCURVE",
"242 316 CURVE SMOOTH",
"218 334 OFFCURVE",
"188 314 OFFCURVE",
"164 224 CURVE SMOOTH",
"139 133 OFFCURVE",
"150 88 OFFCURVE",
"181 64 CURVE",
"263 2 OFFCURVE",
"362 -26 OFFCURVE",
"462 -26 CURVE SMOOTH",
"706 -26 OFFCURVE",
"857 119 OFFCURVE",
"857 417 CURVE SMOOTH",
"857 570 OFFCURVE",
"800 673 OFFCURVE",
"713 730 CURVE",
"785 784 OFFCURVE",
"829 877 OFFCURVE",
"829 1017 CURVE SMOOTH",
"829 1276 OFFCURVE",
"703 1415 OFFCURVE",
"483 1415 CURVE SMOOTH"
);
}
);
width = 1006;
}
);
unicode = 0033;
},
{
glyphname = four;
lastChange = "2026-02-27 13:18:02 +0000";
layers = (
{
layerId = UUID0;
paths = (
{
closed = 1;
nodes = (
"550 1415 OFFCURVE",
"532 1390 OFFCURVE",
"516 1343 CURVE SMOOTH",
"239 556 LINE SMOOTH",
"235 544 OFFCURVE",
"233 525 OFFCURVE",
"233 501 CURVE SMOOTH",
"233 442 OFFCURVE",
"243 421 OFFCURVE",
"269 421 CURVE SMOOTH",
"543 421 LINE",
"543 159 LINE",
"459 159 LINE SMOOTH",
"433 159 OFFCURVE",
"422 138 OFFCURVE",
"422 80 CURVE SMOOTH",
"422 21 OFFCURVE",
"433 0 OFFCURVE",
"459 0 CURVE SMOOTH",
"705 0 LINE SMOOTH",
"730 0 OFFCURVE",
"741 21 OFFCURVE",
"741 80 CURVE SMOOTH",
"741 138 OFFCURVE",
"730 159 OFFCURVE",
"705 159 CURVE SMOOTH",
"630 159 LINE",
"630 421 LINE",
"722 421 LINE SMOOTH",
"748 421 OFFCURVE",
"758 442 OFFCURVE",
"758 501 CURVE SMOOTH",
"758 559 OFFCURVE",
"748 580 OFFCURVE",
"722 580 CURVE SMOOTH",
"630 580 LINE",
"630 1324 LINE SMOOTH",
"630 1379 OFFCURVE",
"614 1415 OFFCURVE",
"579 1415 CURVE SMOOTH"
);
},
{
closed = 1;
nodes = (
"543 580 LINE",
"348 580 LINE",
"548 1161 LINE"
);
}
);
width = 1006;
},
{
layerId = "8538028E-5D6C-4318-9676-30148CDA39CA";
paths = (
{
closed = 1;
nodes = (
"564 1415 OFFCURVE",
"528 1386 OFFCURVE",
"499 1334 CURVE SMOOTH",
"114 657 LINE SMOOTH",
"104 639 OFFCURVE",
"98 609 OFFCURVE",
"98 552 CURVE SMOOTH",
"98 453 OFFCURVE",
"114 433 OFFCURVE",
"150 433 CURVE SMOOTH",
"502 433 LINE",
"502 240 LINE",
"363 240 LINE SMOOTH",
"327 240 OFFCURVE",
"311 219 OFFCURVE",
"311 119 CURVE SMOOTH",
"311 20 OFFCURVE",
"327 0 OFFCURVE",
"363 0 CURVE SMOOTH",
"824 0 LINE SMOOTH",
"860 0 OFFCURVE",
"875 20 OFFCURVE",
"875 119 CURVE SMOOTH",
"875 219 OFFCURVE",
"860 240 OFFCURVE",
"824 240 CURVE SMOOTH",
"707 240 LINE",
"707 433 LINE",
"848 433 LINE SMOOTH",
"885 433 OFFCURVE",
"900 453 OFFCURVE",
"900 552 CURVE SMOOTH",
"900 652 OFFCURVE",
"885 673 OFFCURVE",
"848 673 CURVE SMOOTH",
"707 673 LINE",
"707 1310 LINE SMOOTH",
"707 1373 OFFCURVE",
"688 1415 OFFCURVE",
"621 1415 CURVE SMOOTH"
);
},
{
closed = 1;
nodes = (
"509 673 LINE",
"330 673 LINE",
"523 1015 LINE"
);
}
);
width = 1006;
}
);
unicode = 0034;
},
{
glyphname = five;
lastChange = "2026-02-27 13:18:02 +0000";
layers = (
{
layerId = UUID0;
paths = (
{
closed = 1;
nodes = (
"349 1389 LINE SMOOTH",
"316 1389 OFFCURVE",
"307 1367 OFFCURVE",
"305 1313 CURVE SMOOTH",
"294 728 LINE SMOOTH",
"293 674 OFFCURVE",
"305 652 OFFCURVE",
"337 652 CURVE SMOOTH",
"350 652 OFFCURVE",
"359 655 OFFCURVE",
"365 664 CURVE SMOOTH",
"403 716 OFFCURVE",
"441 747 OFFCURVE",
"496 747 CURVE SMOOTH",
"583 747 OFFCURVE",
"635 625 OFFCURVE",
"635 452 CURVE SMOOTH",
"635 269 OFFCURVE",
"579 147 OFFCURVE",
"484 147 CURVE SMOOTH",
"425 147 OFFCURVE",
"365 194 OFFCURVE",
"317 264 CURVE SMOOTH",
"300 290 OFFCURVE",
"280 284 OFFCURVE",
"264 229 CURVE SMOOTH",
"248 176 OFFCURVE",
"254 139 OFFCURVE",
"273 114 CURVE SMOOTH",
"332 29 OFFCURVE",
"410 -26 OFFCURVE",
"484 -26 CURVE SMOOTH",
"632 -26 OFFCURVE",
"727 178 OFFCURVE",
"727 452 CURVE SMOOTH",
"727 724 OFFCURVE",
"644 920 OFFCURVE",
"503 920 CURVE SMOOTH",
"458 920 OFFCURVE",
"417 896 OFFCURVE",
"380 854 CURVE",
"387 1230 LINE",
"654 1230 LINE SMOOTH",
"680 1230 OFFCURVE",
"690 1251 OFFCURVE",
"690 1310 CURVE SMOOTH",
"690 1368 OFFCURVE",
"680 1389 OFFCURVE",
"654 1389 CURVE SMOOTH"
);
}
);
width = 1006;
},
{
layerId = "8538028E-5D6C-4318-9676-30148CDA39CA";
paths = (
{
closed = 1;
nodes = (
"256 1389 LINE SMOOTH",
"219 1389 OFFCURVE",
"206 1367 OFFCURVE",
"204 1313 CURVE SMOOTH",
"177 669 LINE SMOOTH",
"173 616 OFFCURVE",
"200 593 OFFCURVE",
"270 593 CURVE SMOOTH",
"290 593 OFFCURVE",
"316 600 OFFCURVE",
"337 612 CURVE SMOOTH",
"384 637 OFFCURVE",
"440 654 OFFCURVE",
"495 654 CURVE SMOOTH",
"586 654 OFFCURVE",
"638 578 OFFCURVE",
"638 452 CURVE SMOOTH",
"638 316 OFFCURVE",
"569 240 OFFCURVE",
"470 240 CURVE SMOOTH",
"393 240 OFFCURVE",
"310 277 OFFCURVE",
"236 330 CURVE SMOOTH",
"212 348 OFFCURVE",
"183 328 OFFCURVE",
"158 238 CURVE SMOOTH",
"133 147 OFFCURVE",
"144 103 OFFCURVE",
"176 78 CURVE",
"260 13 OFFCURVE",
"366 -26 OFFCURVE",
"470 -26 CURVE SMOOTH",
"706 -26 OFFCURVE",
"857 131 OFFCURVE",
"857 452 CURVE SMOOTH",
"857 724 OFFCURVE",
"747 920 OFFCURVE",
"538 920 CURVE SMOOTH",
"484 920 OFFCURVE",
"432 905 OFFCURVE",
"382 877 CURVE",
"392 1138 LINE",
"755 1138 LINE SMOOTH",
"791 1138 OFFCURVE",
"806 1163 OFFCURVE",
"806 1263 CURVE SMOOTH",
"806 1362 OFFCURVE",
"791 1389 OFFCURVE",
"755 1389 CURVE SMOOTH"
);
}
);
width = 1006;
}
);
unicode = 0035;
},
{
glyphname = six;
lastChange = "2026-02-27 13:18:02 +0000";
layers = (
{
layerId = UUID0;
paths = (
{
closed = 1;
nodes = (
"377 1387 OFFCURVE",
"267 976 OFFCURVE",
"267 599 CURVE SMOOTH",
"267 431 OFFCURVE",
"283 303 OFFCURVE",
"311 202 CURVE SMOOTH",
"355 50 OFFCURVE",
"429 -26 OFFCURVE",
"511 -26 CURVE SMOOTH",
"653 -26 OFFCURVE",
"747 159 OFFCURVE",
"747 413 CURVE SMOOTH",
"747 680 OFFCURVE",
"651 855 OFFCURVE",
"523 855 CURVE SMOOTH",
"459 855 OFFCURVE",
"398 797 OFFCURVE",
"357 689 CURVE",
"378 1008 OFFCURVE",
"480 1221 OFFCURVE",
"690 1243 CURVE SMOOTH",
"705 1244 OFFCURVE",
"714 1267 OFFCURVE",
"710 1336 CURVE SMOOTH",
"708 1401 OFFCURVE",
"694 1416 OFFCURVE",
"678 1415 CURVE"
);
},
{
closed = 1;
nodes = (
"602 682 OFFCURVE",
"655 576 OFFCURVE",
"655 413 CURVE SMOOTH",
"655 253 OFFCURVE",
"599 147 OFFCURVE",
"511 147 CURVE SMOOTH",
"422 147 OFFCURVE",
"365 266 OFFCURVE",
"365 431 CURVE SMOOTH",
"365 579 OFFCURVE",
"426 682 OFFCURVE",
"511 682 CURVE SMOOTH"
);
}
);
width = 1006;
},
{
layerId = "8538028E-5D6C-4318-9676-30148CDA39CA";
paths = (
{
closed = 1;
nodes = (
"364 1390 OFFCURVE",
"131 1093 OFFCURVE",
"131 599 CURVE SMOOTH",
"131 441 OFFCURVE",
"157 301 OFFCURVE",
"201 206 CURVE SMOOTH",
"272 60 OFFCURVE",
"377 -26 OFFCURVE",
"517 -26 CURVE",
"730 -26 OFFCURVE",
"884 163 OFFCURVE",
"884 428 CURVE SMOOTH",
"884 688 OFFCURVE",
"752 867 OFFCURVE",
"570 867 CURVE SMOOTH",
"475 867 OFFCURVE",
"404 825 OFFCURVE",
"344 730 CURVE",
"376 996 OFFCURVE",
"520 1111 OFFCURVE",
"818 1132 CURVE SMOOTH",
"843 1134 OFFCURVE",
"857 1182 OFFCURVE",
"850 1290 CURVE SMOOTH",
"844 1377 OFFCURVE",
"829 1416 OFFCURVE",
"800 1415 CURVE SMOOTH"
);
},
{
closed = 1;
nodes = (
"616 619 OFFCURVE",
"672 548 OFFCURVE",
"672 427 CURVE SMOOTH",
"672 309 OFFCURVE",
"610 235 OFFCURVE",
"516 235 CURVE SMOOTH",
"417 235 OFFCURVE",
"360 328 OFFCURVE",
"360 434 CURVE",
"360 544 OFFCURVE",
"427 619 OFFCURVE",
"523 619 CURVE SMOOTH"
);
}
);
width = 1006;
}
);
unicode = 0036;
},
{
glyphname = seven;
lastChange = "2026-02-27 13:18:02 +0000";
layers = (
{
layerId = UUID0;
paths = (
{
closed = 1;
nodes = (
"322 1389 LINE SMOOTH",
"296 1389 OFFCURVE",
"286 1368 OFFCURVE",
"286 1310 CURVE SMOOTH",
"286 1059 LINE SMOOTH",
"286 1005 OFFCURVE",
"297 983 OFFCURVE",
"329 983 CURVE SMOOTH",
"360 983 OFFCURVE",
"372 1005 OFFCURVE",
"372 1059 CURVE SMOOTH",
"372 1230 LINE",
"644 1230 LINE",
"411 66 LINE SMOOTH",
"400 18 OFFCURVE",
"415 -14 OFFCURVE",
"441 -23 CURVE SMOOTH",
"467 -33 OFFCURVE",
"488 -15 OFFCURVE",
"497 28 CURVE SMOOTH",
"741 1263 LINE SMOOTH",
"743 1272 OFFCURVE",
"744 1290 OFFCURVE",
"744 1310 CURVE SMOOTH",
"744 1368 OFFCURVE",
"734 1389 OFFCURVE",
"708 1389 CURVE SMOOTH"
);
}
);
width = 1006;
},
{
layerId = "8538028E-5D6C-4318-9676-30148CDA39CA";
paths = (
{
closed = 1;
nodes = (
"207 1389 LINE SMOOTH",
"170 1389 OFFCURVE",
"154 1367 OFFCURVE",
"154 1313 CURVE SMOOTH",
"154 913 LINE SMOOTH",
"154 860 OFFCURVE",
"185 839 OFFCURVE",
"254 839 CURVE SMOOTH",
"324 839 OFFCURVE",
"343 860 OFFCURVE",
"343 913 CURVE SMOOTH",
"343 1138 LINE",
"642 1138 LINE",
"335 114 LINE SMOOTH",
"315 49 OFFCURVE",
"356 1 OFFCURVE",
"413 -18 CURVE SMOOTH",
"470 -36 OFFCURVE",
"521 -23 OFFCURVE",
"536 28 CURVE SMOOTH",
"878 1184 LINE SMOOTH",
"882 1202 OFFCURVE",
"885 1229 OFFCURVE",
"885 1269 CURVE SMOOTH",
"885 1368 OFFCURVE",
"870 1389 OFFCURVE",
"833 1389 CURVE SMOOTH"
);
}
);
width = 1006;
}
);
unicode = 0037;
},
{
glyphname = eight;
lastChange = "2026-02-27 13:18:02 +0000";
layers = (
{
layerId = UUID0;
paths = (
{
closed = 1;
nodes = (
"382 1415 OFFCURVE",
"291 1245 OFFCURVE",
"291 1029 CURVE SMOOTH",
"291 896 OFFCURVE",
"332 796 OFFCURVE",
"386 737 CURVE",
"319 675 OFFCURVE",
"269 557 OFFCURVE",
"269 398 CURVE SMOOTH",
"269 153 OFFCURVE",
"369 -26 OFFCURVE",
"503 -26 CURVE SMOOTH",
"637 -26 OFFCURVE",
"737 153 OFFCURVE",
"737 398 CURVE SMOOTH",
"737 557 OFFCURVE",
"687 675 OFFCURVE",
"619 737 CURVE",
"673 796 OFFCURVE",
"715 896 OFFCURVE",
"715 1029 CURVE SMOOTH",
"715 1245 OFFCURVE",
"625 1415 OFFCURVE",
"503 1415 CURVE SMOOTH"
);
},
{
closed = 1;
nodes = (
"587 648 OFFCURVE",
"645 547 OFFCURVE",
"645 399 CURVE SMOOTH",
"645 252 OFFCURVE",
"587 147 OFFCURVE",
"503 147 CURVE SMOOTH",
"419 147 OFFCURVE",
"360 252 OFFCURVE",
"360 399 CURVE SMOOTH",
"360 547 OFFCURVE",
"419 648 OFFCURVE",
"503 648 CURVE SMOOTH"
);
},
{
closed = 1;
nodes = (
"573 1242 OFFCURVE",
"626 1159 OFFCURVE",
"626 1025 CURVE SMOOTH",
"626 905 OFFCURVE",
"573 811 OFFCURVE",
"503 811 CURVE SMOOTH",
"433 811 OFFCURVE",
"379 905 OFFCURVE",
"379 1025 CURVE SMOOTH",
"379 1159 OFFCURVE",
"433 1242 OFFCURVE",
"503 1242 CURVE SMOOTH"
);
}
);
width = 1006;
},
{
layerId = "8538028E-5D6C-4318-9676-30148CDA39CA";
paths = (
{
closed = 1;
nodes = (
"296 1415 OFFCURVE",
"172 1236 OFFCURVE",
"172 1019 CURVE SMOOTH",
"172 871 OFFCURVE",
"225 776 OFFCURVE",
"305 724 CURVE",
"206 672 OFFCURVE",
"140 566 OFFCURVE",
"140 392 CURVE SMOOTH",
"140 130 OFFCURVE",
"287 -26 OFFCURVE",
"503 -26 CURVE SMOOTH",
"720 -26 OFFCURVE",
"866 130 OFFCURVE",
"866 392 CURVE SMOOTH",
"866 566 OFFCURVE",
"799 672 OFFCURVE",
"701 724 CURVE",
"781 776 OFFCURVE",
"834 871 OFFCURVE",
"834 1019 CURVE SMOOTH",
"834 1236 OFFCURVE",
"709 1415 OFFCURVE",
"503 1415 CURVE SMOOTH"
);
},
{
closed = 1;
nodes = (
"599 606 OFFCURVE",
"648 529 OFFCURVE",
"648 417 CURVE SMOOTH",
"648 304 OFFCURVE",
"599 229 OFFCURVE",
"503 229 CURVE SMOOTH",
"407 229 OFFCURVE",
"357 304 OFFCURVE",
"357 417 CURVE SMOOTH",
"357 529 OFFCURVE",
"407 606 OFFCURVE",
"503 606 CURVE SMOOTH"
);
},
{
closed = 1;
nodes = (
"580 1160 OFFCURVE",
"630 1094 OFFCURVE",
"630 996 CURVE SMOOTH",
"630 899 OFFCURVE",
"583 833 OFFCURVE",
"503 833 CURVE SMOOTH",
"422 833 OFFCURVE",
"376 899 OFFCURVE",
"376 996 CURVE SMOOTH",
"376 1094 OFFCURVE",
"425 1160 OFFCURVE",
"503 1160 CURVE SMOOTH"
);
}
);
width = 1006;
}
);
unicode = 0038;
},
{
glyphname = nine;
lastChange = "2026-02-27 13:18:02 +0000";
layers = (
{
layerId = UUID0;
paths = (
{
closed = 1;
nodes = (
"353 1415 OFFCURVE",
"260 1230 OFFCURVE",
"260 976 CURVE SMOOTH",
"260 709 OFFCURVE",
"356 534 OFFCURVE",
"482 534 CURVE SMOOTH",
"548 534 OFFCURVE",
"609 592 OFFCURVE",
"648 700 CURVE",
"628 382 OFFCURVE",
"527 169 OFFCURVE",
"316 146 CURVE",
"301 145 OFFCURVE",
"293 122 OFFCURVE",
"295 53 CURVE SMOOTH",
"298 -12 OFFCURVE",
"311 -27 OFFCURVE",
"328 -26 CURVE SMOOTH",
"628 2 OFFCURVE",
"738 413 OFFCURVE",
"738 790 CURVE SMOOTH",
"738 958 OFFCURVE",
"723 1086 OFFCURVE",
"694 1187 CURVE SMOOTH",
"651 1339 OFFCURVE",
"577 1415 OFFCURVE",
"495 1415 CURVE SMOOTH"
);
},
{
closed = 1;
nodes = (
"583 1242 OFFCURVE",
"640 1123 OFFCURVE",
"640 958 CURVE",
"640 810 OFFCURVE",
"579 707 OFFCURVE",
"495 707 CURVE SMOOTH",
"405 707 OFFCURVE",
"350 813 OFFCURVE",
"350 976 CURVE SMOOTH",
"350 1136 OFFCURVE",
"407 1242 OFFCURVE",
"495 1242 CURVE SMOOTH"
);
}
);
width = 1006;
},
{
layerId = "8538028E-5D6C-4318-9676-30148CDA39CA";
paths = (
{
closed = 1;
nodes = (
"276 1415 OFFCURVE",
"123 1226 OFFCURVE",
"123 961 CURVE SMOOTH",
"123 701 OFFCURVE",
"253 522 OFFCURVE",
"437 522 CURVE SMOOTH",
"531 522 OFFCURVE",
"603 564 OFFCURVE",
"662 659 CURVE",
"638 393 OFFCURVE",
"536 279 OFFCURVE",
"238 257 CURVE SMOOTH",
"212 255 OFFCURVE",
"198 207 OFFCURVE",
"206 99 CURVE SMOOTH",
"212 12 OFFCURVE",
"226 -27 OFFCURVE",
"255 -26 CURVE SMOOTH",
"692 -1 OFFCURVE",
"875 296 OFFCURVE",
"875 790 CURVE SMOOTH",
"875 948 OFFCURVE",
"850 1088 OFFCURVE",
"804 1183 CURVE SMOOTH",
"735 1329 OFFCURVE",
"630 1415 OFFCURVE",
"489 1415 CURVE SMOOTH"
);
},
{
closed = 1;
nodes = (
"589 1154 OFFCURVE",
"646 1061 OFFCURVE",
"646 955 CURVE",
"646 845 OFFCURVE",
"579 770 OFFCURVE",
"483 770 CURVE SMOOTH",
"391 770 OFFCURVE",
"335 841 OFFCURVE",
"335 962 CURVE SMOOTH",
"335 1080 OFFCURVE",
"397 1154 OFFCURVE",
"490 1154 CURVE SMOOTH"
);
}
);
width = 1006;
}
);
unicode = 0039;
},
{
glyphname = less;
lastChange = "2026-02-27 13:18:02 +0000";
layers = (
{
layerId = UUID0;
paths = (
{
closed = 1;
nodes = (
"243 763 LINE SMOOTH",
"225 744 OFFCURVE",
"217 723 OFFCURVE",
"217 682 CURVE SMOOTH",
"217 641 OFFCURVE",
"225 620 OFFCURVE",
"243 602 CURVE SMOOTH",
"689 156 LINE SMOOTH",
"713 132 OFFCURVE",
"729 143 OFFCURVE",
"742 194 CURVE SMOOTH",
"755 248 OFFCURVE",
"749 282 OFFCURVE",
"726 305 CURVE SMOOTH",
"339 682 LINE",
"726 1059 LINE SMOOTH",
"749 1083 OFFCURVE",
"755 1116 OFFCURVE",
"742 1170 CURVE SMOOTH",
"729 1222 OFFCURVE",
"713 1232 OFFCURVE",
"689 1209 CURVE SMOOTH"
);
}
);
width = 1006;
},
{
layerId = "8538028E-5D6C-4318-9676-30148CDA39CA";
paths = (
{
closed = 1;
nodes = (
"136 792 LINE SMOOTH",
"110 774 OFFCURVE",
"98 749 OFFCURVE",
"98 682 CURVE SMOOTH",
"98 616 OFFCURVE",
"110 591 OFFCURVE",
"136 572 CURVE SMOOTH",
"775 102 LINE SMOOTH",
"809 77 OFFCURVE",
"832 88 OFFCURVE",
"865 181 CURVE SMOOTH",
"898 275 OFFCURVE",
"892 316 OFFCURVE",
"857 341 CURVE SMOOTH",
"378 682 LINE",
"857 1024 LINE SMOOTH",
"892 1049 OFFCURVE",
"898 1090 OFFCURVE",
"865 1183 CURVE SMOOTH",
"832 1277 OFFCURVE",
"809 1287 OFFCURVE",
"775 1263 CURVE SMOOTH"
);
}
);
width = 1006;
}
);
unicode = 003C;
},
{
glyphname = equal;
lastChange = "2026-02-27 13:18:02 +0000";
layers = (
{
layerId = UUID0;
paths = (
{
closed = 1;
nodes = (
"284 995 LINE SMOOTH",
"259 995 OFFCURVE",
"248 974 OFFCURVE",
"248 915 CURVE SMOOTH",
"248 857 OFFCURVE",
"259 836 OFFCURVE",
"284 836 CURVE SMOOTH",
"721 836 LINE SMOOTH",
"748 836 OFFCURVE",
"757 857 OFFCURVE",
"757 915 CURVE SMOOTH",
"757 974 OFFCURVE",
"748 995 OFFCURVE",
"721 995 CURVE SMOOTH"
);
},
{
closed = 1;
nodes = (
"284 527 LINE SMOOTH",
"259 527 OFFCURVE",
"248 506 OFFCURVE",
"248 447 CURVE SMOOTH",
"248 389 OFFCURVE",
"259 367 OFFCURVE",
"284 367 CURVE SMOOTH",
"721 367 LINE SMOOTH",
"748 367 OFFCURVE",
"757 389 OFFCURVE",
"757 447 CURVE SMOOTH",
"757 506 OFFCURVE",
"748 527 OFFCURVE",
"721 527 CURVE SMOOTH"
);
}
);
width = 1006;
},
{
layerId = "8538028E-5D6C-4318-9676-30148CDA39CA";
paths = (
{
closed = 1;
nodes = (
"191 1081 LINE SMOOTH",
"154 1081 OFFCURVE",
"139 1060 OFFCURVE",
"139 949 CURVE SMOOTH",
"139 838 OFFCURVE",
"154 818 OFFCURVE",
"191 818 CURVE SMOOTH",
"816 818 LINE SMOOTH",
"852 818 OFFCURVE",
"867 838 OFFCURVE",
"867 949 CURVE SMOOTH",
"867 1060 OFFCURVE",
"852 1081 OFFCURVE",
"816 1081 CURVE SMOOTH"
);
},
{
closed = 1;
nodes = (
"191 545 LINE SMOOTH",
"154 545 OFFCURVE",
"139 524 OFFCURVE",
"139 413 CURVE SMOOTH",
"139 302 OFFCURVE",
"154 282 OFFCURVE",
"191 282 CURVE SMOOTH",
"816 282 LINE SMOOTH",
"852 282 OFFCURVE",
"867 302 OFFCURVE",
"867 413 CURVE SMOOTH",
"867 524 OFFCURVE",
"852 545 OFFCURVE",
"816 545 CURVE SMOOTH"
);
}
);
width = 1006;
}
);
unicode = 003D;
},
{
glyphname = greater;
lastChange = "2026-02-27 13:18:02 +0000";
layers = (
{
layerId = UUID0;
paths = (
{
closed = 1;
nodes = (
"294 1232 OFFCURVE",
"277 1222 OFFCURVE",
"264 1170 CURVE SMOOTH",
"252 1116 OFFCURVE",
"256 1083 OFFCURVE",
"281 1059 CURVE SMOOTH",
"666 682 LINE",
"281 305 LINE SMOOTH",
"256 282 OFFCURVE",
"252 248 OFFCURVE",
"264 194 CURVE SMOOTH",
"277 143 OFFCURVE",
"294 132 OFFCURVE",
"317 156 CURVE SMOOTH",
"763 602 LINE SMOOTH",
"781 620 OFFCURVE",
"790 641 OFFCURVE",
"790 682 CURVE SMOOTH",
"790 723 OFFCURVE",
"781 744 OFFCURVE",
"763 763 CURVE SMOOTH",
"317 1209 LINE SMOOTH"
);
}
);
width = 1006;
},
{
layerId = "8538028E-5D6C-4318-9676-30148CDA39CA";
paths = (
{
closed = 1;
nodes = (
"198 1287 OFFCURVE",
"173 1277 OFFCURVE",
"140 1183 CURVE SMOOTH",
"108 1090 OFFCURVE",
"115 1049 OFFCURVE",
"149 1024 CURVE SMOOTH",
"628 682 LINE",
"149 341 LINE SMOOTH",
"115 316 OFFCURVE",
"108 275 OFFCURVE",
"140 181 CURVE SMOOTH",
"173 88 OFFCURVE",
"198 77 OFFCURVE",
"231 102 CURVE SMOOTH",
"870 572 LINE SMOOTH",
"896 591 OFFCURVE",
"908 616 OFFCURVE",
"908 682 CURVE SMOOTH",
"908 749 OFFCURVE",
"896 774 OFFCURVE",
"870 792 CURVE SMOOTH",
"231 1263 LINE SMOOTH"
);
}
);
width = 1006;
}
);
unicode = 003E;
},
{
glyphname = question;
lastChange = "2026-02-27 13:18:02 +0000";
layers = (
{
layerId = UUID0;
paths = (
{
closed = 1;
nodes = (
"434 1485 OFFCURVE",
"367 1450 OFFCURVE",
"310 1379 CURVE SMOOTH",
"300 1366 OFFCURVE",
"296 1346 OFFCURVE",
"296 1313 CURVE SMOOTH",
"296 1164 LINE SMOOTH",
"296 1111 OFFCURVE",
"307 1088 OFFCURVE",
"338 1088 CURVE SMOOTH",
"371 1088 OFFCURVE",
"382 1111 OFFCURVE",
"382 1164 CURVE SMOOTH",
"382 1269 LINE",
"417 1299 OFFCURVE",
"459 1312 OFFCURVE",
"504 1312 CURVE SMOOTH",
"577 1312 OFFCURVE",
"616 1232 OFFCURVE",
"616 1119 CURVE SMOOTH",
"616 1002 OFFCURVE",
"578 943 OFFCURVE",
"490 871 CURVE SMOOTH",
"451 838 LINE SMOOTH",
"438 827 OFFCURVE",
"433 809 OFFCURVE",
"434 778 CURVE SMOOTH",
"441 547 LINE SMOOTH",
"442 510 OFFCURVE",
"455 490 OFFCURVE",
"479 490 CURVE SMOOTH",
"503 490 OFFCURVE",
"515 510 OFFCURVE",
"517 547 CURVE SMOOTH",
"524 715 LINE",
"642 813 OFFCURVE",
"703 913 OFFCURVE",
"703 1119 CURVE SMOOTH",
"703 1335 OFFCURVE",
"631 1485 OFFCURVE",
"504 1485 CURVE SMOOTH"
);
},
{
closed = 1;
nodes = (
"433 269 OFFCURVE",
"413 248 OFFCURVE",
"413 195 CURVE SMOOTH",
"413 62 LINE SMOOTH",
"413 9 OFFCURVE",
"433 -12 OFFCURVE",
"479 -12 CURVE SMOOTH",
"525 -12 OFFCURVE",
"545 9 OFFCURVE",
"545 62 CURVE SMOOTH",
"545 195 LINE SMOOTH",
"545 248 OFFCURVE",
"525 269 OFFCURVE",
"479 269 CURVE SMOOTH"
);
}
);
width = 1006;
},
{
layerId = "8538028E-5D6C-4318-9676-30148CDA39CA";
paths = (
{
closed = 1;
nodes = (
"391 1485 OFFCURVE",
"294 1443 OFFCURVE",
"204 1382 CURVE SMOOTH",
"181 1367 OFFCURVE",
"171 1342 OFFCURVE",
"171 1311 CURVE SMOOTH",
"171 1088 LINE SMOOTH",
"171 1036 OFFCURVE",
"201 1015 OFFCURVE",
"270 1015 CURVE SMOOTH",
"341 1015 OFFCURVE",
"359 1036 OFFCURVE",
"359 1088 CURVE SMOOTH",
"359 1196 LINE",
"398 1217 OFFCURVE",
"440 1231 OFFCURVE",
"484 1231 CURVE SMOOTH",
"568 1231 OFFCURVE",
"612 1176 OFFCURVE",
"612 1070 CURVE SMOOTH",
"612 973 OFFCURVE",
"573 919 OFFCURVE",
"496 898 CURVE SMOOTH",
"411 874 LINE SMOOTH",
"391 868 OFFCURVE",
"385 845 OFFCURVE",
"386 815 CURVE SMOOTH",
"396 570 LINE SMOOTH",
"398 534 OFFCURVE",
"415 514 OFFCURVE",
"479 514 CURVE SMOOTH",
"542 514 OFFCURVE",
"559 534 OFFCURVE",
"562 570 CURVE SMOOTH",
"566 671 LINE",
"730 735 OFFCURVE",
"818 846 OFFCURVE",
"818 1070 CURVE SMOOTH",
"818 1327 OFFCURVE",
"706 1485 OFFCURVE",
"492 1485 CURVE SMOOTH"
);
},
{
closed = 1;
nodes = (
"394 339 OFFCURVE",
"359 318 OFFCURVE",
"359 266 CURVE SMOOTH",
"359 62 LINE SMOOTH",
"359 9 OFFCURVE",
"394 -12 OFFCURVE",
"479 -12 CURVE SMOOTH",
"562 -12 OFFCURVE",
"597 9 OFFCURVE",
"597 62 CURVE SMOOTH",
"597 266 LINE SMOOTH",
"597 318 OFFCURVE",
"562 339 OFFCURVE",
"479 339 CURVE SMOOTH"
);
}
);
width = 1006;
}
);
unicode = 003F;
},
{
glyphname = at;
lastChange = "2026-02-27 13:18:02 +0000";
layers = (
{
layerId = UUID0;
paths = (
{
closed = 1;
nodes = (
"328 1262 OFFCURVE",
"179 914 OFFCURVE",
"179 455 CURVE SMOOTH",
"179 63 OFFCURVE",
"289 -179 OFFCURVE",
"472 -179 CURVE SMOOTH",
"535 -179 OFFCURVE",
"596 -154 OFFCURVE",
"637 -118 CURVE SMOOTH",
"648 -108 OFFCURVE",
"653 -84 OFFCURVE",
"647 -42 CURVE SMOOTH",
"641 0 OFFCURVE",
"631 16 OFFCURVE",
"617 8 CURVE SMOOTH",
"579 -16 OFFCURVE",
"527 -35 OFFCURVE",
"472 -35 CURVE SMOOTH",
"328 -35 OFFCURVE",
"249 156 OFFCURVE",
"249 455 CURVE SMOOTH",
"249 831 OFFCURVE",
"366 1118 OFFCURVE",
"525 1118 CURVE SMOOTH",
"665 1118 OFFCURVE",
"751 927 OFFCURVE",
"751 621 CURVE SMOOTH",
"751 435 OFFCURVE",
"717 308 OFFCURVE",
"659 308 CURVE SMOOTH",
"625 308 OFFCURVE",
"607 372 OFFCURVE",
"620 473 CURVE SMOOTH",
"665 826 LINE SMOOTH",
"667 850 OFFCURVE",
"655 870 OFFCURVE",
"642 880 CURVE SMOOTH",
"628 891 OFFCURVE",
"612 892 OFFCURVE",
"609 875 CURVE SMOOTH",
"590 802 LINE",
"576 871 OFFCURVE",
"554 919 OFFCURVE",
"517 919 CURVE SMOOTH",
"414 919 OFFCURVE",
"335 627 OFFCURVE",
"335 418 CURVE SMOOTH",
"335 250 OFFCURVE",
"380 154 OFFCURVE",
"437 154 CURVE SMOOTH",
"488 154 OFFCURVE",
"521 219 OFFCURVE",
"556 311 CURVE",
"573 213 OFFCURVE",
"610 160 OFFCURVE",
"660 160 CURVE SMOOTH",
"756 160 OFFCURVE",
"820 346 OFFCURVE",
"820 621 CURVE SMOOTH",
"820 997 OFFCURVE",
"706 1262 OFFCURVE",
"529 1262 CURVE SMOOTH"
);
},
{
closed = 1;
nodes = (
"542 770 OFFCURVE",
"558 729 OFFCURVE",
"558 657 CURVE SMOOTH",
"558 503 OFFCURVE",
"509 311 OFFCURVE",
"451 311 CURVE SMOOTH",
"428 311 OFFCURVE",
"413 344 OFFCURVE",
"413 420 CURVE SMOOTH",
"413 595 OFFCURVE",
"473 770 OFFCURVE",
"515 770 CURVE SMOOTH"
);
}
);
width = 1006;
},
{
layerId = "8538028E-5D6C-4318-9676-30148CDA39CA";
paths = (
{
closed = 1;
nodes = (
"245 1262 OFFCURVE",
"27 909 OFFCURVE",
"27 455 CURVE SMOOTH",
"27 68 OFFCURVE",
"190 -179 OFFCURVE",
"460 -179 CURVE SMOOTH",
"550 -179 OFFCURVE",
"646 -154 OFFCURVE",
"703 -118 CURVE SMOOTH",
"720 -108 OFFCURVE",
"729 -88 OFFCURVE",
"717 -20 CURVE SMOOTH",
"705 48 OFFCURVE",
"689 56 OFFCURVE",
"671 47 CURVE SMOOTH",
"616 21 OFFCURVE",
"545 0 OFFCURVE",
"459 0 CURVE SMOOTH",
"267 0 OFFCURVE",
"160 185 OFFCURVE",
"160 455 CURVE SMOOTH",
"160 802 OFFCURVE",
"314 1083 OFFCURVE",
"537 1083 CURVE SMOOTH",
"728 1083 OFFCURVE",
"844 898 OFFCURVE",
"844 621 CURVE SMOOTH",
"844 440 OFFCURVE",
"796 325 OFFCURVE",
"735 325 CURVE SMOOTH",
"701 325 OFFCURVE",
"676 372 OFFCURVE",
"695 473 CURVE SMOOTH",
"754 838 LINE SMOOTH",
"758 859 OFFCURVE",
"737 875 OFFCURVE",
"712 886 CURVE SMOOTH",
"687 895 OFFCURVE",
"660 895 OFFCURVE",
"654 882 CURVE SMOOTH",
"627 802 LINE",
"611 879 OFFCURVE",
"580 936 OFFCURVE",
"523 936 CURVE SMOOTH",
"382 936 OFFCURVE",
"263 660 OFFCURVE",
"263 418 CURVE SMOOTH",
"263 236 OFFCURVE",
"327 137 OFFCURVE",
"415 137 CURVE SMOOTH",
"487 137 OFFCURVE",
"540 205 OFFCURVE",
"577 305 CURVE",
"595 211 OFFCURVE",
"644 143 OFFCURVE",
"722 143 CURVE SMOOTH",
"865 143 OFFCURVE",
"973 316 OFFCURVE",
"973 621 CURVE SMOOTH",
"973 992 OFFCURVE",
"803 1262 OFFCURVE",
"541 1262 CURVE SMOOTH"
);
},
{
closed = 1;
nodes = (
"566 752 OFFCURVE",
"582 706 OFFCURVE",
"582 633 CURVE SMOOTH",
"582 527 OFFCURVE",
"521 329 OFFCURVE",
"460 329 CURVE SMOOTH",
"429 329 OFFCURVE",
"406 367 OFFCURVE",
"406 444 CURVE SMOOTH",
"406 595 OFFCURVE",
"476 752 OFFCURVE",
"528 752 CURVE SMOOTH"
);
}
);
width = 1006;
}
);
unicode = 0040;
},
{
glyphname = A;
lastChange = "2026-02-27 13:18:02 +0000";
layers = (
{
layerId = UUID0;
paths = (
{
closed = 1;
nodes = (
"224 1389 LINE SMOOTH",
"187 1389 OFFCURVE",
"172 1368 OFFCURVE",
"172 1310 CURVE SMOOTH",
"172 1251 OFFCURVE",
"187 1230 OFFCURVE",
"224 1230 CURVE SMOOTH",
"377 1230 LINE",
"105 159 LINE",
"60 159 LINE SMOOTH",
"23 159 OFFCURVE",
"8 138 OFFCURVE",
"8 80 CURVE SMOOTH",
"8 21 OFFCURVE",
"23 0 OFFCURVE",
"60 0 CURVE SMOOTH",
"334 0 LINE SMOOTH",
"370 0 OFFCURVE",
"385 21 OFFCURVE",
"385 80 CURVE SMOOTH",
"385 138 OFFCURVE",
"370 159 OFFCURVE",
"334 159 CURVE SMOOTH",
"234 159 LINE",
"302 438 LINE",
"700 438 LINE",
"767 159 LINE",
"657 159 LINE SMOOTH",
"619 159 OFFCURVE",
"605 138 OFFCURVE",
"605 80 CURVE SMOOTH",
"605 21 OFFCURVE",
"619 0 OFFCURVE",
"657 0 CURVE SMOOTH",
"947 0 LINE SMOOTH",
"983 0 OFFCURVE",
"998 21 OFFCURVE",
"998 80 CURVE SMOOTH",
"998 138 OFFCURVE",
"983 159 OFFCURVE",
"947 159 CURVE SMOOTH",
"896 159 LINE",
"607 1313 LINE SMOOTH",
"595 1367 OFFCURVE",
"568 1389 OFFCURVE",
"524 1389 CURVE SMOOTH"
);
},
{
closed = 1;
nodes = (
"662 597 LINE",
"341 597 LINE",
"494 1230 LINE",
"509 1230 LINE"
);
}
);
width = 1006;
},
{
layerId = "8538028E-5D6C-4318-9676-30148CDA39CA";
paths = (
{
closed = 1;
nodes = (
"183 1389 LINE SMOOTH",
"146 1389 OFFCURVE",
"131 1369 OFFCURVE",
"131 1270 CURVE SMOOTH",
"131 1170 OFFCURVE",
"146 1149 OFFCURVE",
"183 1149 CURVE SMOOTH",
"319 1149 LINE",
"112 240 LINE",
"43 240 LINE SMOOTH",
"7 240 OFFCURVE",
"-8 220 OFFCURVE",
"-8 121 CURVE SMOOTH",
"-8 21 OFFCURVE",
"7 0 OFFCURVE",
"43 0 CURVE SMOOTH",
"374 0 LINE SMOOTH",
"411 0 OFFCURVE",
"426 21 OFFCURVE",
"426 121 CURVE SMOOTH",
"426 220 OFFCURVE",
"411 240 OFFCURVE",
"374 240 CURVE SMOOTH",
"314 240 LINE",
"351 410 LINE",
"648 410 LINE",
"686 240 LINE",
"616 240 LINE SMOOTH",
"578 240 OFFCURVE",
"564 220 OFFCURVE",
"564 121 CURVE SMOOTH",
"564 21 OFFCURVE",
"578 0 OFFCURVE",
"616 0 CURVE SMOOTH",
"963 0 LINE SMOOTH",
"999 0 OFFCURVE",
"1015 21 OFFCURVE",
"1015 121 CURVE SMOOTH",
"1015 220 OFFCURVE",
"999 240 OFFCURVE",
"963 240 CURVE SMOOTH",
"892 240 LINE",
"654 1313 LINE SMOOTH",
"641 1367 OFFCURVE",
"614 1389 OFFCURVE",
"571 1389 CURVE SMOOTH"
);
},
{
closed = 1;
nodes = (
"603 650 LINE",
"398 650 LINE",
"499 1149 LINE",
"504 1149 LINE"
);
}
);
width = 1006;
}
);
unicode = 0041;
},
{
glyphname = B;
lastChange = "2026-02-27 13:18:02 +0000";
layers = (
{
layerId = UUID0;
paths = (
{
closed = 1;
nodes = (
"117 1389 LINE SMOOTH",
"81 1389 OFFCURVE",
"66 1368 OFFCURVE",
"66 1310 CURVE SMOOTH",
"66 1251 OFFCURVE",
"81 1230 OFFCURVE",
"117 1230 CURVE SMOOTH",
"218 1230 LINE",
"218 159 LINE",
"117 159 LINE SMOOTH",
"81 159 OFFCURVE",
"66 138 OFFCURVE",
"66 80 CURVE SMOOTH",
"66 21 OFFCURVE",
"81 0 OFFCURVE",
"117 0 CURVE SMOOTH",
"582 0 LINE SMOOTH",
"783 0 OFFCURVE",
"896 151 OFFCURVE",
"896 397 CURVE SMOOTH",
"896 571 OFFCURVE",
"832 690 OFFCURVE",
"717 743 CURVE",
"785 799 OFFCURVE",
"826 891 OFFCURVE",
"826 1012 CURVE SMOOTH",
"826 1238 OFFCURVE",
"723 1389 OFFCURVE",
"528 1389 CURVE SMOOTH"
);
},
{
closed = 1;
nodes = (
"699 638 OFFCURVE",
"767 556 OFFCURVE",
"767 397 CURVE SMOOTH",
"767 246 OFFCURVE",
"693 159 OFFCURVE",
"557 159 CURVE SMOOTH",
"341 159 LINE",
"341 638 LINE",
"562 638 LINE SMOOTH"
);
},
{
closed = 1;
nodes = (
"638 1230 OFFCURVE",
"701 1154 OFFCURVE",
"701 1012 CURVE SMOOTH",
"701 877 OFFCURVE",
"638 797 OFFCURVE",
"509 797 CURVE SMOOTH",
"341 797 LINE",
"341 1230 LINE",
"509 1230 LINE SMOOTH"
);
}
);
width = 1006;
},
{
layerId = "8538028E-5D6C-4318-9676-30148CDA39CA";
paths = (
{
closed = 1;
nodes = (
"109 1389 LINE SMOOTH",
"73 1389 OFFCURVE",
"57 1368 OFFCURVE",
"57 1269 CURVE SMOOTH",
"57 1169 OFFCURVE",
"73 1149 OFFCURVE",
"109 1149 CURVE SMOOTH",
"197 1149 LINE",
"197 240 LINE",
"109 240 LINE SMOOTH",
"73 240 OFFCURVE",
"57 219 OFFCURVE",
"57 119 CURVE SMOOTH",
"57 20 OFFCURVE",
"73 0 OFFCURVE",
"109 0 CURVE SMOOTH",
"582 0 LINE SMOOTH",
"806 0 OFFCURVE",
"933 136 OFFCURVE",
"933 403 CURVE SMOOTH",
"933 589 OFFCURVE",
"861 693 OFFCURVE",
"745 737 CURVE",
"822 790 OFFCURVE",
"872 879 OFFCURVE",
"872 1011 CURVE SMOOTH",
"872 1239 OFFCURVE",
"771 1389 OFFCURVE",
"536 1389 CURVE SMOOTH"
);
},
{
closed = 1;
nodes = (
"666 584 OFFCURVE",
"717 530 OFFCURVE",
"717 414 CURVE SMOOTH",
"717 308 OFFCURVE",
"668 252 OFFCURVE",
"558 252 CURVE SMOOTH",
"401 252 LINE",
"401 584 LINE",
"558 584 LINE SMOOTH"
);
},
{
closed = 1;
nodes = (
"619 1138 OFFCURVE",
"664 1093 OFFCURVE",
"664 988 CURVE SMOOTH",
"664 884 OFFCURVE",
"616 836 OFFCURVE",
"517 836 CURVE SMOOTH",
"401 836 LINE",
"401 1138 LINE",
"517 1138 LINE SMOOTH"
);
}
);
width = 1006;
}
);
unicode = 0042;
},
{
glyphname = C;
lastChange = "2026-02-27 13:18:02 +0000";
layers = (
{
layerId = UUID0;
paths = (
{
closed = 1;
nodes = (
"772 1415 OFFCURVE",
"757 1393 OFFCURVE",
"757 1339 CURVE SMOOTH",
"757 1271 LINE",
"703 1361 OFFCURVE",
"625 1415 OFFCURVE",
"520 1415 CURVE SMOOTH",
"269 1415 OFFCURVE",
"97 1127 OFFCURVE",
"97 694 CURVE SMOOTH",
"97 261 OFFCURVE",
"261 -26 OFFCURVE",
"520 -26 CURVE SMOOTH",
"644 -26 OFFCURVE",
"767 25 OFFCURVE",
"870 128 CURVE SMOOTH",
"899 157 OFFCURVE",
"903 195 OFFCURVE",
"881 250 CURVE SMOOTH",
"857 308 OFFCURVE",
"829 304 OFFCURVE",
"807 280 CURVE SMOOTH",
"728 193 OFFCURVE",
"627 147 OFFCURVE",
"520 147 CURVE SMOOTH",
"342 147 OFFCURVE",
"226 357 OFFCURVE",
"226 694 CURVE SMOOTH",
"226 1031 OFFCURVE",
"350 1242 OFFCURVE",
"528 1242 CURVE SMOOTH",
"686 1242 OFFCURVE",
"757 1106 OFFCURVE",
"757 953 CURVE SMOOTH",
"757 899 OFFCURVE",
"772 877 OFFCURVE",
"818 877 CURVE SMOOTH",
"865 877 OFFCURVE",
"880 899 OFFCURVE",
"880 953 CURVE SMOOTH",
"880 1339 LINE SMOOTH",
"880 1393 OFFCURVE",
"865 1415 OFFCURVE",
"818 1415 CURVE SMOOTH"
);
}
);
width = 1006;
},
{
layerId = "8538028E-5D6C-4318-9676-30148CDA39CA";
paths = (
{
closed = 1;
nodes = (
"755 1415 OFFCURVE",
"724 1394 OFFCURVE",
"724 1341 CURVE SMOOTH",
"724 1267 LINE",
"681 1358 OFFCURVE",
"613 1415 OFFCURVE",
"511 1415 CURVE SMOOTH",
"266 1415 OFFCURVE",
"84 1140 OFFCURVE",
"84 695 CURVE SMOOTH",
"84 250 OFFCURVE",
"266 -26 OFFCURVE",
"536 -26 CURVE SMOOTH",
"652 -26 OFFCURVE",
"771 18 OFFCURVE",
"886 98 CURVE SMOOTH",
"921 123 OFFCURVE",
"935 169 OFFCURVE",
"912 263 CURVE SMOOTH",
"888 356 OFFCURVE",
"857 374 OFFCURVE",
"824 351 CURVE SMOOTH",
"728 282 OFFCURVE",
"645 240 OFFCURVE",
"544 240 CURVE SMOOTH",
"391 240 OFFCURVE",
"304 405 OFFCURVE",
"304 695 CURVE SMOOTH",
"304 985 OFFCURVE",
"383 1149 OFFCURVE",
"536 1149 CURVE SMOOTH",
"648 1149 OFFCURVE",
"708 1043 OFFCURVE",
"708 892 CURVE SMOOTH",
"708 839 OFFCURVE",
"727 818 OFFCURVE",
"804 818 CURVE SMOOTH",
"882 818 OFFCURVE",
"913 839 OFFCURVE",
"913 892 CURVE SMOOTH",
"913 1341 LINE SMOOTH",
"913 1394 OFFCURVE",
"894 1415 OFFCURVE",
"824 1415 CURVE SMOOTH"
);
}
);
width = 1006;
}
);
unicode = 0043;
},
{
glyphname = D;
lastChange = "2026-02-27 13:18:02 +0000";
layers = (
{
layerId = UUID0;
paths = (
{
closed = 1;
nodes = (
"117 1389 LINE SMOOTH",
"81 1389 OFFCURVE",
"66 1368 OFFCURVE",
"66 1310 CURVE SMOOTH",
"66 1251 OFFCURVE",
"81 1230 OFFCURVE",
"117 1230 CURVE SMOOTH",
"209 1230 LINE",
"209 159 LINE",
"117 159 LINE SMOOTH",
"81 159 OFFCURVE",
"66 138 OFFCURVE",
"66 80 CURVE SMOOTH",
"66 21 OFFCURVE",
"81 0 OFFCURVE",
"117 0 CURVE SMOOTH",
"503 0 LINE SMOOTH",
"761 0 OFFCURVE",
"934 261 OFFCURVE",
"934 694 CURVE SMOOTH",
"934 1127 OFFCURVE",
"761 1389 OFFCURVE",
"503 1389 CURVE SMOOTH"
);
},
{
closed = 1;
nodes = (
"679 1230 OFFCURVE",
"804 1043 OFFCURVE",
"804 694 CURVE SMOOTH",
"804 345 OFFCURVE",
"679 159 OFFCURVE",
"484 159 CURVE SMOOTH",
"332 159 LINE",
"332 1230 LINE",
"484 1230 LINE SMOOTH"
);
}
);
width = 1006;
},
{
layerId = "8538028E-5D6C-4318-9676-30148CDA39CA";
paths = (
{
closed = 1;
nodes = (
"101 1389 LINE SMOOTH",
"64 1389 OFFCURVE",
"49 1368 OFFCURVE",
"49 1269 CURVE SMOOTH",
"49 1169 OFFCURVE",
"64 1149 OFFCURVE",
"101 1149 CURVE SMOOTH",
"180 1149 LINE",
"180 240 LINE",
"101 240 LINE SMOOTH",
"64 240 OFFCURVE",
"49 219 OFFCURVE",
"49 119 CURVE SMOOTH",
"49 20 OFFCURVE",
"64 0 OFFCURVE",
"101 0 CURVE SMOOTH",
"487 0 LINE SMOOTH",
"774 0 OFFCURVE",
"947 250 OFFCURVE",
"947 695 CURVE SMOOTH",
"947 1140 OFFCURVE",
"774 1389 OFFCURVE",
"487 1389 CURVE SMOOTH"
);
},
{
closed = 1;
nodes = (
"640 1138 OFFCURVE",
"727 985 OFFCURVE",
"727 695 CURVE SMOOTH",
"727 405 OFFCURVE",
"640 252 OFFCURVE",
"470 252 CURVE SMOOTH",
"385 252 LINE",
"385 1138 LINE",
"470 1138 LINE SMOOTH"
);
}
);
width = 1006;
}
);
unicode = 0044;
},
{
glyphname = E;
lastChange = "2026-02-27 13:18:02 +0000";
layers = (
{
layerId = UUID0;
paths = (
{
closed = 1;
nodes = (
"117 1389 LINE SMOOTH",
"81 1389 OFFCURVE",
"66 1368 OFFCURVE",
"66 1310 CURVE SMOOTH",
"66 1251 OFFCURVE",
"81 1230 OFFCURVE",
"117 1230 CURVE SMOOTH",
"201 1230 LINE",
"201 159 LINE",
"117 159 LINE SMOOTH",
"81 159 OFFCURVE",
"66 138 OFFCURVE",
"66 80 CURVE SMOOTH",
"66 21 OFFCURVE",
"81 0 OFFCURVE",
"117 0 CURVE SMOOTH",
"850 0 LINE SMOOTH",
"886 0 OFFCURVE",
"901 21 OFFCURVE",
"901 80 CURVE SMOOTH",
"901 427 LINE SMOOTH",
"901 481 OFFCURVE",
"886 503 OFFCURVE",
"840 503 CURVE SMOOTH",
"793 503 OFFCURVE",
"778 481 OFFCURVE",
"778 427 CURVE SMOOTH",
"778 159 LINE",
"324 159 LINE",
"324 637 LINE",
"573 637 LINE SMOOTH",
"611 637 OFFCURVE",
"625 658 OFFCURVE",
"625 716 CURVE SMOOTH",
"625 775 OFFCURVE",
"611 796 OFFCURVE",
"573 796 CURVE SMOOTH",
"324 796 LINE",
"324 1230 LINE",
"762 1230 LINE",
"762 1012 LINE SMOOTH",
"762 958 OFFCURVE",
"777 936 OFFCURVE",
"824 936 CURVE SMOOTH",
"870 936 OFFCURVE",
"885 958 OFFCURVE",
"885 1012 CURVE SMOOTH",
"885 1310 LINE SMOOTH",
"885 1368 OFFCURVE",
"870 1389 OFFCURVE",
"833 1389 CURVE SMOOTH"
);
},
{
closed = 1;
nodes = (
"548 978 OFFCURVE",
"535 956 OFFCURVE",
"535 902 CURVE SMOOTH",
"535 530 LINE SMOOTH",
"535 476 OFFCURVE",
"548 454 OFFCURVE",
"593 454 CURVE SMOOTH",
"638 454 OFFCURVE",
"652 476 OFFCURVE",
"652 530 CURVE SMOOTH",
"652 902 LINE SMOOTH",
"652 956 OFFCURVE",
"638 978 OFFCURVE",
"593 978 CURVE SMOOTH"
);
}
);
width = 1006;
},
{
layerId = "8538028E-5D6C-4318-9676-30148CDA39CA";
paths = (
{
closed = 1;
nodes = (
"101 1389 LINE SMOOTH",
"64 1389 OFFCURVE",
"49 1368 OFFCURVE",
"49 1269 CURVE SMOOTH",
"49 1169 OFFCURVE",
"64 1149 OFFCURVE",
"101 1149 CURVE SMOOTH",
"180 1149 LINE",
"180 240 LINE",
"101 240 LINE SMOOTH",
"64 240 OFFCURVE",
"49 219 OFFCURVE",
"49 119 CURVE SMOOTH",
"49 20 OFFCURVE",
"64 0 OFFCURVE",
"101 0 CURVE SMOOTH",
"865 0 LINE SMOOTH",
"902 0 OFFCURVE",
"918 22 OFFCURVE",
"918 76 CURVE SMOOTH",
"918 465 LINE SMOOTH",
"918 517 OFFCURVE",
"898 538 OFFCURVE",
"824 538 CURVE SMOOTH",
"750 538 OFFCURVE",
"721 517 OFFCURVE",
"721 465 CURVE SMOOTH",
"721 252 LINE",
"385 252 LINE",
"385 590 LINE",
"585 590 LINE SMOOTH",
"621 590 OFFCURVE",
"637 616 OFFCURVE",
"637 715 CURVE SMOOTH",
"637 815 OFFCURVE",
"621 841 OFFCURVE",
"585 841 CURVE SMOOTH",
"385 841 LINE",
"385 1138 LINE",
"713 1138 LINE",
"713 983 LINE SMOOTH",
"713 930 OFFCURVE",
"731 909 OFFCURVE",
"802 909 CURVE SMOOTH",
"871 909 OFFCURVE",
"901 930 OFFCURVE",
"901 983 CURVE SMOOTH",
"901 1313 LINE SMOOTH",
"901 1367 OFFCURVE",
"886 1389 OFFCURVE",
"848 1389 CURVE SMOOTH"
);
},
{
closed = 1;
nodes = (
"477 838 OFFCURVE",
"455 816 OFFCURVE",
"455 762 CURVE SMOOTH",
"455 671 LINE SMOOTH",
"455 617 OFFCURVE",
"477 595 OFFCURVE",
"541 595 CURVE SMOOTH",
"604 595 OFFCURVE",
"627 617 OFFCURVE",
"627 671 CURVE SMOOTH",
"627 762 LINE SMOOTH",
"627 816 OFFCURVE",
"604 838 OFFCURVE",
"541 838 CURVE SMOOTH"
);
}
);
width = 1429;
},
{
associatedMasterId = UUID0;
layerId = "2B1803A5-1FDF-466F-A59F-0FE5A19A0F1D";
name = "[175]";
paths = (
{
closed = 1;
nodes = (
"145 1389 LINE SMOOTH",
"109 1389 OFFCURVE",
"94 1368 OFFCURVE",
"94 1310 CURVE SMOOTH",
"94 1251 OFFCURVE",
"109 1230 OFFCURVE",
"145 1230 CURVE SMOOTH",
"229 1230 LINE",
"229 159 LINE",
"145 159 LINE SMOOTH",
"109 159 OFFCURVE",
"94 138 OFFCURVE",
"94 80 CURVE SMOOTH",
"94 21 OFFCURVE",
"109 0 OFFCURVE",
"145 0 CURVE SMOOTH",
"878 0 LINE SMOOTH",
"914 0 OFFCURVE",
"929 21 OFFCURVE",
"929 80 CURVE SMOOTH",
"929 427 LINE SMOOTH",
"929 481 OFFCURVE",
"914 503 OFFCURVE",
"868 503 CURVE SMOOTH",
"822 503 OFFCURVE",
"806 481 OFFCURVE",
"806 427 CURVE SMOOTH",
"806 159 LINE",
"352 159 LINE",
"352 637 LINE",
"639 637 LINE",
"675 637 OFFCURVE",
"690 658 OFFCURVE",
"690 716 CURVE SMOOTH",
"690 775 OFFCURVE",
"675 796 OFFCURVE",
"639 796 CURVE",
"352 796 LINE",
"352 1230 LINE",
"790 1230 LINE",
"790 1012 LINE SMOOTH",
"790 958 OFFCURVE",
"805 936 OFFCURVE",
"852 936 CURVE SMOOTH",
"898 936 OFFCURVE",
"913 958 OFFCURVE",
"913 1012 CURVE SMOOTH",
"913 1310 LINE SMOOTH",
"913 1368 OFFCURVE",
"898 1389 OFFCURVE",
"861 1389 CURVE SMOOTH"
);
}
);
visible = 1;
width = 1006;
},
{
associatedMasterId = "8538028E-5D6C-4318-9676-30148CDA39CA";
layerId = "9A9C2E21-8164-43EA-83C1-A103A1521FB3";
name = "[175]";
paths = (
{
closed = 1;
nodes = (
"122 1389 LINE SMOOTH",
"85 1389 OFFCURVE",
"70 1368 OFFCURVE",
"70 1269 CURVE SMOOTH",
"70 1169 OFFCURVE",
"85 1149 OFFCURVE",
"122 1149 CURVE SMOOTH",
"201 1149 LINE",
"201 240 LINE",
"122 240 LINE SMOOTH",
"85 240 OFFCURVE",
"70 219 OFFCURVE",
"70 119 CURVE SMOOTH",
"70 20 OFFCURVE",
"85 0 OFFCURVE",
"122 0 CURVE SMOOTH",
"886 0 LINE SMOOTH",
"923 0 OFFCURVE",
"939 22 OFFCURVE",
"939 76 CURVE SMOOTH",
"939 488 LINE SMOOTH",
"939 541 OFFCURVE",
"919 562 OFFCURVE",
"845 562 CURVE SMOOTH",
"771 562 OFFCURVE",
"742 541 OFFCURVE",
"742 488 CURVE SMOOTH",
"742 252 LINE",
"406 252 LINE",
"406 590 LINE",
"606 590 LINE SMOOTH",
"642 590 OFFCURVE",
"658 616 OFFCURVE",
"658 715 CURVE SMOOTH",
"658 815 OFFCURVE",
"642 841 OFFCURVE",
"606 841 CURVE SMOOTH",
"406 841 LINE",
"406 1138 LINE",
"734 1138 LINE",
"734 960 LINE SMOOTH",
"734 907 OFFCURVE",
"752 886 OFFCURVE",
"823 886 CURVE SMOOTH",
"892 886 OFFCURVE",
"922 907 OFFCURVE",
"922 960 CURVE SMOOTH",
"922 1313 LINE SMOOTH",
"922 1367 OFFCURVE",
"907 1389 OFFCURVE",
"870 1389 CURVE SMOOTH"
);
}
);
visible = 1;
width = 1006;
}
);
unicode = 0045;
},
{
glyphname = F;
lastChange = "2026-02-27 13:18:02 +0000";
layers = (
{
layerId = UUID0;
paths = (
{
closed = 1;
nodes = (
"117 1389 LINE SMOOTH",
"81 1389 OFFCURVE",
"66 1368 OFFCURVE",
"66 1310 CURVE SMOOTH",
"66 1251 OFFCURVE",
"81 1230 OFFCURVE",
"117 1230 CURVE SMOOTH",
"226 1230 LINE",
"226 159 LINE",
"117 159 LINE SMOOTH",
"81 159 OFFCURVE",
"66 138 OFFCURVE",
"66 80 CURVE SMOOTH",
"66 21 OFFCURVE",
"81 0 OFFCURVE",
"117 0 CURVE SMOOTH",
"538 0 LINE SMOOTH",
"575 0 OFFCURVE",
"590 21 OFFCURVE",
"590 80 CURVE SMOOTH",
"590 138 OFFCURVE",
"575 159 OFFCURVE",
"538 159 CURVE SMOOTH",
"349 159 LINE",
"349 613 LINE",
"590 613 LINE SMOOTH",
"627 613 OFFCURVE",
"641 634 OFFCURVE",
"641 693 CURVE SMOOTH",
"641 751 OFFCURVE",
"627 772 OFFCURVE",
"590 772 CURVE SMOOTH",
"349 772 LINE",
"349 1230 LINE",
"786 1230 LINE",
"786 1001 LINE SMOOTH",
"786 947 OFFCURVE",
"802 925 OFFCURVE",
"848 925 CURVE SMOOTH",
"894 925 OFFCURVE",
"909 947 OFFCURVE",
"909 1001 CURVE SMOOTH",
"909 1310 LINE SMOOTH",
"909 1368 OFFCURVE",
"894 1389 OFFCURVE",
"858 1389 CURVE SMOOTH"
);
},
{
closed = 1;
nodes = (
"570 955 OFFCURVE",
"556 933 OFFCURVE",
"556 879 CURVE SMOOTH",
"556 507 LINE SMOOTH",
"556 453 OFFCURVE",
"570 431 OFFCURVE",
"614 431 CURVE SMOOTH",
"660 431 OFFCURVE",
"673 453 OFFCURVE",
"673 507 CURVE SMOOTH",
"673 879 LINE SMOOTH",
"673 933 OFFCURVE",
"660 955 OFFCURVE",
"614 955 CURVE SMOOTH"
);
}
);
width = 1006;
},
{
layerId = "8538028E-5D6C-4318-9676-30148CDA39CA";
paths = (
{
closed = 1;
nodes = (
"117 1389 LINE SMOOTH",
"81 1389 OFFCURVE",
"66 1368 OFFCURVE",
"66 1269 CURVE SMOOTH",
"66 1169 OFFCURVE",
"81 1149 OFFCURVE",
"117 1149 CURVE SMOOTH",
"221 1149 LINE",
"221 240 LINE",
"117 240 LINE SMOOTH",
"81 240 OFFCURVE",
"66 219 OFFCURVE",
"66 119 CURVE SMOOTH",
"66 20 OFFCURVE",
"81 0 OFFCURVE",
"117 0 CURVE SMOOTH",
"604 0 LINE SMOOTH",
"640 0 OFFCURVE",
"655 20 OFFCURVE",
"655 119 CURVE SMOOTH",
"655 219 OFFCURVE",
"640 240 OFFCURVE",
"604 240 CURVE SMOOTH",
"426 240 LINE",
"426 517 LINE",
"675 517 LINE SMOOTH",
"712 517 OFFCURVE",
"727 543 OFFCURVE",
"727 642 CURVE SMOOTH",
"727 742 OFFCURVE",
"712 769 OFFCURVE",
"675 769 CURVE SMOOTH",
"426 769 LINE",
"426 1138 LINE",
"729 1138 LINE",
"729 1006 LINE SMOOTH",
"729 954 OFFCURVE",
"748 933 OFFCURVE",
"818 933 CURVE SMOOTH",
"887 933 OFFCURVE",
"918 954 OFFCURVE",
"918 1006 CURVE SMOOTH",
"918 1313 LINE SMOOTH",
"918 1367 OFFCURVE",
"902 1389 OFFCURVE",
"865 1389 CURVE SMOOTH"
);
},
{
closed = 1;
nodes = (
"568 764 OFFCURVE",
"545 742 OFFCURVE",
"545 688 CURVE SMOOTH",
"545 597 LINE SMOOTH",
"545 543 OFFCURVE",
"568 521 OFFCURVE",
"631 521 CURVE SMOOTH",
"694 521 OFFCURVE",
"717 543 OFFCURVE",
"717 597 CURVE SMOOTH",
"717 688 LINE SMOOTH",
"717 742 OFFCURVE",
"694 764 OFFCURVE",
"631 764 CURVE SMOOTH"
);
}
);
width = 1429;
},
{
associatedMasterId = UUID0;
layerId = "6F5A11B2-C36C-4722-9FBC-9E6C645C0232";
name = "[175]";
paths = (
{
closed = 1;
nodes = (
"145 1389 LINE SMOOTH",
"109 1389 OFFCURVE",
"94 1368 OFFCURVE",
"94 1310 CURVE SMOOTH",
"94 1251 OFFCURVE",
"109 1230 OFFCURVE",
"145 1230 CURVE SMOOTH",
"254 1230 LINE",
"254 159 LINE",
"145 159 LINE SMOOTH",
"109 159 OFFCURVE",
"94 138 OFFCURVE",
"94 80 CURVE SMOOTH",
"94 21 OFFCURVE",
"109 0 OFFCURVE",
"145 0 CURVE SMOOTH",
"566 0 LINE SMOOTH",
"603 0 OFFCURVE",
"618 21 OFFCURVE",
"618 80 CURVE SMOOTH",
"618 138 OFFCURVE",
"603 159 OFFCURVE",
"566 159 CURVE SMOOTH",
"377 159 LINE",
"377 613 LINE",
"664 613 LINE SMOOTH",
"700 613 OFFCURVE",
"715 634 OFFCURVE",
"715 693 CURVE SMOOTH",
"715 751 OFFCURVE",
"700 772 OFFCURVE",
"664 772 CURVE SMOOTH",
"377 772 LINE",
"377 1230 LINE",
"815 1230 LINE",
"815 1001 LINE SMOOTH",
"815 947 OFFCURVE",
"830 925 OFFCURVE",
"877 925 CURVE SMOOTH",
"922 925 OFFCURVE",
"937 947 OFFCURVE",
"937 1001 CURVE SMOOTH",
"937 1310 LINE SMOOTH",
"937 1368 OFFCURVE",
"922 1389 OFFCURVE",
"886 1389 CURVE SMOOTH"
);
}
);
width = 1006;
},
{
associatedMasterId = "8538028E-5D6C-4318-9676-30148CDA39CA";
layerId = "06411AF9-0A4C-43DE-B9CC-EEB73B2AC6A6";
name = "[175]";
paths = (
{
closed = 1;
nodes = (
"122 1389 LINE SMOOTH",
"85 1389 OFFCURVE",
"70 1368 OFFCURVE",
"70 1269 CURVE SMOOTH",
"70 1169 OFFCURVE",
"85 1149 OFFCURVE",
"122 1149 CURVE SMOOTH",
"226 1149 LINE",
"226 240 LINE",
"122 240 LINE SMOOTH",
"85 240 OFFCURVE",
"70 219 OFFCURVE",
"70 119 CURVE SMOOTH",
"70 20 OFFCURVE",
"85 0 OFFCURVE",
"122 0 CURVE SMOOTH",
"609 0 LINE SMOOTH",
"645 0 OFFCURVE",
"660 20 OFFCURVE",
"660 119 CURVE SMOOTH",
"660 219 OFFCURVE",
"645 240 OFFCURVE",
"609 240 CURVE SMOOTH",
"431 240 LINE",
"431 529 LINE",
"680 529 LINE SMOOTH",
"716 529 OFFCURVE",
"731 555 OFFCURVE",
"731 654 CURVE SMOOTH",
"731 754 OFFCURVE",
"716 781 OFFCURVE",
"680 781 CURVE SMOOTH",
"431 781 LINE",
"431 1138 LINE",
"750 1138 LINE",
"750 960 LINE SMOOTH",
"750 907 OFFCURVE",
"769 886 OFFCURVE",
"839 886 CURVE SMOOTH",
"908 886 OFFCURVE",
"939 907 OFFCURVE",
"939 960 CURVE SMOOTH",
"939 1313 LINE SMOOTH",
"939 1367 OFFCURVE",
"923 1389 OFFCURVE",
"886 1389 CURVE SMOOTH"
);
}
);
width = 1006;
}
);
unicode = 0046;
},
{
glyphname = G;
lastChange = "2026-02-27 13:18:02 +0000";
layers = (
{
layerId = UUID0;
paths = (
{
closed = 1;
nodes = (
"763 1415 OFFCURVE",
"747 1393 OFFCURVE",
"747 1339 CURVE SMOOTH",
"747 1281 LINE",
"695 1366 OFFCURVE",
"616 1415 OFFCURVE",
"511 1415 CURVE SMOOTH",
"261 1415 OFFCURVE",
"81 1127 OFFCURVE",
"81 694 CURVE SMOOTH",
"81 261 OFFCURVE",
"253 -26 OFFCURVE",
"511 -26 CURVE SMOOTH",
"638 -26 OFFCURVE",
"760 13 OFFCURVE",
"850 87 CURVE SMOOTH",
"868 102 OFFCURVE",
"879 130 OFFCURVE",
"879 167 CURVE SMOOTH",
"879 480 LINE",
"906 480 LINE SMOOTH",
"942 480 OFFCURVE",
"957 501 OFFCURVE",
"957 559 CURVE SMOOTH",
"957 618 OFFCURVE",
"942 639 OFFCURVE",
"906 639 CURVE SMOOTH",
"554 639 LINE SMOOTH",
"517 639 OFFCURVE",
"502 618 OFFCURVE",
"502 559 CURVE SMOOTH",
"502 501 OFFCURVE",
"517 480 OFFCURVE",
"554 480 CURVE SMOOTH",
"756 480 LINE",
"756 214 LINE",
"685 167 OFFCURVE",
"604 147 OFFCURVE",
"511 147 CURVE SMOOTH",
"329 147 OFFCURVE",
"209 357 OFFCURVE",
"209 694 CURVE SMOOTH",
"209 1031 OFFCURVE",
"337 1242 OFFCURVE",
"520 1242 CURVE SMOOTH",
"666 1242 OFFCURVE",
"747 1140 OFFCURVE",
"747 999 CURVE SMOOTH",
"747 946 OFFCURVE",
"763 923 OFFCURVE",
"809 923 CURVE SMOOTH",
"854 923 OFFCURVE",
"870 946 OFFCURVE",
"870 999 CURVE SMOOTH",
"870 1339 LINE SMOOTH",
"870 1393 OFFCURVE",
"854 1415 OFFCURVE",
"809 1415 CURVE SMOOTH"
);
}
);
width = 1006;
},
{
layerId = "8538028E-5D6C-4318-9676-30148CDA39CA";
paths = (
{
closed = 1;
nodes = (
"730 1415 OFFCURVE",
"700 1394 OFFCURVE",
"700 1341 CURVE SMOOTH",
"700 1277 LINE",
"657 1362 OFFCURVE",
"589 1415 OFFCURVE",
"487 1415 CURVE SMOOTH",
"241 1415 OFFCURVE",
"60 1140 OFFCURVE",
"60 695 CURVE SMOOTH",
"60 250 OFFCURVE",
"241 -26 OFFCURVE",
"511 -26 CURVE SMOOTH",
"638 -26 OFFCURVE",
"763 11 OFFCURVE",
"867 87 CURVE SMOOTH",
"886 101 OFFCURVE",
"896 130 OFFCURVE",
"896 167 CURVE SMOOTH",
"896 470 LINE",
"922 470 LINE SMOOTH",
"958 470 OFFCURVE",
"974 490 OFFCURVE",
"974 590 CURVE SMOOTH",
"974 689 OFFCURVE",
"958 710 OFFCURVE",
"922 710 CURVE SMOOTH",
"534 710 LINE SMOOTH",
"496 710 OFFCURVE",
"482 689 OFFCURVE",
"482 590 CURVE SMOOTH",
"482 490 OFFCURVE",
"496 470 OFFCURVE",
"534 470 CURVE SMOOTH",
"692 470 LINE",
"692 275 LINE",
"638 252 OFFCURVE",
"579 240 OFFCURVE",
"520 240 CURVE SMOOTH",
"366 240 OFFCURVE",
"280 405 OFFCURVE",
"280 695 CURVE SMOOTH",
"280 985 OFFCURVE",
"358 1149 OFFCURVE",
"511 1149 CURVE SMOOTH",
"630 1149 OFFCURVE",
"683 1070 OFFCURVE",
"683 939 CURVE SMOOTH",
"683 886 OFFCURVE",
"702 865 OFFCURVE",
"779 865 CURVE SMOOTH",
"858 865 OFFCURVE",
"888 886 OFFCURVE",
"888 939 CURVE SMOOTH",
"888 1341 LINE SMOOTH",
"888 1394 OFFCURVE",
"870 1415 OFFCURVE",
"799 1415 CURVE SMOOTH"
);
}
);
width = 1006;
}
);
unicode = 0047;
},
{
glyphname = H;
lastChange = "2026-02-27 13:18:02 +0000";
layers = (
{
layerId = UUID0;
paths = (
{
closed = 1;
nodes = (
"632 1389 LINE SMOOTH",
"595 1389 OFFCURVE",
"580 1368 OFFCURVE",
"580 1310 CURVE SMOOTH",
"580 1251 OFFCURVE",
"595 1230 OFFCURVE",
"632 1230 CURVE SMOOTH",
"707 1230 LINE",
"707 796 LINE",
"300 796 LINE",
"300 1230 LINE",
"374 1230 LINE SMOOTH",
"411 1230 OFFCURVE",
"426 1251 OFFCURVE",
"426 1310 CURVE SMOOTH",
"426 1368 OFFCURVE",
"411 1389 OFFCURVE",
"374 1389 CURVE SMOOTH",
"117 1389 LINE SMOOTH",
"81 1389 OFFCURVE",
"66 1368 OFFCURVE",
"66 1310 CURVE SMOOTH",
"66 1251 OFFCURVE",
"81 1230 OFFCURVE",
"117 1230 CURVE SMOOTH",
"177 1230 LINE",
"177 159 LINE",
"117 159 LINE SMOOTH",
"81 159 OFFCURVE",
"66 138 OFFCURVE",
"66 80 CURVE SMOOTH",
"66 21 OFFCURVE",
"81 0 OFFCURVE",
"117 0 CURVE SMOOTH",
"374 0 LINE SMOOTH",
"411 0 OFFCURVE",
"426 21 OFFCURVE",
"426 80 CURVE SMOOTH",
"426 138 OFFCURVE",
"411 159 OFFCURVE",
"374 159 CURVE SMOOTH",
"300 159 LINE",
"300 637 LINE",
"707 637 LINE",
"707 159 LINE",
"632 159 LINE SMOOTH",
"595 159 OFFCURVE",
"580 138 OFFCURVE",
"580 80 CURVE SMOOTH",
"580 21 OFFCURVE",
"595 0 OFFCURVE",
"632 0 CURVE SMOOTH",
"889 0 LINE SMOOTH",
"926 0 OFFCURVE",
"941 21 OFFCURVE",
"941 80 CURVE SMOOTH",
"941 138 OFFCURVE",
"926 159 OFFCURVE",
"889 159 CURVE SMOOTH",
"830 159 LINE",
"830 1230 LINE",
"889 1230 LINE SMOOTH",
"926 1230 OFFCURVE",
"941 1251 OFFCURVE",
"941 1310 CURVE SMOOTH",
"941 1368 OFFCURVE",
"926 1389 OFFCURVE",
"889 1389 CURVE SMOOTH"
);
}
);
width = 1006;
},
{
layerId = "8538028E-5D6C-4318-9676-30148CDA39CA";
paths = (
{
closed = 1;
nodes = (
"607 1389 LINE SMOOTH",
"570 1389 OFFCURVE",
"556 1368 OFFCURVE",
"556 1269 CURVE SMOOTH",
"556 1169 OFFCURVE",
"570 1149 OFFCURVE",
"607 1149 CURVE SMOOTH",
"662 1149 LINE",
"662 841 LINE",
"344 841 LINE",
"344 1149 LINE",
"399 1149 LINE SMOOTH",
"435 1149 OFFCURVE",
"451 1169 OFFCURVE",
"451 1269 CURVE SMOOTH",
"451 1368 OFFCURVE",
"435 1389 OFFCURVE",
"399 1389 CURVE SMOOTH",
"92 1389 LINE SMOOTH",
"56 1389 OFFCURVE",
"41 1368 OFFCURVE",
"41 1269 CURVE SMOOTH",
"41 1169 OFFCURVE",
"56 1149 OFFCURVE",
"92 1149 CURVE SMOOTH",
"139 1149 LINE",
"139 240 LINE",
"92 240 LINE SMOOTH",
"56 240 OFFCURVE",
"41 219 OFFCURVE",
"41 119 CURVE SMOOTH",
"41 20 OFFCURVE",
"56 0 OFFCURVE",
"92 0 CURVE SMOOTH",
"399 0 LINE SMOOTH",
"435 0 OFFCURVE",
"451 20 OFFCURVE",
"451 119 CURVE SMOOTH",
"451 219 OFFCURVE",
"435 240 OFFCURVE",
"399 240 CURVE SMOOTH",
"344 240 LINE",
"344 590 LINE",
"662 590 LINE",
"662 240 LINE",
"607 240 LINE SMOOTH",
"570 240 OFFCURVE",
"556 219 OFFCURVE",
"556 119 CURVE SMOOTH",
"556 20 OFFCURVE",
"570 0 OFFCURVE",
"607 0 CURVE SMOOTH",
"914 0 LINE SMOOTH",
"950 0 OFFCURVE",
"965 20 OFFCURVE",
"965 119 CURVE SMOOTH",
"965 219 OFFCURVE",
"950 240 OFFCURVE",
"914 240 CURVE SMOOTH",
"867 240 LINE",
"867 1149 LINE",
"914 1149 LINE SMOOTH",
"950 1149 OFFCURVE",
"965 1169 OFFCURVE",
"965 1269 CURVE SMOOTH",
"965 1368 OFFCURVE",
"950 1389 OFFCURVE",
"914 1389 CURVE SMOOTH"
);
}
);
width = 1006;
}
);
unicode = 0048;
},
{
glyphname = I;
lastChange = "2026-02-27 13:18:02 +0000";
layers = (
{
layerId = UUID0;
paths = (
{
closed = 1;
nodes = (
"232 1389 LINE SMOOTH",
"195 1389 OFFCURVE",
"180 1368 OFFCURVE",
"180 1310 CURVE SMOOTH",
"180 1251 OFFCURVE",
"195 1230 OFFCURVE",
"232 1230 CURVE SMOOTH",
"441 1230 LINE",
"441 159 LINE",
"215 159 LINE SMOOTH",
"179 159 OFFCURVE",
"164 138 OFFCURVE",
"164 80 CURVE SMOOTH",
"164 21 OFFCURVE",
"179 0 OFFCURVE",
"215 0 CURVE SMOOTH",
"791 0 LINE SMOOTH",
"827 0 OFFCURVE",
"843 21 OFFCURVE",
"843 80 CURVE SMOOTH",
"843 138 OFFCURVE",
"827 159 OFFCURVE",
"791 159 CURVE SMOOTH",
"564 159 LINE",
"564 1230 LINE",
"775 1230 LINE SMOOTH",
"811 1230 OFFCURVE",
"826 1251 OFFCURVE",
"826 1310 CURVE SMOOTH",
"826 1368 OFFCURVE",
"811 1389 OFFCURVE",
"775 1389 CURVE SMOOTH"
);
}
);
width = 1006;
},
{
layerId = "8538028E-5D6C-4318-9676-30148CDA39CA";
paths = (
{
closed = 1;
nodes = (
"207 1389 LINE SMOOTH",
"171 1389 OFFCURVE",
"156 1368 OFFCURVE",
"156 1269 CURVE SMOOTH",
"156 1169 OFFCURVE",
"171 1149 OFFCURVE",
"207 1149 CURVE SMOOTH",
"400 1149 LINE",
"400 240 LINE",
"191 240 LINE SMOOTH",
"154 240 OFFCURVE",
"139 219 OFFCURVE",
"139 119 CURVE SMOOTH",
"139 20 OFFCURVE",
"154 0 OFFCURVE",
"191 0 CURVE SMOOTH",
"816 0 LINE SMOOTH",
"852 0 OFFCURVE",
"867 20 OFFCURVE",
"867 119 CURVE SMOOTH",
"867 219 OFFCURVE",
"852 240 OFFCURVE",
"816 240 CURVE SMOOTH",
"605 240 LINE",
"605 1149 LINE",
"799 1149 LINE SMOOTH",
"836 1149 OFFCURVE",
"851 1169 OFFCURVE",
"851 1269 CURVE SMOOTH",
"851 1368 OFFCURVE",
"836 1389 OFFCURVE",
"799 1389 CURVE SMOOTH"
);
}
);
width = 1006;
}
);
unicode = 0049;
},
{
glyphname = J;
lastChange = "2026-02-27 13:18:02 +0000";
layers = (
{
layerId = UUID0;
paths = (
{
closed = 1;
nodes = (
"330 1389 LINE SMOOTH",
"294 1389 OFFCURVE",
"279 1368 OFFCURVE",
"279 1310 CURVE SMOOTH",
"279 1251 OFFCURVE",
"294 1230 OFFCURVE",
"330 1230 CURVE SMOOTH",
"610 1230 LINE",
"610 425 LINE SMOOTH",
"610 240 OFFCURVE",
"550 147 OFFCURVE",
"406 147 CURVE SMOOTH",
"327 147 OFFCURVE",
"262 178 OFFCURVE",
"218 235 CURVE",
"218 544 LINE SMOOTH",
"218 598 OFFCURVE",
"201 620 OFFCURVE",
"156 620 CURVE SMOOTH",
"110 620 OFFCURVE",
"95 598 OFFCURVE",
"95 544 CURVE SMOOTH",
"95 211 LINE SMOOTH",
"95 184 OFFCURVE",
"99 165 OFFCURVE",
"108 151 CURVE SMOOTH",
"173 47 OFFCURVE",
"275 -26 OFFCURVE",
"405 -26 CURVE SMOOTH",
"618 -26 OFFCURVE",
"733 115 OFFCURVE",
"733 390 CURVE SMOOTH",
"733 1230 LINE",
"898 1230 LINE SMOOTH",
"934 1230 OFFCURVE",
"949 1251 OFFCURVE",
"949 1310 CURVE SMOOTH",
"949 1368 OFFCURVE",
"934 1389 OFFCURVE",
"898 1389 CURVE SMOOTH"
);
}
);
width = 1006;
},
{
layerId = "8538028E-5D6C-4318-9676-30148CDA39CA";
paths = (
{
closed = 1;
nodes = (
"305 1389 LINE SMOOTH",
"269 1389 OFFCURVE",
"254 1368 OFFCURVE",
"254 1269 CURVE SMOOTH",
"254 1169 OFFCURVE",
"269 1149 OFFCURVE",
"305 1149 CURVE SMOOTH",
"556 1149 LINE",
"556 448 LINE SMOOTH",
"556 304 OFFCURVE",
"510 240 OFFCURVE",
"422 240 CURVE SMOOTH",
"370 240 OFFCURVE",
"324 253 OFFCURVE",
"286 280 CURVE",
"286 584 LINE SMOOTH",
"286 637 OFFCURVE",
"267 658 OFFCURVE",
"190 658 CURVE SMOOTH",
"111 658 OFFCURVE",
"81 637 OFFCURVE",
"81 584 CURVE SMOOTH",
"81 205 LINE SMOOTH",
"81 178 OFFCURVE",
"85 159 OFFCURVE",
"95 146 CURVE SMOOTH",
"179 32 OFFCURVE",
"286 -26 OFFCURVE",
"413 -26 CURVE SMOOTH",
"640 -26 OFFCURVE",
"761 123 OFFCURVE",
"761 425 CURVE SMOOTH",
"761 1149 LINE",
"914 1149 LINE SMOOTH",
"950 1149 OFFCURVE",
"965 1169 OFFCURVE",
"965 1269 CURVE SMOOTH",
"965 1368 OFFCURVE",
"950 1389 OFFCURVE",
"914 1389 CURVE SMOOTH"
);
}
);
width = 1006;
}
);
unicode = 004A;
},
{
glyphname = K;
lastChange = "2026-02-27 13:18:02 +0000";
layers = (
{
layerId = UUID0;
paths = (
{
closed = 1;
nodes = (
"632 1389 LINE SMOOTH",
"595 1389 OFFCURVE",
"580 1368 OFFCURVE",
"580 1310 CURVE SMOOTH",
"580 1251 OFFCURVE",
"595 1230 OFFCURVE",
"632 1230 CURVE SMOOTH",
"690 1230 LINE",
"332 728 LINE",
"332 1230 LINE",
"407 1230 LINE SMOOTH",
"444 1230 OFFCURVE",
"459 1251 OFFCURVE",
"459 1310 CURVE SMOOTH",
"459 1368 OFFCURVE",
"444 1389 OFFCURVE",
"407 1389 CURVE SMOOTH",
"117 1389 LINE SMOOTH",
"81 1389 OFFCURVE",
"66 1368 OFFCURVE",
"66 1310 CURVE SMOOTH",
"66 1251 OFFCURVE",
"81 1230 OFFCURVE",
"117 1230 CURVE SMOOTH",
"209 1230 LINE",
"209 159 LINE",
"117 159 LINE SMOOTH",
"81 159 OFFCURVE",
"66 138 OFFCURVE",
"66 80 CURVE SMOOTH",
"66 21 OFFCURVE",
"81 0 OFFCURVE",
"117 0 CURVE SMOOTH",
"465 0 LINE SMOOTH",
"501 0 OFFCURVE",
"516 21 OFFCURVE",
"516 80 CURVE SMOOTH",
"516 138 OFFCURVE",
"501 159 OFFCURVE",
"465 159 CURVE SMOOTH",
"332 159 LINE",
"332 510 LINE",
"357 544 LINE SMOOTH",
"390 591 OFFCURVE",
"435 613 OFFCURVE",
"480 613 CURVE SMOOTH",
"529 613 OFFCURVE",
"570 585 OFFCURVE",
"597 531 CURVE SMOOTH",
"644 434 OFFCURVE",
"669 287 OFFCURVE",
"714 163 CURVE SMOOTH",
"756 43 OFFCURVE",
"806 0 OFFCURVE",
"854 0 CURVE SMOOTH",
"922 0 LINE SMOOTH",
"958 0 OFFCURVE",
"974 21 OFFCURVE",
"974 80 CURVE SMOOTH",
"974 138 OFFCURVE",
"958 159 OFFCURVE",
"922 159 CURVE SMOOTH",
"899 159 LINE SMOOTH",
"867 159 OFFCURVE",
"845 192 OFFCURVE",
"825 243 CURVE SMOOTH",
"785 348 OFFCURVE",
"757 525 OFFCURVE",
"695 640 CURVE SMOOTH",
"644 733 OFFCURVE",
"578 763 OFFCURVE",
"504 756 CURVE",
"847 1230 LINE",
"898 1230 LINE SMOOTH",
"934 1230 OFFCURVE",
"949 1251 OFFCURVE",
"949 1310 CURVE SMOOTH",
"949 1368 OFFCURVE",
"934 1389 OFFCURVE",
"898 1389 CURVE SMOOTH"
);
}
);
width = 1006;
},
{
layerId = "8538028E-5D6C-4318-9676-30148CDA39CA";
paths = (
{
closed = 1;
nodes = (
"607 1389 LINE SMOOTH",
"570 1389 OFFCURVE",
"556 1368 OFFCURVE",
"556 1269 CURVE SMOOTH",
"556 1169 OFFCURVE",
"570 1149 OFFCURVE",
"607 1149 CURVE SMOOTH",
"651 1149 LINE",
"385 775 LINE",
"385 1149 LINE",
"424 1149 LINE SMOOTH",
"460 1149 OFFCURVE",
"475 1169 OFFCURVE",
"475 1269 CURVE SMOOTH",
"475 1368 OFFCURVE",
"460 1389 OFFCURVE",
"424 1389 CURVE SMOOTH",
"92 1389 LINE SMOOTH",
"56 1389 OFFCURVE",
"41 1368 OFFCURVE",
"41 1269 CURVE SMOOTH",
"41 1169 OFFCURVE",
"56 1149 OFFCURVE",
"92 1149 CURVE SMOOTH",
"180 1149 LINE",
"180 240 LINE",
"92 240 LINE SMOOTH",
"56 240 OFFCURVE",
"41 219 OFFCURVE",
"41 119 CURVE SMOOTH",
"41 20 OFFCURVE",
"56 0 OFFCURVE",
"92 0 CURVE SMOOTH",
"480 0 LINE SMOOTH",
"516 0 OFFCURVE",
"531 20 OFFCURVE",
"531 119 CURVE SMOOTH",
"531 219 OFFCURVE",
"516 240 OFFCURVE",
"480 240 CURVE SMOOTH",
"385 240 LINE",
"385 446 LINE",
"427 504 LINE SMOOTH",
"447 531 OFFCURVE",
"468 544 OFFCURVE",
"492 544 CURVE SMOOTH",
"529 544 OFFCURVE",
"565 506 OFFCURVE",
"593 446 CURVE SMOOTH",
"627 371 OFFCURVE",
"657 259 OFFCURVE",
"692 166 CURVE SMOOTH",
"726 76 OFFCURVE",
"768 0 OFFCURVE",
"840 0 CURVE SMOOTH",
"955 0 LINE SMOOTH",
"991 0 OFFCURVE",
"1006 20 OFFCURVE",
"1006 119 CURVE SMOOTH",
"1006 219 OFFCURVE",
"991 240 OFFCURVE",
"955 240 CURVE SMOOTH",
"947 240 LINE SMOOTH",
"910 240 OFFCURVE",
"886 276 OFFCURVE",
"864 330 CURVE SMOOTH",
"829 414 OFFCURVE",
"800 530 OFFCURVE",
"752 626 CURVE SMOOTH",
"717 700 OFFCURVE",
"666 745 OFFCURVE",
"604 750 CURVE",
"891 1149 LINE",
"926 1149 LINE SMOOTH",
"963 1149 OFFCURVE",
"977 1169 OFFCURVE",
"977 1269 CURVE SMOOTH",
"977 1368 OFFCURVE",
"963 1389 OFFCURVE",
"926 1389 CURVE SMOOTH"
);
}
);
width = 1006;
}
);
unicode = 004B;
},
{
glyphname = L;
lastChange = "2026-02-27 13:18:02 +0000";
layers = (
{
layerId = UUID0;
paths = (
{
closed = 1;
nodes = (
"117 1389 LINE SMOOTH",
"81 1389 OFFCURVE",
"66 1368 OFFCURVE",
"66 1310 CURVE SMOOTH",
"66 1251 OFFCURVE",
"81 1230 OFFCURVE",
"117 1230 CURVE SMOOTH",
"250 1230 LINE",
"250 159 LINE",
"117 159 LINE SMOOTH",
"81 159 OFFCURVE",
"66 138 OFFCURVE",
"66 80 CURVE SMOOTH",
"66 21 OFFCURVE",
"81 0 OFFCURVE",
"117 0 CURVE SMOOTH",
"850 0 LINE SMOOTH",
"886 0 OFFCURVE",
"901 21 OFFCURVE",
"901 80 CURVE SMOOTH",
"901 544 LINE SMOOTH",
"901 598 OFFCURVE",
"886 620 OFFCURVE",
"840 620 CURVE SMOOTH",
"793 620 OFFCURVE",
"778 598 OFFCURVE",
"778 544 CURVE SMOOTH",
"778 159 LINE",
"373 159 LINE",
"373 1230 LINE",
"571 1230 LINE SMOOTH",
"607 1230 OFFCURVE",
"623 1251 OFFCURVE",
"623 1310 CURVE SMOOTH",
"623 1368 OFFCURVE",
"607 1389 OFFCURVE",
"571 1389 CURVE SMOOTH"
);
}
);
width = 1006;
},
{
layerId = "8538028E-5D6C-4318-9676-30148CDA39CA";
paths = (
{
closed = 1;
nodes = (
"101 1389 LINE SMOOTH",
"64 1389 OFFCURVE",
"49 1368 OFFCURVE",
"49 1269 CURVE SMOOTH",
"49 1169 OFFCURVE",
"64 1149 OFFCURVE",
"101 1149 CURVE SMOOTH",
"220 1149 LINE",
"220 240 LINE",
"101 240 LINE SMOOTH",
"64 240 OFFCURVE",
"49 219 OFFCURVE",
"49 119 CURVE SMOOTH",
"49 20 OFFCURVE",
"64 0 OFFCURVE",
"101 0 CURVE SMOOTH",
"865 0 LINE SMOOTH",
"902 0 OFFCURVE",
"918 22 OFFCURVE",
"918 76 CURVE SMOOTH",
"918 617 LINE SMOOTH",
"918 669 OFFCURVE",
"899 690 OFFCURVE",
"820 690 CURVE SMOOTH",
"743 690 OFFCURVE",
"713 669 OFFCURVE",
"713 617 CURVE SMOOTH",
"713 252 LINE",
"425 252 LINE",
"425 1149 LINE",
"604 1149 LINE SMOOTH",
"640 1149 OFFCURVE",
"655 1169 OFFCURVE",
"655 1269 CURVE SMOOTH",
"655 1368 OFFCURVE",
"640 1389 OFFCURVE",
"604 1389 CURVE SMOOTH"
);
}
);
width = 1006;
}
);
unicode = 004C;
},
{
glyphname = M;
lastChange = "2026-02-27 13:18:02 +0000";
layers = (
{
layerId = UUID0;
paths = (
{
closed = 1;
nodes = (
"733 1389 LINE SMOOTH",
"706 1389 OFFCURVE",
"690 1377 OFFCURVE",
"685 1351 CURVE SMOOTH",
"503 638 LINE",
"321 1351 LINE SMOOTH",
"315 1377 OFFCURVE",
"300 1389 OFFCURVE",
"274 1389 CURVE SMOOTH",
"101 1389 LINE SMOOTH",
"64 1389 OFFCURVE",
"49 1368 OFFCURVE",
"49 1310 CURVE SMOOTH",
"49 1251 OFFCURVE",
"64 1230 OFFCURVE",
"101 1230 CURVE SMOOTH",
"140 1230 LINE",
"121 159 LINE",
"76 159 LINE SMOOTH",
"40 159 OFFCURVE",
"25 138 OFFCURVE",
"25 80 CURVE SMOOTH",
"25 21 OFFCURVE",
"40 0 OFFCURVE",
"76 0 CURVE SMOOTH",
"334 0 LINE SMOOTH",
"370 0 OFFCURVE",
"385 21 OFFCURVE",
"385 80 CURVE SMOOTH",
"385 138 OFFCURVE",
"370 159 OFFCURVE",
"334 159 CURVE SMOOTH",
"242 159 LINE",
"260 1118 LINE",
"427 451 LINE SMOOTH",
"441 396 OFFCURVE",
"465 374 OFFCURVE",
"503 374 CURVE SMOOTH",
"542 374 OFFCURVE",
"564 396 OFFCURVE",
"578 451 CURVE SMOOTH",
"745 1118 LINE",
"763 159 LINE",
"673 159 LINE SMOOTH",
"635 159 OFFCURVE",
"621 138 OFFCURVE",
"621 80 CURVE SMOOTH",
"621 21 OFFCURVE",
"635 0 OFFCURVE",
"673 0 CURVE SMOOTH",
"930 0 LINE SMOOTH",
"967 0 OFFCURVE",
"982 21 OFFCURVE",
"982 80 CURVE SMOOTH",
"982 138 OFFCURVE",
"967 159 OFFCURVE",
"930 159 CURVE SMOOTH",
"886 159 LINE",
"865 1230 LINE",
"906 1230 LINE SMOOTH",
"942 1230 OFFCURVE",
"957 1251 OFFCURVE",
"957 1310 CURVE SMOOTH",
"957 1368 OFFCURVE",
"942 1389 OFFCURVE",
"906 1389 CURVE SMOOTH"
);
}
);
width = 1006;
},
{
layerId = "8538028E-5D6C-4318-9676-30148CDA39CA";
paths = (
{
closed = 1;
nodes = (
"696 1389 LINE SMOOTH",
"674 1389 OFFCURVE",
"660 1381 OFFCURVE",
"652 1353 CURVE SMOOTH",
"503 778 LINE",
"353 1353 LINE SMOOTH",
"345 1381 OFFCURVE",
"331 1389 OFFCURVE",
"309 1389 CURVE SMOOTH",
"76 1389 LINE SMOOTH",
"40 1389 OFFCURVE",
"25 1368 OFFCURVE",
"25 1269 CURVE SMOOTH",
"25 1169 OFFCURVE",
"40 1149 OFFCURVE",
"76 1149 CURVE SMOOTH",
"121 1149 LINE",
"108 240 LINE",
"60 240 LINE SMOOTH",
"23 240 OFFCURVE",
"8 219 OFFCURVE",
"8 119 CURVE SMOOTH",
"8 20 OFFCURVE",
"23 0 OFFCURVE",
"60 0 CURVE SMOOTH",
"366 0 LINE SMOOTH",
"403 0 OFFCURVE",
"418 20 OFFCURVE",
"418 119 CURVE SMOOTH",
"418 219 OFFCURVE",
"403 240 OFFCURVE",
"366 240 CURVE SMOOTH",
"290 240 LINE",
"295 929 LINE",
"419 455 LINE SMOOTH",
"434 401 OFFCURVE",
"458 380 OFFCURVE",
"504 380 CURVE SMOOTH",
"550 380 OFFCURVE",
"572 401 OFFCURVE",
"586 455 CURVE SMOOTH",
"710 933 LINE",
"715 240 LINE",
"640 240 LINE SMOOTH",
"603 240 OFFCURVE",
"589 219 OFFCURVE",
"589 119 CURVE SMOOTH",
"589 20 OFFCURVE",
"603 0 OFFCURVE",
"640 0 CURVE SMOOTH",
"947 0 LINE SMOOTH",
"983 0 OFFCURVE",
"998 20 OFFCURVE",
"998 119 CURVE SMOOTH",
"998 219 OFFCURVE",
"983 240 OFFCURVE",
"947 240 CURVE SMOOTH",
"898 240 LINE",
"886 1149 LINE",
"930 1149 LINE SMOOTH",
"967 1149 OFFCURVE",
"982 1169 OFFCURVE",
"982 1269 CURVE SMOOTH",
"982 1368 OFFCURVE",
"967 1389 OFFCURVE",
"930 1389 CURVE SMOOTH"
);
}
);
width = 1006;
}
);
unicode = 004D;
},
{
glyphname = N;
lastChange = "2026-02-27 13:18:02 +0000";
layers = (
{
layerId = UUID0;
paths = (
{
closed = 1;
nodes = (
"632 1389 LINE SMOOTH",
"595 1389 OFFCURVE",
"580 1368 OFFCURVE",
"580 1310 CURVE SMOOTH",
"580 1251 OFFCURVE",
"595 1230 OFFCURVE",
"632 1230 CURVE SMOOTH",
"730 1230 LINE",
"730 364 LINE",
"728 364 LINE",
"339 1356 LINE SMOOTH",
"330 1379 OFFCURVE",
"316 1389 OFFCURVE",
"293 1389 CURVE SMOOTH",
"109 1389 LINE SMOOTH",
"73 1389 OFFCURVE",
"57 1368 OFFCURVE",
"57 1310 CURVE SMOOTH",
"57 1251 OFFCURVE",
"73 1230 OFFCURVE",
"109 1230 CURVE SMOOTH",
"172 1230 LINE",
"172 159 LINE",
"117 159 LINE SMOOTH",
"81 159 OFFCURVE",
"66 138 OFFCURVE",
"66 80 CURVE SMOOTH",
"66 21 OFFCURVE",
"81 0 OFFCURVE",
"117 0 CURVE SMOOTH",
"407 0 LINE SMOOTH",
"444 0 OFFCURVE",
"459 21 OFFCURVE",
"459 80 CURVE SMOOTH",
"459 138 OFFCURVE",
"444 159 OFFCURVE",
"407 159 CURVE SMOOTH",
"291 159 LINE",
"291 1123 LINE",
"295 1123 LINE",
"720 39 LINE SMOOTH",
"736 -2 OFFCURVE",
"758 -26 OFFCURVE",
"789 -26 CURVE SMOOTH",
"832 -26 OFFCURVE",
"851 2 OFFCURVE",
"851 43 CURVE SMOOTH",
"851 1230 LINE",
"898 1230 LINE SMOOTH",
"934 1230 OFFCURVE",
"949 1251 OFFCURVE",
"949 1310 CURVE SMOOTH",
"949 1368 OFFCURVE",
"934 1389 OFFCURVE",
"898 1389 CURVE SMOOTH"
);
}
);
width = 1006;
},
{
layerId = "8538028E-5D6C-4318-9676-30148CDA39CA";
paths = (
{
closed = 1;
nodes = (
"623 1389 LINE SMOOTH",
"586 1389 OFFCURVE",
"571 1368 OFFCURVE",
"571 1269 CURVE SMOOTH",
"571 1169 OFFCURVE",
"586 1149 OFFCURVE",
"623 1149 CURVE SMOOTH",
"697 1149 LINE",
"697 554 LINE",
"695 554 LINE",
"355 1358 LINE SMOOTH",
"345 1381 OFFCURVE",
"329 1389 OFFCURVE",
"309 1389 CURVE SMOOTH",
"92 1389 LINE SMOOTH",
"56 1389 OFFCURVE",
"41 1368 OFFCURVE",
"41 1269 CURVE SMOOTH",
"41 1169 OFFCURVE",
"56 1149 OFFCURVE",
"92 1149 CURVE SMOOTH",
"147 1149 LINE",
"147 240 LINE",
"92 240 LINE SMOOTH",
"56 240 OFFCURVE",
"41 219 OFFCURVE",
"41 119 CURVE SMOOTH",
"41 20 OFFCURVE",
"56 0 OFFCURVE",
"92 0 CURVE SMOOTH",
"424 0 LINE SMOOTH",
"460 0 OFFCURVE",
"475 20 OFFCURVE",
"475 119 CURVE SMOOTH",
"475 219 OFFCURVE",
"460 240 OFFCURVE",
"424 240 CURVE SMOOTH",
"332 240 LINE",
"332 908 LINE",
"336 908 LINE",
"705 36 LINE SMOOTH",
"722 -4 OFFCURVE",
"740 -26 OFFCURVE",
"793 -26 CURVE SMOOTH",
"861 -26 OFFCURVE",
"884 2 OFFCURVE",
"884 51 CURVE SMOOTH",
"884 1149 LINE",
"930 1149 LINE SMOOTH",
"967 1149 OFFCURVE",
"982 1169 OFFCURVE",
"982 1269 CURVE SMOOTH",
"982 1368 OFFCURVE",
"967 1389 OFFCURVE",
"930 1389 CURVE SMOOTH"
);
}
);
width = 1006;
}
);
unicode = 004E;
},
{
glyphname = O;
lastChange = "2026-02-27 13:18:02 +0000";
layers = (
{
layerId = UUID0;
paths = (
{
closed = 1;
nodes = (
"245 1415 OFFCURVE",
"73 1127 OFFCURVE",
"73 694 CURVE SMOOTH",
"73 261 OFFCURVE",
"245 -26 OFFCURVE",
"503 -26 CURVE SMOOTH",
"761 -26 OFFCURVE",
"934 261 OFFCURVE",
"934 694 CURVE SMOOTH",
"934 1127 OFFCURVE",
"761 1415 OFFCURVE",
"503 1415 CURVE SMOOTH"
);
},
{
closed = 1;
nodes = (
"685 1242 OFFCURVE",
"804 1031 OFFCURVE",
"804 694 CURVE SMOOTH",
"804 357 OFFCURVE",
"685 147 OFFCURVE",
"503 147 CURVE SMOOTH",
"321 147 OFFCURVE",
"201 357 OFFCURVE",
"201 694 CURVE SMOOTH",
"201 1031 OFFCURVE",
"321 1242 OFFCURVE",
"503 1242 CURVE SMOOTH"
);
}
);
width = 1006;
},
{
layerId = "8538028E-5D6C-4318-9676-30148CDA39CA";
paths = (
{
closed = 1;
nodes = (
"233 1415 OFFCURVE",
"51 1140 OFFCURVE",
"51 695 CURVE SMOOTH",
"51 250 OFFCURVE",
"233 -26 OFFCURVE",
"503 -26 CURVE SMOOTH",
"774 -26 OFFCURVE",
"955 250 OFFCURVE",
"955 695 CURVE SMOOTH",
"955 1140 OFFCURVE",
"774 1415 OFFCURVE",
"503 1415 CURVE SMOOTH"
);
},
{
closed = 1;
nodes = (
"657 1149 OFFCURVE",
"735 985 OFFCURVE",
"735 695 CURVE SMOOTH",
"735 405 OFFCURVE",
"657 240 OFFCURVE",
"503 240 CURVE SMOOTH",
"350 240 OFFCURVE",
"272 405 OFFCURVE",
"272 695 CURVE SMOOTH",
"272 985 OFFCURVE",
"350 1149 OFFCURVE",
"503 1149 CURVE SMOOTH"
);
}
);
width = 1006;
}
);
unicode = 004F;
},
{
glyphname = P;
lastChange = "2026-02-27 13:18:02 +0000";
layers = (
{
layerId = UUID0;
paths = (
{
closed = 1;
nodes = (
"117 1389 LINE SMOOTH",
"81 1389 OFFCURVE",
"66 1368 OFFCURVE",
"66 1310 CURVE SMOOTH",
"66 1251 OFFCURVE",
"81 1230 OFFCURVE",
"117 1230 CURVE SMOOTH",
"250 1230 LINE",
"250 159 LINE",
"117 159 LINE SMOOTH",
"81 159 OFFCURVE",
"66 138 OFFCURVE",
"66 80 CURVE SMOOTH",
"66 21 OFFCURVE",
"81 0 OFFCURVE",
"117 0 CURVE SMOOTH",
"570 0 LINE SMOOTH",
"606 0 OFFCURVE",
"621 21 OFFCURVE",
"621 80 CURVE SMOOTH",
"621 138 OFFCURVE",
"606 159 OFFCURVE",
"570 159 CURVE SMOOTH",
"373 159 LINE",
"373 507 LINE",
"565 507 LINE SMOOTH",
"786 507 OFFCURVE",
"910 682 OFFCURVE",
"910 946 CURVE SMOOTH",
"910 1210 OFFCURVE",
"786 1389 OFFCURVE",
"565 1389 CURVE SMOOTH"
);
},
{
closed = 1;
nodes = (
"701 1230 OFFCURVE",
"782 1122 OFFCURVE",
"782 946 CURVE SMOOTH",
"782 771 OFFCURVE",
"701 666 OFFCURVE",
"548 666 CURVE SMOOTH",
"373 666 LINE",
"373 1230 LINE",
"548 1230 LINE SMOOTH"
);
}
);
width = 1006;
},
{
layerId = "8538028E-5D6C-4318-9676-30148CDA39CA";
paths = (
{
closed = 1;
nodes = (
"101 1389 LINE SMOOTH",
"64 1389 OFFCURVE",
"49 1368 OFFCURVE",
"49 1269 CURVE SMOOTH",
"49 1169 OFFCURVE",
"64 1149 OFFCURVE",
"101 1149 CURVE SMOOTH",
"221 1149 LINE",
"221 240 LINE",
"101 240 LINE SMOOTH",
"64 240 OFFCURVE",
"49 219 OFFCURVE",
"49 119 CURVE SMOOTH",
"49 20 OFFCURVE",
"64 0 OFFCURVE",
"101 0 CURVE SMOOTH",
"604 0 LINE SMOOTH",
"640 0 OFFCURVE",
"655 20 OFFCURVE",
"655 119 CURVE SMOOTH",
"655 219 OFFCURVE",
"640 240 OFFCURVE",
"604 240 CURVE SMOOTH",
"426 240 LINE",
"426 447 LINE",
"549 447 LINE SMOOTH",
"803 447 OFFCURVE",
"932 618 OFFCURVE",
"932 919 CURVE SMOOTH",
"932 1219 OFFCURVE",
"803 1389 OFFCURVE",
"549 1389 CURVE SMOOTH"
);
},
{
closed = 1;
nodes = (
"652 1138 OFFCURVE",
"720 1070 OFFCURVE",
"720 919 CURVE SMOOTH",
"720 768 OFFCURVE",
"652 699 OFFCURVE",
"523 699 CURVE SMOOTH",
"426 699 LINE",
"426 1138 LINE",
"523 1138 LINE SMOOTH"
);
}
);
width = 1006;
}
);
unicode = 0050;
},
{
glyphname = Q;
lastChange = "2026-02-27 13:18:02 +0000";
layers = (
{
layerId = UUID0;
paths = (
{
closed = 1;
nodes = (
"245 1415 OFFCURVE",
"73 1145 OFFCURVE",
"73 723 CURVE SMOOTH",
"73 397 OFFCURVE",
"176 163 OFFCURVE",
"342 73 CURVE",
"194 -166 LINE SMOOTH",
"180 -188 OFFCURVE",
"187 -225 OFFCURVE",
"208 -264 CURVE SMOOTH",
"229 -305 OFFCURVE",
"255 -328 OFFCURVE",
"276 -315 CURVE SMOOTH",
"349 -272 OFFCURVE",
"411 -257 OFFCURVE",
"460 -257 CURVE SMOOTH",
"554 -257 OFFCURVE",
"624 -302 OFFCURVE",
"699 -302 CURVE SMOOTH",
"750 -302 OFFCURVE",
"805 -281 OFFCURVE",
"873 -209 CURVE SMOOTH",
"898 -184 OFFCURVE",
"894 -142 OFFCURVE",
"877 -101 CURVE SMOOTH",
"859 -57 OFFCURVE",
"832 -36 OFFCURVE",
"813 -56 CURVE",
"764 -108 OFFCURVE",
"722 -123 OFFCURVE",
"682 -123 CURVE SMOOTH",
"620 -123 OFFCURVE",
"562 -85 OFFCURVE",
"486 -85 CURVE SMOOTH",
"447 -85 OFFCURVE",
"405 -95 OFFCURVE",
"355 -123 CURVE",
"460 35 LINE",
"470 34 OFFCURVE",
"487 33 OFFCURVE",
"503 33 CURVE SMOOTH",
"761 33 OFFCURVE",
"934 302 OFFCURVE",
"934 723 CURVE SMOOTH",
"934 1145 OFFCURVE",
"761 1415 OFFCURVE",
"503 1415 CURVE SMOOTH"
);
},
{
closed = 1;
nodes = (
"685 1242 OFFCURVE",
"804 1049 OFFCURVE",
"804 723 CURVE SMOOTH",
"804 398 OFFCURVE",
"685 206 OFFCURVE",
"503 206 CURVE SMOOTH",
"321 206 OFFCURVE",
"201 398 OFFCURVE",
"201 723 CURVE SMOOTH",
"201 1049 OFFCURVE",
"321 1242 OFFCURVE",
"503 1242 CURVE SMOOTH"
);
}
);
width = 1006;
},
{
layerId = "8538028E-5D6C-4318-9676-30148CDA39CA";
paths = (
{
closed = 1;
nodes = (
"233 1415 OFFCURVE",
"51 1152 OFFCURVE",
"51 742 CURVE SMOOTH",
"51 434 OFFCURVE",
"154 208 OFFCURVE",
"319 115 CURVE",
"165 -119 LINE SMOOTH",
"144 -152 OFFCURVE",
"151 -213 OFFCURVE",
"170 -261 CURVE SMOOTH",
"188 -310 OFFCURVE",
"220 -348 OFFCURVE",
"243 -332 CURVE SMOOTH",
"312 -290 OFFCURVE",
"378 -277 OFFCURVE",
"431 -277 CURVE SMOOTH",
"541 -277 OFFCURVE",
"631 -329 OFFCURVE",
"722 -329 CURVE SMOOTH",
"781 -329 OFFCURVE",
"840 -308 OFFCURVE",
"906 -239 CURVE SMOOTH",
"941 -201 OFFCURVE",
"941 -143 OFFCURVE",
"919 -78 CURVE SMOOTH",
"898 -18 OFFCURVE",
"864 16 OFFCURVE",
"832 -7 CURVE SMOOTH",
"785 -43 OFFCURVE",
"744 -54 OFFCURVE",
"707 -54 CURVE SMOOTH",
"641 -54 OFFCURVE",
"583 -20 OFFCURVE",
"507 -20 CURVE SMOOTH",
"469 -20 OFFCURVE",
"427 -28 OFFCURVE",
"379 -54 CURVE",
"466 70 LINE",
"474 69 OFFCURVE",
"489 68 OFFCURVE",
"503 68 CURVE SMOOTH",
"774 68 OFFCURVE",
"955 332 OFFCURVE",
"955 742 CURVE SMOOTH",
"955 1152 OFFCURVE",
"774 1415 OFFCURVE",
"503 1415 CURVE SMOOTH"
);
},
{
closed = 1;
nodes = (
"657 1149 OFFCURVE",
"735 997 OFFCURVE",
"735 742 CURVE SMOOTH",
"735 487 OFFCURVE",
"657 334 OFFCURVE",
"503 334 CURVE SMOOTH",
"350 334 OFFCURVE",
"272 487 OFFCURVE",
"272 742 CURVE SMOOTH",
"272 997 OFFCURVE",
"350 1149 OFFCURVE",
"503 1149 CURVE SMOOTH"
);
}
);
width = 1006;
}
);
unicode = 0051;
},
{
glyphname = R;
lastChange = "2026-02-27 13:18:02 +0000";
layers = (
{
layerId = UUID0;
paths = (
{
closed = 1;
nodes = (
"117 1389 LINE SMOOTH",
"81 1389 OFFCURVE",
"66 1368 OFFCURVE",
"66 1310 CURVE SMOOTH",
"66 1251 OFFCURVE",
"81 1230 OFFCURVE",
"117 1230 CURVE SMOOTH",
"218 1230 LINE",
"218 159 LINE",
"117 159 LINE SMOOTH",
"81 159 OFFCURVE",
"66 138 OFFCURVE",
"66 80 CURVE SMOOTH",
"66 21 OFFCURVE",
"81 0 OFFCURVE",
"117 0 CURVE SMOOTH",
"447 0 LINE SMOOTH",
"483 0 OFFCURVE",
"499 21 OFFCURVE",
"499 80 CURVE SMOOTH",
"499 138 OFFCURVE",
"483 159 OFFCURVE",
"447 159 CURVE SMOOTH",
"341 159 LINE",
"341 603 LINE",
"452 603 LINE SMOOTH",
"517 603 OFFCURVE",
"562 568 OFFCURVE",
"593 503 CURVE SMOOTH",
"644 404 OFFCURVE",
"665 298 OFFCURVE",
"714 163 CURVE SMOOTH",
"756 43 OFFCURVE",
"798 0 OFFCURVE",
"863 0 CURVE SMOOTH",
"922 0 LINE SMOOTH",
"958 0 OFFCURVE",
"974 21 OFFCURVE",
"974 80 CURVE SMOOTH",
"974 138 OFFCURVE",
"958 159 OFFCURVE",
"922 159 CURVE SMOOTH",
"899 159 LINE SMOOTH",
"867 159 OFFCURVE",
"845 192 OFFCURVE",
"825 243 CURVE SMOOTH",
"788 342 OFFCURVE",
"764 452 OFFCURVE",
"706 559 CURVE SMOOTH",
"686 598 OFFCURVE",
"660 626 OFFCURVE",
"630 642 CURVE",
"769 687 OFFCURVE",
"857 815 OFFCURVE",
"857 995 CURVE SMOOTH",
"857 1230 OFFCURVE",
"741 1389 OFFCURVE",
"531 1389 CURVE SMOOTH"
);
},
{
closed = 1;
nodes = (
"650 1230 OFFCURVE",
"728 1146 OFFCURVE",
"728 995 CURVE SMOOTH",
"728 829 OFFCURVE",
"642 762 OFFCURVE",
"507 762 CURVE SMOOTH",
"341 762 LINE",
"341 1230 LINE",
"515 1230 LINE SMOOTH"
);
}
);
width = 1006;
},
{
layerId = "8538028E-5D6C-4318-9676-30148CDA39CA";
paths = (
{
closed = 1;
nodes = (
"101 1389 LINE SMOOTH",
"64 1389 OFFCURVE",
"49 1368 OFFCURVE",
"49 1269 CURVE SMOOTH",
"49 1169 OFFCURVE",
"64 1149 OFFCURVE",
"101 1149 CURVE SMOOTH",
"188 1149 LINE",
"188 240 LINE",
"101 240 LINE SMOOTH",
"64 240 OFFCURVE",
"49 219 OFFCURVE",
"49 119 CURVE SMOOTH",
"49 20 OFFCURVE",
"64 0 OFFCURVE",
"101 0 CURVE SMOOTH",
"473 0 LINE SMOOTH",
"509 0 OFFCURVE",
"524 20 OFFCURVE",
"524 119 CURVE SMOOTH",
"524 219 OFFCURVE",
"509 240 OFFCURVE",
"473 240 CURVE SMOOTH",
"393 240 LINE",
"393 540 LINE",
"446 540 LINE SMOOTH",
"503 540 OFFCURVE",
"543 511 OFFCURVE",
"577 445 CURVE SMOOTH",
"623 353 OFFCURVE",
"644 252 OFFCURVE",
"680 163 CURVE SMOOTH",
"724 49 OFFCURVE",
"771 0 OFFCURVE",
"859 0 CURVE SMOOTH",
"939 0 LINE SMOOTH",
"975 0 OFFCURVE",
"990 20 OFFCURVE",
"990 119 CURVE SMOOTH",
"990 219 OFFCURVE",
"975 240 OFFCURVE",
"939 240 CURVE SMOOTH",
"922 240 LINE SMOOTH",
"893 240 OFFCURVE",
"873 270 OFFCURVE",
"853 317 CURVE SMOOTH",
"824 387 OFFCURVE",
"798 477 OFFCURVE",
"758 551 CURVE SMOOTH",
"738 585 OFFCURVE",
"714 609 OFFCURVE",
"687 624 CURVE",
"818 669 OFFCURVE",
"891 778 OFFCURVE",
"891 964 CURVE SMOOTH",
"891 1242 OFFCURVE",
"762 1389 OFFCURVE",
"532 1389 CURVE SMOOTH"
);
},
{
closed = 1;
nodes = (
"627 1138 OFFCURVE",
"679 1080 OFFCURVE",
"679 964 CURVE SMOOTH",
"679 848 OFFCURVE",
"627 791 OFFCURVE",
"515 791 CURVE SMOOTH",
"393 791 LINE",
"393 1138 LINE",
"515 1138 LINE SMOOTH"
);
}
);
width = 1006;
}
);
unicode = 0052;
},
{
glyphname = S;
lastChange = "2026-02-27 13:18:02 +0000";
layers = (
{
layerId = UUID0;
paths = (
{
closed = 1;
nodes = (
"727 1415 OFFCURVE",
"712 1393 OFFCURVE",
"712 1339 CURVE SMOOTH",
"712 1267 LINE",
"648 1355 OFFCURVE",
"556 1415 OFFCURVE",
"458 1415 CURVE SMOOTH",
"272 1415 OFFCURVE",
"138 1266 OFFCURVE",
"138 1022 CURVE SMOOTH",
"138 857 OFFCURVE",
"197 770 OFFCURVE",
"277 719 CURVE SMOOTH",
"389 647 OFFCURVE",
"542 640 OFFCURVE",
"642 579 CURVE SMOOTH",
"703 542 OFFCURVE",
"743 486 OFFCURVE",
"743 383 CURVE SMOOTH",
"743 245 OFFCURVE",
"669 147 OFFCURVE",
"525 147 CURVE SMOOTH",
"383 147 OFFCURVE",
"283 248 OFFCURVE",
"239 428 CURVE SMOOTH",
"231 461 OFFCURVE",
"214 477 OFFCURVE",
"191 477 CURVE SMOOTH",
"145 477 OFFCURVE",
"130 455 OFFCURVE",
"130 401 CURVE SMOOTH",
"130 50 LINE SMOOTH",
"130 -4 OFFCURVE",
"145 -26 OFFCURVE",
"191 -26 CURVE SMOOTH",
"236 -26 OFFCURVE",
"253 -4 OFFCURVE",
"253 50 CURVE SMOOTH",
"253 142 LINE",
"321 32 OFFCURVE",
"417 -26 OFFCURVE",
"525 -26 CURVE SMOOTH",
"750 -26 OFFCURVE",
"873 142 OFFCURVE",
"873 383 CURVE SMOOTH",
"873 592 OFFCURVE",
"796 692 OFFCURVE",
"697 749 CURVE SMOOTH",
"576 819 OFFCURVE",
"421 823 OFFCURVE",
"335 885 CURVE SMOOTH",
"294 914 OFFCURVE",
"268 955 OFFCURVE",
"268 1022 CURVE SMOOTH",
"268 1153 OFFCURVE",
"335 1242 OFFCURVE",
"458 1242 CURVE SMOOTH",
"577 1242 OFFCURVE",
"676 1168 OFFCURVE",
"730 1024 CURVE SMOOTH",
"738 1003 OFFCURVE",
"752 994 OFFCURVE",
"772 994 CURVE SMOOTH",
"818 994 OFFCURVE",
"834 1016 OFFCURVE",
"834 1070 CURVE SMOOTH",
"834 1339 LINE SMOOTH",
"834 1393 OFFCURVE",
"818 1415 OFFCURVE",
"772 1415 CURVE SMOOTH"
);
}
);
width = 1006;
},
{
layerId = "8538028E-5D6C-4318-9676-30148CDA39CA";
paths = (
{
closed = 1;
nodes = (
"681 1415 OFFCURVE",
"659 1394 OFFCURVE",
"659 1341 CURVE SMOOTH",
"659 1298 LINE",
"605 1373 OFFCURVE",
"529 1415 OFFCURVE",
"441 1415 CURVE SMOOTH",
"250 1415 OFFCURVE",
"122 1239 OFFCURVE",
"122 990 CURVE SMOOTH",
"122 815 OFFCURVE",
"179 721 OFFCURVE",
"255 664 CURVE SMOOTH",
"366 580 OFFCURVE",
"521 577 OFFCURVE",
"607 516 CURVE SMOOTH",
"648 488 OFFCURVE",
"673 448 OFFCURVE",
"673 383 CURVE SMOOTH",
"673 286 OFFCURVE",
"624 224 OFFCURVE",
"525 224 CURVE SMOOTH",
"415 224 OFFCURVE",
"335 308 OFFCURVE",
"277 466 CURVE SMOOTH",
"264 500 OFFCURVE",
"245 513 OFFCURVE",
"206 513 CURVE SMOOTH",
"152 513 OFFCURVE",
"130 492 OFFCURVE",
"130 439 CURVE SMOOTH",
"130 48 LINE SMOOTH",
"130 -5 OFFCURVE",
"157 -26 OFFCURVE",
"227 -26 CURVE SMOOTH",
"296 -26 OFFCURVE",
"318 -5 OFFCURVE",
"318 48 CURVE SMOOTH",
"318 92 LINE",
"382 15 OFFCURVE",
"460 -26 OFFCURVE",
"550 -26 CURVE SMOOTH",
"779 -26 OFFCURVE",
"891 150 OFFCURVE",
"891 403 CURVE SMOOTH",
"891 595 OFFCURVE",
"834 703 OFFCURVE",
"760 769 CURVE SMOOTH",
"644 870 OFFCURVE",
"480 868 OFFCURVE",
"394 916 CURVE SMOOTH",
"359 936 OFFCURVE",
"337 963 OFFCURVE",
"337 1010 CURVE SMOOTH",
"337 1099 OFFCURVE",
"384 1166 OFFCURVE",
"466 1166 CURVE SMOOTH",
"573 1166 OFFCURVE",
"654 1097 OFFCURVE",
"705 984 CURVE SMOOTH",
"716 960 OFFCURVE",
"735 947 OFFCURVE",
"771 947 CURVE SMOOTH",
"825 947 OFFCURVE",
"847 968 OFFCURVE",
"847 1020 CURVE SMOOTH",
"847 1341 LINE SMOOTH",
"847 1394 OFFCURVE",
"820 1415 OFFCURVE",
"750 1415 CURVE SMOOTH"
);
}
);
width = 1006;
}
);
unicode = 0053;
},
{
glyphname = T;
lastChange = "2026-02-27 13:18:02 +0000";
layers = (
{
layerId = UUID0;
paths = (
{
closed = 1;
nodes = (
"152 1389 LINE SMOOTH",
"115 1389 OFFCURVE",
"99 1368 OFFCURVE",
"99 1310 CURVE SMOOTH",
"99 868 LINE SMOOTH",
"99 815 OFFCURVE",
"116 792 OFFCURVE",
"161 792 CURVE SMOOTH",
"207 792 OFFCURVE",
"222 815 OFFCURVE",
"222 868 CURVE SMOOTH",
"222 1230 LINE",
"441 1230 LINE",
"441 159 LINE",
"248 159 LINE SMOOTH",
"212 159 OFFCURVE",
"197 138 OFFCURVE",
"197 80 CURVE SMOOTH",
"197 21 OFFCURVE",
"212 0 OFFCURVE",
"248 0 CURVE SMOOTH",
"758 0 LINE SMOOTH",
"795 0 OFFCURVE",
"810 21 OFFCURVE",
"810 80 CURVE SMOOTH",
"810 138 OFFCURVE",
"795 159 OFFCURVE",
"758 159 CURVE SMOOTH",
"564 159 LINE",
"564 1230 LINE",
"783 1230 LINE",
"783 868 LINE SMOOTH",
"783 815 OFFCURVE",
"799 792 OFFCURVE",
"845 792 CURVE SMOOTH",
"891 792 OFFCURVE",
"906 815 OFFCURVE",
"906 868 CURVE SMOOTH",
"906 1310 LINE SMOOTH",
"906 1368 OFFCURVE",
"892 1389 OFFCURVE",
"854 1389 CURVE SMOOTH"
);
}
);
width = 1006;
},
{
layerId = "8538028E-5D6C-4318-9676-30148CDA39CA";
paths = (
{
closed = 1;
nodes = (
"133 1389 LINE SMOOTH",
"96 1389 OFFCURVE",
"81 1367 OFFCURVE",
"81 1313 CURVE SMOOTH",
"81 819 LINE SMOOTH",
"81 767 OFFCURVE",
"99 745 OFFCURVE",
"160 745 CURVE SMOOTH",
"222 745 OFFCURVE",
"253 767 OFFCURVE",
"253 819 CURVE SMOOTH",
"253 1138 LINE",
"400 1138 LINE",
"400 240 LINE",
"224 240 LINE SMOOTH",
"187 240 OFFCURVE",
"172 219 OFFCURVE",
"172 119 CURVE SMOOTH",
"172 20 OFFCURVE",
"187 0 OFFCURVE",
"224 0 CURVE SMOOTH",
"783 0 LINE SMOOTH",
"819 0 OFFCURVE",
"834 20 OFFCURVE",
"834 119 CURVE SMOOTH",
"834 219 OFFCURVE",
"819 240 OFFCURVE",
"783 240 CURVE SMOOTH",
"605 240 LINE",
"605 1138 LINE",
"754 1138 LINE",
"754 819 LINE SMOOTH",
"754 767 OFFCURVE",
"772 745 OFFCURVE",
"834 745 CURVE SMOOTH",
"895 745 OFFCURVE",
"926 767 OFFCURVE",
"926 819 CURVE SMOOTH",
"926 1313 LINE SMOOTH",
"926 1367 OFFCURVE",
"910 1389 OFFCURVE",
"873 1389 CURVE SMOOTH"
);
}
);
width = 1006;
}
);
unicode = 0054;
},
{
glyphname = U;
lastChange = "2026-02-27 13:18:02 +0000";
layers = (
{
layerId = UUID0;
paths = (
{
closed = 1;
nodes = (
"632 1389 LINE SMOOTH",
"595 1389 OFFCURVE",
"580 1368 OFFCURVE",
"580 1310 CURVE SMOOTH",
"580 1251 OFFCURVE",
"595 1230 OFFCURVE",
"632 1230 CURVE SMOOTH",
"723 1230 LINE",
"723 483 LINE SMOOTH",
"723 240 OFFCURVE",
"652 147 OFFCURVE",
"503 147 CURVE SMOOTH",
"353 147 OFFCURVE",
"283 240 OFFCURVE",
"283 483 CURVE SMOOTH",
"283 1230 LINE",
"374 1230 LINE SMOOTH",
"411 1230 OFFCURVE",
"426 1251 OFFCURVE",
"426 1310 CURVE SMOOTH",
"426 1368 OFFCURVE",
"411 1389 OFFCURVE",
"374 1389 CURVE SMOOTH",
"109 1389 LINE SMOOTH",
"73 1389 OFFCURVE",
"57 1368 OFFCURVE",
"57 1310 CURVE SMOOTH",
"57 1251 OFFCURVE",
"73 1230 OFFCURVE",
"109 1230 CURVE SMOOTH",
"160 1230 LINE",
"160 460 LINE SMOOTH",
"160 126 OFFCURVE",
"290 -26 OFFCURVE",
"503 -26 CURVE SMOOTH",
"716 -26 OFFCURVE",
"846 126 OFFCURVE",
"846 460 CURVE SMOOTH",
"846 1230 LINE",
"898 1230 LINE SMOOTH",
"934 1230 OFFCURVE",
"949 1251 OFFCURVE",
"949 1310 CURVE SMOOTH",
"949 1368 OFFCURVE",
"934 1389 OFFCURVE",
"898 1389 CURVE SMOOTH"
);
}
);
width = 1006;
},
{
layerId = "8538028E-5D6C-4318-9676-30148CDA39CA";
paths = (
{
closed = 1;
nodes = (
"607 1389 LINE SMOOTH",
"570 1389 OFFCURVE",
"556 1368 OFFCURVE",
"556 1269 CURVE SMOOTH",
"556 1169 OFFCURVE",
"570 1149 OFFCURVE",
"607 1149 CURVE SMOOTH",
"671 1149 LINE",
"671 507 LINE SMOOTH",
"671 319 OFFCURVE",
"600 240 OFFCURVE",
"503 240 CURVE SMOOTH",
"406 240 OFFCURVE",
"336 319 OFFCURVE",
"336 507 CURVE SMOOTH",
"336 1149 LINE",
"399 1149 LINE SMOOTH",
"435 1149 OFFCURVE",
"451 1169 OFFCURVE",
"451 1269 CURVE SMOOTH",
"451 1368 OFFCURVE",
"435 1389 OFFCURVE",
"399 1389 CURVE SMOOTH",
"92 1389 LINE SMOOTH",
"56 1389 OFFCURVE",
"41 1368 OFFCURVE",
"41 1269 CURVE SMOOTH",
"41 1169 OFFCURVE",
"56 1149 OFFCURVE",
"92 1149 CURVE SMOOTH",
"131 1149 LINE",
"131 483 LINE SMOOTH",
"131 156 OFFCURVE",
"274 -26 OFFCURVE",
"503 -26 CURVE SMOOTH",
"733 -26 OFFCURVE",
"875 156 OFFCURVE",
"875 483 CURVE SMOOTH",
"875 1149 LINE",
"914 1149 LINE SMOOTH",
"950 1149 OFFCURVE",
"965 1169 OFFCURVE",
"965 1269 CURVE SMOOTH",
"965 1368 OFFCURVE",
"950 1389 OFFCURVE",
"914 1389 CURVE SMOOTH"
);
}
);
width = 1006;
}
);
unicode = 0055;
},
{
glyphname = V;
lastChange = "2026-02-27 13:18:02 +0000";
layers = (
{
layerId = UUID0;
paths = (
{
closed = 1;
nodes = (
"673 1389 LINE SMOOTH",
"635 1389 OFFCURVE",
"621 1368 OFFCURVE",
"621 1310 CURVE SMOOTH",
"621 1251 OFFCURVE",
"635 1230 OFFCURVE",
"673 1230 CURVE SMOOTH",
"755 1230 LINE",
"501 195 LINE",
"250 1230 LINE",
"366 1230 LINE SMOOTH",
"403 1230 OFFCURVE",
"418 1251 OFFCURVE",
"418 1310 CURVE SMOOTH",
"418 1368 OFFCURVE",
"403 1389 OFFCURVE",
"366 1389 CURVE SMOOTH",
"60 1389 LINE SMOOTH",
"23 1389 OFFCURVE",
"8 1368 OFFCURVE",
"8 1310 CURVE SMOOTH",
"8 1251 OFFCURVE",
"23 1230 OFFCURVE",
"60 1230 CURVE SMOOTH",
"122 1230 LINE",
"414 50 LINE SMOOTH",
"427 -4 OFFCURVE",
"454 -26 OFFCURVE",
"501 -26 CURVE SMOOTH",
"548 -26 OFFCURVE",
"575 -5 OFFCURVE",
"589 50 CURVE SMOOTH",
"884 1230 LINE",
"947 1230 LINE SMOOTH",
"983 1230 OFFCURVE",
"998 1251 OFFCURVE",
"998 1310 CURVE SMOOTH",
"998 1368 OFFCURVE",
"983 1389 OFFCURVE",
"947 1389 CURVE SMOOTH"
);
}
);
width = 1006;
},
{
layerId = "8538028E-5D6C-4318-9676-30148CDA39CA";
paths = (
{
closed = 1;
nodes = (
"632 1389 LINE SMOOTH",
"595 1389 OFFCURVE",
"580 1368 OFFCURVE",
"580 1269 CURVE SMOOTH",
"580 1169 OFFCURVE",
"595 1149 OFFCURVE",
"632 1149 CURVE SMOOTH",
"689 1149 LINE",
"502 432 LINE",
"327 1149 LINE",
"399 1149 LINE SMOOTH",
"435 1149 OFFCURVE",
"451 1169 OFFCURVE",
"451 1269 CURVE SMOOTH",
"451 1368 OFFCURVE",
"435 1389 OFFCURVE",
"399 1389 CURVE SMOOTH",
"43 1389 LINE SMOOTH",
"7 1389 OFFCURVE",
"-8 1368 OFFCURVE",
"-8 1269 CURVE SMOOTH",
"-8 1169 OFFCURVE",
"7 1149 OFFCURVE",
"43 1149 CURVE SMOOTH",
"106 1149 LINE",
"393 50 LINE SMOOTH",
"407 -4 OFFCURVE",
"433 -26 OFFCURVE",
"501 -26 CURVE SMOOTH",
"569 -26 OFFCURVE",
"595 -5 OFFCURVE",
"610 50 CURVE SMOOTH",
"907 1149 LINE",
"963 1149 LINE SMOOTH",
"999 1149 OFFCURVE",
"1015 1169 OFFCURVE",
"1015 1269 CURVE SMOOTH",
"1015 1368 OFFCURVE",
"999 1389 OFFCURVE",
"963 1389 CURVE SMOOTH"
);
}
);
width = 1006;
}
);
unicode = 0056;
},
{
glyphname = W;
lastChange = "2026-02-27 13:18:02 +0000";
layers = (
{
layerId = UUID0;
paths = (
{
closed = 1;
nodes = (
"697 1389 LINE SMOOTH",
"660 1389 OFFCURVE",
"646 1368 OFFCURVE",
"646 1310 CURVE SMOOTH",
"646 1251 OFFCURVE",
"660 1230 OFFCURVE",
"697 1230 CURVE SMOOTH",
"799 1230 LINE",
"714 293 LINE",
"561 989 LINE SMOOTH",
"554 1019 OFFCURVE",
"537 1036 OFFCURVE",
"501 1036 CURVE SMOOTH",
"466 1036 OFFCURVE",
"448 1011 OFFCURVE",
"441 981 CURVE SMOOTH",
"288 293 LINE",
"206 1230 LINE",
"325 1230 LINE SMOOTH",
"362 1230 OFFCURVE",
"377 1251 OFFCURVE",
"377 1310 CURVE SMOOTH",
"377 1368 OFFCURVE",
"362 1389 OFFCURVE",
"325 1389 CURVE SMOOTH",
"43 1389 LINE SMOOTH",
"7 1389 OFFCURVE",
"-8 1368 OFFCURVE",
"-8 1310 CURVE SMOOTH",
"-8 1251 OFFCURVE",
"7 1230 OFFCURVE",
"43 1230 CURVE SMOOTH",
"83 1230 LINE",
"193 50 LINE SMOOTH",
"198 -6 OFFCURVE",
"220 -26 OFFCURVE",
"261 -26 CURVE SMOOTH",
"303 -26 OFFCURVE",
"335 -4 OFFCURVE",
"346 50 CURVE SMOOTH",
"500 730 LINE",
"652 50 LINE SMOOTH",
"662 -4 OFFCURVE",
"693 -26 OFFCURVE",
"735 -26 CURVE SMOOTH",
"777 -26 OFFCURVE",
"799 -7 OFFCURVE",
"805 50 CURVE SMOOTH",
"919 1230 LINE",
"963 1230 LINE SMOOTH",
"999 1230 OFFCURVE",
"1015 1251 OFFCURVE",
"1015 1310 CURVE SMOOTH",
"1015 1368 OFFCURVE",
"999 1389 OFFCURVE",
"963 1389 CURVE SMOOTH"
);
}
);
width = 1006;
},
{
layerId = "8538028E-5D6C-4318-9676-30148CDA39CA";
paths = (
{
closed = 1;
nodes = (
"665 1389 LINE SMOOTH",
"627 1389 OFFCURVE",
"613 1368 OFFCURVE",
"613 1269 CURVE SMOOTH",
"613 1169 OFFCURVE",
"627 1149 OFFCURVE",
"665 1149 CURVE SMOOTH",
"749 1149 LINE",
"705 466 LINE",
"584 975 LINE",
"578 1005 OFFCURVE",
"558 1022 OFFCURVE",
"502 1022 CURVE SMOOTH",
"447 1022 OFFCURVE",
"432 997 OFFCURVE",
"425 967 CURVE",
"305 466 LINE",
"262 1149 LINE",
"358 1149 LINE SMOOTH",
"394 1149 OFFCURVE",
"410 1169 OFFCURVE",
"410 1269 CURVE SMOOTH",
"410 1368 OFFCURVE",
"394 1389 OFFCURVE",
"358 1389 CURVE SMOOTH",
"35 1389 LINE SMOOTH",
"-1 1389 OFFCURVE",
"-16 1368 OFFCURVE",
"-16 1269 CURVE SMOOTH",
"-16 1169 OFFCURVE",
"-1 1149 OFFCURVE",
"35 1149 CURVE SMOOTH",
"76 1149 LINE",
"156 50 LINE SMOOTH",
"160 -6 OFFCURVE",
"179 -26 OFFCURVE",
"253 -26 CURVE SMOOTH",
"328 -26 OFFCURVE",
"353 -4 OFFCURVE",
"367 50 CURVE SMOOTH",
"500 602 LINE",
"631 50 LINE SMOOTH",
"644 -2 OFFCURVE",
"668 -26 OFFCURVE",
"743 -26 CURVE SMOOTH",
"818 -26 OFFCURVE",
"838 -7 OFFCURVE",
"843 50 CURVE SMOOTH",
"925 1149 LINE",
"971 1149 LINE SMOOTH",
"1008 1149 OFFCURVE",
"1023 1169 OFFCURVE",
"1023 1269 CURVE SMOOTH",
"1023 1368 OFFCURVE",
"1008 1389 OFFCURVE",
"971 1389 CURVE SMOOTH"
);
}
);
width = 1006;
}
);
unicode = 0057;
},
{
glyphname = X;
lastChange = "2026-02-27 13:18:02 +0000";
layers = (
{
layerId = UUID0;
paths = (
{
closed = 1;
nodes = (
"640 1389 LINE SMOOTH",
"603 1389 OFFCURVE",
"589 1368 OFFCURVE",
"589 1310 CURVE SMOOTH",
"589 1251 OFFCURVE",
"603 1230 OFFCURVE",
"640 1230 CURVE SMOOTH",
"689 1230 LINE",
"507 860 LINE",
"327 1230 LINE",
"399 1230 LINE SMOOTH",
"435 1230 OFFCURVE",
"451 1251 OFFCURVE",
"451 1310 CURVE SMOOTH",
"451 1368 OFFCURVE",
"435 1389 OFFCURVE",
"399 1389 CURVE SMOOTH",
"117 1389 LINE SMOOTH",
"81 1389 OFFCURVE",
"66 1368 OFFCURVE",
"66 1310 CURVE SMOOTH",
"66 1251 OFFCURVE",
"81 1230 OFFCURVE",
"117 1230 CURVE SMOOTH",
"173 1230 LINE",
"429 724 LINE",
"144 159 LINE",
"92 159 LINE SMOOTH",
"56 159 OFFCURVE",
"41 138 OFFCURVE",
"41 80 CURVE SMOOTH",
"41 21 OFFCURVE",
"56 0 OFFCURVE",
"92 0 CURVE SMOOTH",
"358 0 LINE SMOOTH",
"394 0 OFFCURVE",
"410 21 OFFCURVE",
"410 80 CURVE SMOOTH",
"410 138 OFFCURVE",
"394 159 OFFCURVE",
"358 159 CURVE SMOOTH",
"290 159 LINE",
"504 586 LINE",
"713 159 LINE",
"624 159 LINE SMOOTH",
"586 159 OFFCURVE",
"572 138 OFFCURVE",
"572 80 CURVE SMOOTH",
"572 21 OFFCURVE",
"586 0 OFFCURVE",
"624 0 CURVE SMOOTH",
"914 0 LINE SMOOTH",
"950 0 OFFCURVE",
"965 21 OFFCURVE",
"965 80 CURVE SMOOTH",
"965 138 OFFCURVE",
"950 159 OFFCURVE",
"914 159 CURVE SMOOTH",
"866 159 LINE",
"583 722 LINE",
"836 1230 LINE",
"889 1230 LINE SMOOTH",
"926 1230 OFFCURVE",
"941 1251 OFFCURVE",
"941 1310 CURVE SMOOTH",
"941 1368 OFFCURVE",
"926 1389 OFFCURVE",
"889 1389 CURVE SMOOTH"
);
}
);
width = 1006;
},
{
layerId = "8538028E-5D6C-4318-9676-30148CDA39CA";
paths = (
{
closed = 1;
nodes = (
"607 1389 LINE SMOOTH",
"570 1389 OFFCURVE",
"556 1368 OFFCURVE",
"556 1269 CURVE SMOOTH",
"556 1169 OFFCURVE",
"570 1149 OFFCURVE",
"607 1149 CURVE SMOOTH",
"627 1149 LINE",
"508 905 LINE",
"389 1149 LINE",
"424 1149 LINE SMOOTH",
"460 1149 OFFCURVE",
"475 1169 OFFCURVE",
"475 1269 CURVE SMOOTH",
"475 1368 OFFCURVE",
"460 1389 OFFCURVE",
"424 1389 CURVE SMOOTH",
"101 1389 LINE SMOOTH",
"64 1389 OFFCURVE",
"49 1368 OFFCURVE",
"49 1269 CURVE SMOOTH",
"49 1169 OFFCURVE",
"64 1149 OFFCURVE",
"101 1149 CURVE SMOOTH",
"150 1149 LINE",
"365 720 LINE",
"128 240 LINE",
"76 240 LINE SMOOTH",
"40 240 OFFCURVE",
"25 219 OFFCURVE",
"25 119 CURVE SMOOTH",
"25 20 OFFCURVE",
"40 0 OFFCURVE",
"76 0 CURVE SMOOTH",
"391 0 LINE SMOOTH",
"427 0 OFFCURVE",
"442 20 OFFCURVE",
"442 119 CURVE SMOOTH",
"442 219 OFFCURVE",
"427 240 OFFCURVE",
"391 240 CURVE SMOOTH",
"359 240 LINE",
"500 525 LINE",
"641 240 LINE",
"599 240 LINE SMOOTH",
"562 240 OFFCURVE",
"548 219 OFFCURVE",
"548 119 CURVE SMOOTH",
"548 20 OFFCURVE",
"562 0 OFFCURVE",
"599 0 CURVE SMOOTH",
"930 0 LINE SMOOTH",
"967 0 OFFCURVE",
"982 20 OFFCURVE",
"982 119 CURVE SMOOTH",
"982 219 OFFCURVE",
"967 240 OFFCURVE",
"930 240 CURVE SMOOTH",
"880 240 LINE",
"641 707 LINE",
"859 1149 LINE",
"906 1149 LINE SMOOTH",
"942 1149 OFFCURVE",
"957 1169 OFFCURVE",
"957 1269 CURVE SMOOTH",
"957 1368 OFFCURVE",
"942 1389 OFFCURVE",
"906 1389 CURVE SMOOTH"
);
}
);
width = 1006;
}
);
unicode = 0058;
},
{
glyphname = Y;
lastChange = "2026-02-27 13:18:02 +0000";
layers = (
{
layerId = UUID0;
paths = (
{
closed = 1;
nodes = (
"657 1389 LINE SMOOTH",
"619 1389 OFFCURVE",
"605 1368 OFFCURVE",
"605 1310 CURVE SMOOTH",
"605 1251 OFFCURVE",
"619 1230 OFFCURVE",
"657 1230 CURVE SMOOTH",
"709 1230 LINE",
"503 751 LINE",
"298 1230 LINE",
"374 1230 LINE SMOOTH",
"411 1230 OFFCURVE",
"426 1251 OFFCURVE",
"426 1310 CURVE SMOOTH",
"426 1368 OFFCURVE",
"411 1389 OFFCURVE",
"374 1389 CURVE SMOOTH",
"101 1389 LINE SMOOTH",
"64 1389 OFFCURVE",
"49 1368 OFFCURVE",
"49 1310 CURVE SMOOTH",
"49 1251 OFFCURVE",
"64 1230 OFFCURVE",
"101 1230 CURVE SMOOTH",
"158 1230 LINE",
"441 576 LINE",
"441 159 LINE",
"256 159 LINE SMOOTH",
"220 159 OFFCURVE",
"205 138 OFFCURVE",
"205 80 CURVE SMOOTH",
"205 21 OFFCURVE",
"220 0 OFFCURVE",
"256 0 CURVE SMOOTH",
"750 0 LINE SMOOTH",
"786 0 OFFCURVE",
"802 21 OFFCURVE",
"802 80 CURVE SMOOTH",
"802 138 OFFCURVE",
"786 159 OFFCURVE",
"750 159 CURVE SMOOTH",
"564 159 LINE",
"564 576 LINE",
"850 1230 LINE",
"906 1230 LINE SMOOTH",
"942 1230 OFFCURVE",
"957 1251 OFFCURVE",
"957 1310 CURVE SMOOTH",
"957 1368 OFFCURVE",
"942 1389 OFFCURVE",
"906 1389 CURVE SMOOTH"
);
}
);
width = 1006;
},
{
layerId = "8538028E-5D6C-4318-9676-30148CDA39CA";
paths = (
{
closed = 1;
nodes = (
"616 1389 LINE SMOOTH",
"578 1389 OFFCURVE",
"564 1368 OFFCURVE",
"564 1269 CURVE SMOOTH",
"564 1169 OFFCURVE",
"578 1149 OFFCURVE",
"616 1149 CURVE SMOOTH",
"659 1149 LINE",
"504 807 LINE",
"352 1149 LINE",
"407 1149 LINE SMOOTH",
"444 1149 OFFCURVE",
"459 1169 OFFCURVE",
"459 1269 CURVE SMOOTH",
"459 1368 OFFCURVE",
"444 1389 OFFCURVE",
"407 1389 CURVE SMOOTH",
"84 1389 LINE SMOOTH",
"48 1389 OFFCURVE",
"33 1368 OFFCURVE",
"33 1269 CURVE SMOOTH",
"33 1169 OFFCURVE",
"48 1149 OFFCURVE",
"84 1149 CURVE SMOOTH",
"122 1149 LINE",
"400 538 LINE",
"400 240 LINE",
"240 240 LINE SMOOTH",
"204 240 OFFCURVE",
"188 219 OFFCURVE",
"188 119 CURVE SMOOTH",
"188 20 OFFCURVE",
"204 0 OFFCURVE",
"240 0 CURVE SMOOTH",
"767 0 LINE SMOOTH",
"803 0 OFFCURVE",
"818 20 OFFCURVE",
"818 119 CURVE SMOOTH",
"818 219 OFFCURVE",
"803 240 OFFCURVE",
"767 240 CURVE SMOOTH",
"605 240 LINE",
"605 537 LINE",
"886 1149 LINE",
"922 1149 LINE SMOOTH",
"958 1149 OFFCURVE",
"974 1169 OFFCURVE",
"974 1269 CURVE SMOOTH",
"974 1368 OFFCURVE",
"958 1389 OFFCURVE",
"922 1389 CURVE SMOOTH"
);
}
);
width = 1006;
}
);
unicode = 0059;
},
{
glyphname = Z;
lastChange = "2026-02-27 13:18:02 +0000";
layers = (
{
layerId = UUID0;
paths = (
{
closed = 1;
nodes = (
"206 1389 LINE SMOOTH",
"169 1389 OFFCURVE",
"154 1368 OFFCURVE",
"154 1310 CURVE SMOOTH",
"154 939 LINE SMOOTH",
"154 885 OFFCURVE",
"170 863 OFFCURVE",
"215 863 CURVE SMOOTH",
"261 863 OFFCURVE",
"277 885 OFFCURVE",
"277 939 CURVE SMOOTH",
"277 1230 LINE",
"688 1230 LINE",
"149 130 LINE SMOOTH",
"142 116 OFFCURVE",
"137 101 OFFCURVE",
"137 80 CURVE SMOOTH",
"137 21 OFFCURVE",
"152 0 OFFCURVE",
"188 0 CURVE SMOOTH",
"816 0 LINE SMOOTH",
"853 0 OFFCURVE",
"867 21 OFFCURVE",
"867 80 CURVE SMOOTH",
"867 474 LINE SMOOTH",
"867 528 OFFCURVE",
"852 550 OFFCURVE",
"806 550 CURVE SMOOTH",
"761 550 OFFCURVE",
"744 528 OFFCURVE",
"744 474 CURVE SMOOTH",
"744 159 LINE",
"309 159 LINE",
"852 1264 LINE SMOOTH",
"858 1276 OFFCURVE",
"860 1291 OFFCURVE",
"860 1310 CURVE SMOOTH",
"860 1368 OFFCURVE",
"845 1389 OFFCURVE",
"809 1389 CURVE SMOOTH"
);
}
);
width = 1006;
},
{
layerId = "8538028E-5D6C-4318-9676-30148CDA39CA";
paths = (
{
closed = 1;
nodes = (
"191 1389 LINE SMOOTH",
"153 1389 OFFCURVE",
"138 1367 OFFCURVE",
"138 1313 CURVE SMOOTH",
"138 901 LINE SMOOTH",
"138 848 OFFCURVE",
"157 827 OFFCURVE",
"226 827 CURVE SMOOTH",
"296 827 OFFCURVE",
"327 848 OFFCURVE",
"327 901 CURVE SMOOTH",
"327 1138 LINE",
"599 1138 LINE",
"130 228 LINE SMOOTH",
"118 206 OFFCURVE",
"114 172 OFFCURVE",
"114 119 CURVE SMOOTH",
"114 20 OFFCURVE",
"128 0 OFFCURVE",
"165 0 CURVE SMOOTH",
"832 0 LINE SMOOTH",
"870 0 OFFCURVE",
"885 22 OFFCURVE",
"885 76 CURVE SMOOTH",
"885 511 LINE SMOOTH",
"885 564 OFFCURVE",
"866 585 OFFCURVE",
"796 585 CURVE SMOOTH",
"727 585 OFFCURVE",
"696 564 OFFCURVE",
"696 511 CURVE SMOOTH",
"696 252 LINE",
"396 252 LINE",
"866 1161 LINE SMOOTH",
"878 1184 OFFCURVE",
"885 1218 OFFCURVE",
"885 1269 CURVE SMOOTH",
"885 1368 OFFCURVE",
"870 1389 OFFCURVE",
"833 1389 CURVE SMOOTH"
);
}
);
width = 1006;
}
);
unicode = 005A;
},
{
glyphname = bracketleft;
lastChange = "2026-02-27 13:18:02 +0000";
layers = (
{
layerId = UUID0;
paths = (
{
closed = 1;
nodes = (
"322 1606 LINE SMOOTH",
"286 1606 OFFCURVE",
"270 1585 OFFCURVE",
"270 1526 CURVE SMOOTH",
"270 -310 LINE SMOOTH",
"270 -369 OFFCURVE",
"286 -390 OFFCURVE",
"322 -390 CURVE SMOOTH",
"393 -390 LINE",
"393 1606 LINE"
);
},
{
closed = 1;
nodes = (
"373 -221 LINE",
"373 -390 LINE",
"661 -390 LINE SMOOTH",
"697 -390 OFFCURVE",
"713 -366 OFFCURVE",
"713 -305 CURVE SMOOTH",
"713 -245 OFFCURVE",
"697 -221 OFFCURVE",
"661 -221 CURVE SMOOTH"
);
},
{
closed = 1;
nodes = (
"373 1606 LINE",
"373 1437 LINE",
"661 1437 LINE SMOOTH",
"697 1437 OFFCURVE",
"713 1461 OFFCURVE",
"713 1521 CURVE SMOOTH",
"713 1582 OFFCURVE",
"697 1606 OFFCURVE",
"661 1606 CURVE SMOOTH"
);
}
);
width = 1006;
},
{
layerId = "8538028E-5D6C-4318-9676-30148CDA39CA";
paths = (
{
closed = 1;
nodes = (
"289 1606 LINE SMOOTH",
"253 1606 OFFCURVE",
"238 1585 OFFCURVE",
"238 1532 CURVE SMOOTH",
"238 -316 LINE SMOOTH",
"238 -369 OFFCURVE",
"253 -390 OFFCURVE",
"289 -390 CURVE SMOOTH",
"442 -390 LINE",
"442 1606 LINE"
);
},
{
closed = 1;
nodes = (
"367 -126 LINE",
"367 -390 LINE",
"707 -390 LINE SMOOTH",
"744 -390 OFFCURVE",
"758 -364 OFFCURVE",
"758 -259 CURVE SMOOTH",
"758 -153 OFFCURVE",
"744 -126 OFFCURVE",
"707 -126 CURVE SMOOTH"
);
},
{
closed = 1;
nodes = (
"367 1606 LINE",
"367 1342 LINE",
"707 1342 LINE SMOOTH",
"744 1342 OFFCURVE",
"758 1368 OFFCURVE",
"758 1473 CURVE SMOOTH",
"758 1579 OFFCURVE",
"744 1606 OFFCURVE",
"707 1606 CURVE SMOOTH"
);
}
);
width = 1006;
}
);
unicode = 005B;
},
{
glyphname = backslash;
lastChange = "2026-02-27 13:18:02 +0000";
layers = (
{
layerId = UUID0;
paths = (
{
closed = 1;
nodes = (
"186 1631 OFFCURVE",
"152 1596 OFFCURVE",
"165 1549 CURVE SMOOTH",
"715 -373 LINE SMOOTH",
"722 -398 OFFCURVE",
"742 -415 OFFCURVE",
"769 -415 CURVE SMOOTH",
"820 -415 OFFCURVE",
"854 -380 OFFCURVE",
"841 -334 CURVE SMOOTH",
"291 1589 LINE SMOOTH",
"283 1614 OFFCURVE",
"263 1631 OFFCURVE",
"238 1631 CURVE SMOOTH"
);
}
);
width = 1006;
},
{
layerId = "8538028E-5D6C-4318-9676-30148CDA39CA";
paths = (
{
closed = 1;
nodes = (
"177 1637 OFFCURVE",
"115 1588 OFFCURVE",
"133 1523 CURVE SMOOTH",
"679 -371 LINE SMOOTH",
"689 -405 OFFCURVE",
"712 -421 OFFCURVE",
"747 -421 CURVE SMOOTH",
"829 -421 OFFCURVE",
"892 -372 OFFCURVE",
"873 -307 CURVE SMOOTH",
"327 1587 LINE SMOOTH",
"317 1621 OFFCURVE",
"294 1637 OFFCURVE",
"260 1637 CURVE SMOOTH"
);
}
);
width = 1006;
}
);
unicode = 005C;
},
{
glyphname = bracketright;
lastChange = "2026-02-27 13:18:02 +0000";
layers = (
{
layerId = UUID0;
paths = (
{
closed = 1;
nodes = (
"613 1606 LINE",
"613 -390 LINE",
"685 -390 LINE SMOOTH",
"721 -390 OFFCURVE",
"736 -369 OFFCURVE",
"736 -310 CURVE SMOOTH",
"736 1526 LINE SMOOTH",
"736 1585 OFFCURVE",
"721 1606 OFFCURVE",
"685 1606 CURVE SMOOTH"
);
},
{
closed = 1;
nodes = (
"345 -221 LINE SMOOTH",
"308 -221 OFFCURVE",
"294 -245 OFFCURVE",
"294 -305 CURVE SMOOTH",
"294 -366 OFFCURVE",
"308 -390 OFFCURVE",
"345 -390 CURVE SMOOTH",
"633 -390 LINE",
"633 -221 LINE"
);
},
{
closed = 1;
nodes = (
"345 1606 LINE SMOOTH",
"308 1606 OFFCURVE",
"294 1582 OFFCURVE",
"294 1521 CURVE SMOOTH",
"294 1461 OFFCURVE",
"308 1437 OFFCURVE",
"345 1437 CURVE SMOOTH",
"633 1437 LINE",
"633 1606 LINE"
);
}
);
width = 1006;
},
{
layerId = "8538028E-5D6C-4318-9676-30148CDA39CA";
paths = (
{
closed = 1;
nodes = (
"564 1606 LINE",
"564 -390 LINE",
"717 -390 LINE SMOOTH",
"754 -390 OFFCURVE",
"769 -369 OFFCURVE",
"769 -316 CURVE SMOOTH",
"769 1532 LINE SMOOTH",
"769 1585 OFFCURVE",
"754 1606 OFFCURVE",
"717 1606 CURVE SMOOTH"
);
},
{
closed = 1;
nodes = (
"300 -126 LINE SMOOTH",
"262 -126 OFFCURVE",
"247 -153 OFFCURVE",
"247 -259 CURVE SMOOTH",
"247 -364 OFFCURVE",
"262 -390 OFFCURVE",
"300 -390 CURVE SMOOTH",
"638 -390 LINE",
"638 -126 LINE"
);
},
{
closed = 1;
nodes = (
"300 1606 LINE SMOOTH",
"262 1606 OFFCURVE",
"247 1579 OFFCURVE",
"247 1473 CURVE SMOOTH",
"247 1368 OFFCURVE",
"262 1342 OFFCURVE",
"300 1342 CURVE SMOOTH",
"638 1342 LINE",
"638 1606 LINE"
);
}
);
width = 1006;
}
);
unicode = 005D;
},
{
glyphname = asciicircum;
lastChange = "2026-02-27 13:18:02 +0000";
layers = (
{
layerId = UUID0;
paths = (
{
closed = 1;
nodes = (
"472 1415 OFFCURVE",
"458 1400 OFFCURVE",
"447 1372 CURVE SMOOTH",
"195 680 LINE SMOOTH",
"180 640 OFFCURVE",
"202 610 OFFCURVE",
"231 596 CURVE SMOOTH",
"261 580 OFFCURVE",
"298 585 OFFCURVE",
"309 617 CURVE SMOOTH",
"503 1178 LINE",
"697 617 LINE SMOOTH",
"708 585 OFFCURVE",
"745 580 OFFCURVE",
"775 596 CURVE SMOOTH",
"804 610 OFFCURVE",
"826 640 OFFCURVE",
"811 680 CURVE SMOOTH",
"558 1372 LINE SMOOTH",
"548 1400 OFFCURVE",
"535 1415 OFFCURVE",
"503 1415 CURVE SMOOTH"
);
}
);
width = 1006;
},
{
layerId = "8538028E-5D6C-4318-9676-30148CDA39CA";
paths = (
{
closed = 1;
nodes = (
"455 1415 OFFCURVE",
"433 1400 OFFCURVE",
"422 1372 CURVE SMOOTH",
"163 658 LINE SMOOTH",
"145 611 OFFCURVE",
"187 573 OFFCURVE",
"236 557 CURVE SMOOTH",
"283 541 OFFCURVE",
"337 545 OFFCURVE",
"350 582 CURVE SMOOTH",
"503 1038 LINE",
"657 582 LINE SMOOTH",
"668 545 OFFCURVE",
"722 541 OFFCURVE",
"770 557 CURVE SMOOTH",
"819 573 OFFCURVE",
"861 611 OFFCURVE",
"844 658 CURVE SMOOTH",
"583 1372 LINE SMOOTH",
"573 1400 OFFCURVE",
"550 1415 OFFCURVE",
"503 1415 CURVE SMOOTH"
);
}
);
width = 1006;
}
);
unicode = 005E;
},
{
glyphname = underscore;
lastChange = "2026-02-27 13:18:02 +0000";
layers = (
{
layerId = UUID0;
paths = (
{
closed = 1;
nodes = (
"-4 -295 LINE SMOOTH",
"-16 -295 OFFCURVE",
"-23 -304 OFFCURVE",
"-23 -374 CURVE SMOOTH",
"-23 -445 OFFCURVE",
"-16 -454 OFFCURVE",
"-4 -454 CURVE SMOOTH",
"1010 -454 LINE SMOOTH",
"1023 -454 OFFCURVE",
"1029 -445 OFFCURVE",
"1029 -374 CURVE SMOOTH",
"1029 -304 OFFCURVE",
"1023 -295 OFFCURVE",
"1010 -295 CURVE SMOOTH"
);
}
);
width = 1006;
},
{
layerId = "8538028E-5D6C-4318-9676-30148CDA39CA";
paths = (
{
closed = 1;
nodes = (
"-4 -337 LINE SMOOTH",
"-25 -337 OFFCURVE",
"-32 -358 OFFCURVE",
"-32 -469 CURVE SMOOTH",
"-32 -580 OFFCURVE",
"-25 -600 OFFCURVE",
"-4 -600 CURVE SMOOTH",
"1010 -600 LINE SMOOTH",
"1031 -600 OFFCURVE",
"1037 -580 OFFCURVE",
"1037 -469 CURVE SMOOTH",
"1037 -358 OFFCURVE",
"1031 -337 OFFCURVE",
"1010 -337 CURVE SMOOTH"
);
}
);
width = 1006;
}
);
unicode = 005F;
},
{
glyphname = a;
lastChange = "2026-02-27 13:18:02 +0000";
layers = (
{
layerId = UUID0;
paths = (
{
closed = 1;
nodes = (
"400 1107 OFFCURVE",
"291 1070 OFFCURVE",
"200 1001 CURVE SMOOTH",
"172 980 OFFCURVE",
"160 944 OFFCURVE",
"179 891 CURVE SMOOTH",
"197 837 OFFCURVE",
"219 823 OFFCURVE",
"249 845 CURVE SMOOTH",
"328 902 OFFCURVE",
"420 937 OFFCURVE",
"503 937 CURVE SMOOTH",
"637 937 OFFCURVE",
"692 867 OFFCURVE",
"692 717 CURVE SMOOTH",
"692 618 LINE",
"614 657 OFFCURVE",
"531 678 OFFCURVE",
"442 678 CURVE SMOOTH",
"263 678 OFFCURVE",
"111 578 OFFCURVE",
"111 316 CURVE SMOOTH",
"111 98 OFFCURVE",
"228 -26 OFFCURVE",
"392 -26 CURVE SMOOTH",
"513 -26 OFFCURVE",
"618 42 OFFCURVE",
"703 150 CURVE",
"720 47 OFFCURVE",
"777 0 OFFCURVE",
"845 0 CURVE SMOOTH",
"898 0 LINE SMOOTH",
"934 0 OFFCURVE",
"949 21 OFFCURVE",
"949 80 CURVE SMOOTH",
"949 138 OFFCURVE",
"934 159 OFFCURVE",
"898 159 CURVE SMOOTH",
"868 159 LINE SMOOTH",
"833 159 OFFCURVE",
"815 190 OFFCURVE",
"815 252 CURVE SMOOTH",
"815 717 LINE SMOOTH",
"815 974 OFFCURVE",
"712 1107 OFFCURVE",
"507 1107 CURVE SMOOTH"
);
},
{
closed = 1;
nodes = (
"528 513 OFFCURVE",
"616 495 OFFCURVE",
"692 460 CURVE",
"692 332 LINE",
"611 214 OFFCURVE",
"514 139 OFFCURVE",
"398 139 CURVE SMOOTH",
"298 139 OFFCURVE",
"240 206 OFFCURVE",
"240 319 CURVE SMOOTH",
"240 461 OFFCURVE",
"325 513 OFFCURVE",
"444 513 CURVE SMOOTH"
);
}
);
width = 1006;
},
{
layerId = "8538028E-5D6C-4318-9676-30148CDA39CA";
paths = (
{
closed = 1;
nodes = (
"405 1107 OFFCURVE",
"288 1085 OFFCURVE",
"185 1032 CURVE SMOOTH",
"146 1012 OFFCURVE",
"136 962 OFFCURVE",
"160 868 CURVE SMOOTH",
"184 775 OFFCURVE",
"214 763 OFFCURVE",
"249 779 CURVE SMOOTH",
"324 816 OFFCURVE",
"408 841 OFFCURVE",
"474 841 CURVE SMOOTH",
"595 841 OFFCURVE",
"630 789 OFFCURVE",
"630 688 CURVE SMOOTH",
"630 654 LINE",
"548 678 OFFCURVE",
"472 689 OFFCURVE",
"398 689 CURVE SMOOTH",
"205 689 OFFCURVE",
"90 564 OFFCURVE",
"90 345 CURVE SMOOTH",
"90 117 OFFCURVE",
"201 -26 OFFCURVE",
"389 -26 CURVE SMOOTH",
"493 -26 OFFCURVE",
"590 32 OFFCURVE",
"673 124 CURVE",
"702 35 OFFCURVE",
"758 0 OFFCURVE",
"823 0 CURVE SMOOTH",
"914 0 LINE SMOOTH",
"951 0 OFFCURVE",
"965 20 OFFCURVE",
"965 119 CURVE SMOOTH",
"965 219 OFFCURVE",
"951 240 OFFCURVE",
"914 240 CURVE SMOOTH",
"889 240 LINE SMOOTH",
"853 240 OFFCURVE",
"834 277 OFFCURVE",
"834 339 CURVE SMOOTH",
"834 678 LINE SMOOTH",
"834 941 OFFCURVE",
"744 1107 OFFCURVE",
"494 1107 CURVE SMOOTH"
);
},
{
closed = 1;
nodes = (
"484 448 OFFCURVE",
"554 439 OFFCURVE",
"630 417 CURVE",
"630 342 LINE",
"569 270 OFFCURVE",
"493 221 OFFCURVE",
"414 221 CURVE SMOOTH",
"342 221 OFFCURVE",
"302 260 OFFCURVE",
"302 334 CURVE SMOOTH",
"302 407 OFFCURVE",
"342 448 OFFCURVE",
"419 448 CURVE SMOOTH"
);
}
);
width = 1006;
}
);
unicode = 0061;
},
{
glyphname = b;
lastChange = "2026-02-27 13:18:02 +0000";
layers = (
{
layerId = UUID0;
paths = (
{
closed = 1;
nodes = (
"82 1535 LINE SMOOTH",
"46 1535 OFFCURVE",
"30 1514 OFFCURVE",
"30 1456 CURVE SMOOTH",
"30 1397 OFFCURVE",
"46 1376 OFFCURVE",
"82 1376 CURVE SMOOTH",
"165 1376 LINE",
"165 159 LINE",
"98 159 LINE SMOOTH",
"62 159 OFFCURVE",
"47 138 OFFCURVE",
"47 80 CURVE SMOOTH",
"47 21 OFFCURVE",
"62 0 OFFCURVE",
"98 0 CURVE SMOOTH",
"228 0 LINE SMOOTH",
"266 0 OFFCURVE",
"280 21 OFFCURVE",
"280 80 CURVE SMOOTH",
"280 173 LINE",
"348 48 OFFCURVE",
"439 -26 OFFCURVE",
"548 -26 CURVE SMOOTH",
"750 -26 OFFCURVE",
"902 187 OFFCURVE",
"902 541 CURVE SMOOTH",
"902 894 OFFCURVE",
"750 1107 OFFCURVE",
"548 1107 CURVE SMOOTH",
"439 1107 OFFCURVE",
"353 1033 OFFCURVE",
"288 914 CURVE",
"288 1456 LINE SMOOTH",
"288 1514 OFFCURVE",
"274 1535 OFFCURVE",
"236 1535 CURVE SMOOTH"
);
},
{
closed = 1;
nodes = (
"688 934 OFFCURVE",
"772 770 OFFCURVE",
"772 541 CURVE SMOOTH",
"772 311 OFFCURVE",
"688 147 OFFCURVE",
"540 147 CURVE SMOOTH",
"394 147 OFFCURVE",
"288 293 OFFCURVE",
"288 541 CURVE SMOOTH",
"288 789 OFFCURVE",
"394 934 OFFCURVE",
"540 934 CURVE SMOOTH"
);
}
);
width = 1006;
},
{
layerId = "8538028E-5D6C-4318-9676-30148CDA39CA";
paths = (
{
closed = 1;
nodes = (
"74 1535 LINE SMOOTH",
"37 1535 OFFCURVE",
"22 1514 OFFCURVE",
"22 1415 CURVE SMOOTH",
"22 1315 OFFCURVE",
"37 1296 OFFCURVE",
"74 1296 CURVE SMOOTH",
"153 1296 LINE",
"153 240 LINE",
"90 240 LINE SMOOTH",
"54 240 OFFCURVE",
"39 220 OFFCURVE",
"39 121 CURVE SMOOTH",
"39 21 OFFCURVE",
"54 0 OFFCURVE",
"90 0 CURVE SMOOTH",
"274 0 LINE SMOOTH",
"310 0 OFFCURVE",
"325 21 OFFCURVE",
"325 74 CURVE SMOOTH",
"325 172 LINE",
"382 49 OFFCURVE",
"468 -26 OFFCURVE",
"573 -26 CURVE SMOOTH",
"793 -26 OFFCURVE",
"927 225 OFFCURVE",
"927 541 CURVE SMOOTH",
"927 857 OFFCURVE",
"793 1107 OFFCURVE",
"573 1107 CURVE SMOOTH",
"487 1107 OFFCURVE",
"413 1056 OFFCURVE",
"358 969 CURVE",
"358 1462 LINE SMOOTH",
"358 1514 OFFCURVE",
"343 1535 OFFCURVE",
"307 1535 CURVE SMOOTH"
);
},
{
closed = 1;
nodes = (
"644 841 OFFCURVE",
"707 723 OFFCURVE",
"707 541 CURVE SMOOTH",
"707 358 OFFCURVE",
"644 240 OFFCURVE",
"541 240 CURVE SMOOTH",
"439 240 OFFCURVE",
"352 346 OFFCURVE",
"352 541 CURVE SMOOTH",
"352 735 OFFCURVE",
"439 841 OFFCURVE",
"541 841 CURVE SMOOTH"
);
}
);
width = 1006;
}
);
unicode = 0062;
},
{
glyphname = c;
lastChange = "2026-02-27 13:18:02 +0000";
layers = (
{
layerId = UUID0;
paths = (
{
closed = 1;
nodes = (
"752 1107 OFFCURVE",
"736 1085 OFFCURVE",
"736 1031 CURVE SMOOTH",
"736 961 LINE",
"681 1053 OFFCURVE",
"597 1107 OFFCURVE",
"499 1107 CURVE SMOOTH",
"263 1107 OFFCURVE",
"104 865 OFFCURVE",
"104 541 CURVE SMOOTH",
"104 217 OFFCURVE",
"260 -26 OFFCURVE",
"499 -26 CURVE SMOOTH",
"624 -26 OFFCURVE",
"749 30 OFFCURVE",
"837 124 CURVE SMOOTH",
"868 157 OFFCURVE",
"868 206 OFFCURVE",
"851 248 CURVE SMOOTH",
"827 302 OFFCURVE",
"802 308 OFFCURVE",
"775 277 CURVE SMOOTH",
"696 192 OFFCURVE",
"599 147 OFFCURVE",
"499 147 CURVE SMOOTH",
"339 147 OFFCURVE",
"234 312 OFFCURVE",
"234 541 CURVE SMOOTH",
"234 769 OFFCURVE",
"348 934 OFFCURVE",
"507 934 CURVE SMOOTH",
"657 934 OFFCURVE",
"736 833 OFFCURVE",
"736 692 CURVE SMOOTH",
"736 638 OFFCURVE",
"752 616 OFFCURVE",
"798 616 CURVE SMOOTH",
"844 616 OFFCURVE",
"859 638 OFFCURVE",
"859 692 CURVE SMOOTH",
"859 1031 LINE SMOOTH",
"859 1085 OFFCURVE",
"844 1107 OFFCURVE",
"798 1107 CURVE SMOOTH"
);
}
);
width = 1006;
},
{
layerId = "8538028E-5D6C-4318-9676-30148CDA39CA";
paths = (
{
closed = 1;
nodes = (
"713 1107 OFFCURVE",
"682 1086 OFFCURVE",
"682 1033 CURVE SMOOTH",
"682 970 LINE",
"645 1064 OFFCURVE",
"583 1107 OFFCURVE",
"495 1107 CURVE SMOOTH",
"275 1107 OFFCURVE",
"104 874 OFFCURVE",
"104 541 CURVE SMOOTH",
"104 213 OFFCURVE",
"267 -26 OFFCURVE",
"520 -26 CURVE SMOOTH",
"635 -26 OFFCURVE",
"750 26 OFFCURVE",
"848 103 CURVE SMOOTH",
"882 130 OFFCURVE",
"895 177 OFFCURVE",
"868 269 CURVE SMOOTH",
"841 360 OFFCURVE",
"809 377 OFFCURVE",
"777 350 CURVE SMOOTH",
"696 283 OFFCURVE",
"606 240 OFFCURVE",
"520 240 CURVE SMOOTH",
"400 240 OFFCURVE",
"324 358 OFFCURVE",
"324 541 CURVE SMOOTH",
"324 723 OFFCURVE",
"400 841 OFFCURVE",
"520 841 CURVE SMOOTH",
"617 841 OFFCURVE",
"666 754 OFFCURVE",
"666 658 CURVE SMOOTH",
"666 605 OFFCURVE",
"685 584 OFFCURVE",
"763 584 CURVE SMOOTH",
"840 584 OFFCURVE",
"871 605 OFFCURVE",
"871 658 CURVE SMOOTH",
"871 1033 LINE SMOOTH",
"871 1086 OFFCURVE",
"852 1107 OFFCURVE",
"783 1107 CURVE SMOOTH"
);
}
);
width = 1006;
}
);
unicode = 0063;
},
{
glyphname = d;
lastChange = "2026-02-27 13:18:02 +0000";
layers = (
{
layerId = UUID0;
paths = (
{
closed = 1;
nodes = (
"585 1535 LINE SMOOTH",
"548 1535 OFFCURVE",
"534 1514 OFFCURVE",
"534 1456 CURVE SMOOTH",
"534 1397 OFFCURVE",
"548 1376 OFFCURVE",
"585 1376 CURVE SMOOTH",
"717 1376 LINE",
"717 914 LINE",
"652 1033 OFFCURVE",
"566 1107 OFFCURVE",
"458 1107 CURVE SMOOTH",
"255 1107 OFFCURVE",
"104 894 OFFCURVE",
"104 541 CURVE SMOOTH",
"104 187 OFFCURVE",
"255 -26 OFFCURVE",
"458 -26 CURVE SMOOTH",
"566 -26 OFFCURVE",
"659 48 OFFCURVE",
"726 173 CURVE",
"726 80 LINE SMOOTH",
"726 21 OFFCURVE",
"741 0 OFFCURVE",
"777 0 CURVE SMOOTH",
"908 0 LINE SMOOTH",
"944 0 OFFCURVE",
"960 21 OFFCURVE",
"960 80 CURVE SMOOTH",
"960 138 OFFCURVE",
"944 159 OFFCURVE",
"908 159 CURVE SMOOTH",
"840 159 LINE",
"840 1456 LINE SMOOTH",
"840 1514 OFFCURVE",
"826 1535 OFFCURVE",
"789 1535 CURVE SMOOTH"
);
},
{
closed = 1;
nodes = (
"611 934 OFFCURVE",
"717 789 OFFCURVE",
"717 541 CURVE SMOOTH",
"717 293 OFFCURVE",
"611 147 OFFCURVE",
"466 147 CURVE SMOOTH",
"318 147 OFFCURVE",
"234 311 OFFCURVE",
"234 541 CURVE SMOOTH",
"234 770 OFFCURVE",
"318 934 OFFCURVE",
"466 934 CURVE SMOOTH"
);
}
);
width = 1006;
},
{
layerId = "8538028E-5D6C-4318-9676-30148CDA39CA";
paths = (
{
closed = 1;
nodes = (
"528 1535 LINE SMOOTH",
"490 1535 OFFCURVE",
"476 1514 OFFCURVE",
"476 1415 CURVE SMOOTH",
"476 1315 OFFCURVE",
"490 1296 OFFCURVE",
"528 1296 CURVE SMOOTH",
"648 1296 LINE",
"648 969 LINE",
"593 1056 OFFCURVE",
"520 1107 OFFCURVE",
"433 1107 CURVE SMOOTH",
"212 1107 OFFCURVE",
"80 857 OFFCURVE",
"80 541 CURVE SMOOTH",
"80 225 OFFCURVE",
"212 -26 OFFCURVE",
"433 -26 CURVE SMOOTH",
"537 -26 OFFCURVE",
"625 49 OFFCURVE",
"681 172 CURVE",
"681 74 LINE SMOOTH",
"681 21 OFFCURVE",
"695 0 OFFCURVE",
"733 0 CURVE",
"925 0 LINE SMOOTH",
"961 0 OFFCURVE",
"976 21 OFFCURVE",
"976 121 CURVE SMOOTH",
"976 220 OFFCURVE",
"961 240 OFFCURVE",
"925 240 CURVE SMOOTH",
"853 240 LINE",
"853 1462 LINE SMOOTH",
"853 1514 OFFCURVE",
"838 1535 OFFCURVE",
"802 1535 CURVE SMOOTH"
);
},
{
closed = 1;
nodes = (
"568 841 OFFCURVE",
"654 735 OFFCURVE",
"654 541 CURVE SMOOTH",
"654 346 OFFCURVE",
"568 240 OFFCURVE",
"466 240 CURVE SMOOTH",
"363 240 OFFCURVE",
"300 358 OFFCURVE",
"300 541 CURVE SMOOTH",
"300 723 OFFCURVE",
"363 841 OFFCURVE",
"466 841 CURVE SMOOTH"
);
}
);
width = 1006;
}
);
unicode = 0064;
},
{
glyphname = e;
lastChange = "2026-02-27 13:18:02 +0000";
layers = (
{
layerId = UUID0;
paths = (
{
closed = 1;
nodes = (
"282 1107 OFFCURVE",
"119 881 OFFCURVE",
"119 541 CURVE SMOOTH",
"119 188 OFFCURVE",
"261 -26 OFFCURVE",
"510 -26 CURVE SMOOTH",
"631 -26 OFFCURVE",
"752 19 OFFCURVE",
"832 76 CURVE SMOOTH",
"868 102 OFFCURVE",
"875 143 OFFCURVE",
"861 193 CURVE SMOOTH",
"847 242 OFFCURVE",
"824 273 OFFCURVE",
"789 245 CURVE SMOOTH",
"717 186 OFFCURVE",
"613 144 OFFCURVE",
"510 144 CURVE SMOOTH",
"349 144 OFFCURVE",
"257 263 OFFCURVE",
"249 497 CURVE",
"843 497 LINE SMOOTH",
"879 497 OFFCURVE",
"894 517 OFFCURVE",
"894 570 CURVE",
"881 881 OFFCURVE",
"754 1107 OFFCURVE",
"510 1107 CURVE SMOOTH"
);
},
{
closed = 1;
nodes = (
"654 937 OFFCURVE",
"735 837 OFFCURVE",
"758 661 CURVE",
"257 661 LINE",
"284 833 OFFCURVE",
"374 937 OFFCURVE",
"510 937 CURVE SMOOTH"
);
}
);
width = 1006;
},
{
layerId = "8538028E-5D6C-4318-9676-30148CDA39CA";
paths = (
{
closed = 1;
nodes = (
"261 1107 OFFCURVE",
"108 868 OFFCURVE",
"108 541 CURVE SMOOTH",
"108 213 OFFCURVE",
"252 -26 OFFCURVE",
"507 -26 CURVE SMOOTH",
"619 -26 OFFCURVE",
"736 7 OFFCURVE",
"840 57 CURVE SMOOTH",
"880 76 OFFCURVE",
"891 110 OFFCURVE",
"873 206 CURVE SMOOTH",
"854 302 OFFCURVE",
"833 319 OFFCURVE",
"798 304 CURVE SMOOTH",
"695 260 OFFCURVE",
"606 240 OFFCURVE",
"523 240 CURVE SMOOTH",
"419 240 OFFCURVE",
"348 307 OFFCURVE",
"327 433 CURVE",
"852 433 LINE SMOOTH",
"889 433 OFFCURVE",
"903 453 OFFCURVE",
"903 506 CURVE SMOOTH",
"903 853 OFFCURVE",
"770 1107 OFFCURVE",
"515 1107 CURVE SMOOTH"
);
},
{
closed = 1;
nodes = (
"609 841 OFFCURVE",
"672 774 OFFCURVE",
"689 661 CURVE",
"329 661 LINE",
"353 783 OFFCURVE",
"417 841 OFFCURVE",
"515 841 CURVE SMOOTH"
);
}
);
width = 1006;
}
);
unicode = 0065;
},
{
glyphname = f;
lastChange = "2026-02-27 13:18:02 +0000";
layers = (
{
layerId = UUID0;
paths = (
{
closed = 1;
nodes = (
"472 1541 OFFCURVE",
"367 1388 OFFCURVE",
"367 1132 CURVE SMOOTH",
"367 988 LINE",
"205 988 LINE SMOOTH",
"169 988 OFFCURVE",
"153 967 OFFCURVE",
"153 908 CURVE SMOOTH",
"153 850 OFFCURVE",
"169 829 OFFCURVE",
"205 829 CURVE SMOOTH",
"367 829 LINE",
"367 159 LINE",
"205 159 LINE SMOOTH",
"169 159 OFFCURVE",
"153 138 OFFCURVE",
"153 80 CURVE SMOOTH",
"153 21 OFFCURVE",
"169 0 OFFCURVE",
"205 0 CURVE SMOOTH",
"774 0 LINE SMOOTH",
"810 0 OFFCURVE",
"825 21 OFFCURVE",
"825 80 CURVE SMOOTH",
"825 138 OFFCURVE",
"810 159 OFFCURVE",
"774 159 CURVE SMOOTH",
"490 159 LINE",
"490 829 LINE",
"774 829 LINE SMOOTH",
"810 829 OFFCURVE",
"825 850 OFFCURVE",
"825 908 CURVE SMOOTH",
"825 967 OFFCURVE",
"810 988 OFFCURVE",
"774 988 CURVE SMOOTH",
"490 988 LINE",
"490 1116 LINE SMOOTH",
"490 1277 OFFCURVE",
"540 1370 OFFCURVE",
"655 1370 CURVE SMOOTH",
"720 1370 OFFCURVE",
"785 1348 OFFCURVE",
"850 1313 CURVE SMOOTH",
"878 1298 OFFCURVE",
"900 1311 OFFCURVE",
"910 1374 CURVE SMOOTH",
"920 1432 OFFCURVE",
"902 1465 OFFCURVE",
"873 1482 CURVE SMOOTH",
"807 1518 OFFCURVE",
"733 1541 OFFCURVE",
"655 1541 CURVE SMOOTH"
);
}
);
width = 1006;
},
{
layerId = "8538028E-5D6C-4318-9676-30148CDA39CA";
paths = (
{
closed = 1;
nodes = (
"441 1541 OFFCURVE",
"338 1388 OFFCURVE",
"338 1097 CURVE SMOOTH",
"338 1011 LINE",
"188 1011 LINE SMOOTH",
"152 1011 OFFCURVE",
"137 984 OFFCURVE",
"137 885 CURVE SMOOTH",
"137 785 OFFCURVE",
"152 760 OFFCURVE",
"188 760 CURVE SMOOTH",
"338 760 LINE",
"338 240 LINE",
"188 240 LINE SMOOTH",
"152 240 OFFCURVE",
"137 219 OFFCURVE",
"137 119 CURVE SMOOTH",
"137 20 OFFCURVE",
"152 0 OFFCURVE",
"188 0 CURVE SMOOTH",
"774 0 LINE SMOOTH",
"810 0 OFFCURVE",
"825 20 OFFCURVE",
"825 119 CURVE SMOOTH",
"825 219 OFFCURVE",
"810 240 OFFCURVE",
"774 240 CURVE SMOOTH",
"543 240 LINE",
"543 760 LINE",
"798 760 LINE SMOOTH",
"834 760 OFFCURVE",
"850 785 OFFCURVE",
"850 885 CURVE SMOOTH",
"850 984 OFFCURVE",
"834 1011 OFFCURVE",
"798 1011 CURVE SMOOTH",
"543 1011 LINE",
"543 1081 LINE SMOOTH",
"543 1216 OFFCURVE",
"582 1276 OFFCURVE",
"648 1276 CURVE SMOOTH",
"705 1276 OFFCURVE",
"761 1260 OFFCURVE",
"831 1230 CURVE SMOOTH",
"866 1215 OFFCURVE",
"894 1225 OFFCURVE",
"913 1320 CURVE SMOOTH",
"930 1417 OFFCURVE",
"918 1455 OFFCURVE",
"880 1475 CURVE SMOOTH",
"791 1523 OFFCURVE",
"708 1541 OFFCURVE",
"631 1541 CURVE SMOOTH"
);
}
);
width = 1006;
}
);
unicode = 0066;
},
{
glyphname = g;
lastChange = "2026-02-27 13:18:02 +0000";
layers = (
{
layerId = UUID0;
paths = (
{
closed = 1;
nodes = (
"255 1107 OFFCURVE",
"104 906 OFFCURVE",
"104 570 CURVE SMOOTH",
"104 234 OFFCURVE",
"255 33 OFFCURVE",
"458 33 CURVE SMOOTH",
"566 33 OFFCURVE",
"653 99 OFFCURVE",
"717 215 CURVE",
"717 -20 LINE SMOOTH",
"717 -192 OFFCURVE",
"645 -307 OFFCURVE",
"490 -307 CURVE SMOOTH",
"401 -307 OFFCURVE",
"303 -279 OFFCURVE",
"220 -236 CURVE SMOOTH",
"193 -222 OFFCURVE",
"170 -238 OFFCURVE",
"156 -296 CURVE SMOOTH",
"142 -356 OFFCURVE",
"152 -390 OFFCURVE",
"181 -405 CURVE SMOOTH",
"275 -454 OFFCURVE",
"386 -480 OFFCURVE",
"490 -480 CURVE SMOOTH",
"712 -480 OFFCURVE",
"840 -315 OFFCURVE",
"840 -35 CURVE SMOOTH",
"840 922 LINE",
"908 922 LINE SMOOTH",
"944 922 OFFCURVE",
"960 943 OFFCURVE",
"960 1002 CURVE SMOOTH",
"960 1060 OFFCURVE",
"944 1081 OFFCURVE",
"908 1081 CURVE SMOOTH",
"777 1081 LINE SMOOTH",
"741 1081 OFFCURVE",
"726 1060 OFFCURVE",
"726 1002 CURVE SMOOTH",
"726 908 LINE",
"659 1033 OFFCURVE",
"566 1107 OFFCURVE",
"458 1107 CURVE SMOOTH"
);
},
{
closed = 1;
nodes = (
"611 934 OFFCURVE",
"717 800 OFFCURVE",
"717 570 CURVE SMOOTH",
"717 339 OFFCURVE",
"611 206 OFFCURVE",
"466 206 CURVE SMOOTH",
"318 206 OFFCURVE",
"234 358 OFFCURVE",
"234 570 CURVE SMOOTH",
"234 782 OFFCURVE",
"318 934 OFFCURVE",
"466 934 CURVE SMOOTH"
);
}
);
width = 1006;
},
{
layerId = "8538028E-5D6C-4318-9676-30148CDA39CA";
paths = (
{
closed = 1;
nodes = (
"217 1107 OFFCURVE",
"80 874 OFFCURVE",
"80 558 CURVE SMOOTH",
"80 242 OFFCURVE",
"217 9 OFFCURVE",
"433 9 CURVE SMOOTH",
"518 9 OFFCURVE",
"593 59 OFFCURVE",
"648 144 CURVE",
"648 25 LINE SMOOTH",
"648 -132 OFFCURVE",
"596 -214 OFFCURVE",
"460 -214 CURVE SMOOTH",
"389 -214 OFFCURVE",
"296 -184 OFFCURVE",
"209 -145 CURVE SMOOTH",
"173 -130 OFFCURVE",
"146 -150 OFFCURVE",
"126 -245 CURVE SMOOTH",
"105 -341 OFFCURVE",
"116 -390 OFFCURVE",
"154 -407 CURVE SMOOTH",
"259 -454 OFFCURVE",
"377 -480 OFFCURVE",
"468 -480 CURVE SMOOTH",
"729 -480 OFFCURVE",
"853 -298 OFFCURVE",
"853 1 CURVE SMOOTH",
"853 841 LINE",
"925 841 LINE SMOOTH",
"961 841 OFFCURVE",
"976 861 OFFCURVE",
"976 961 CURVE SMOOTH",
"976 1060 OFFCURVE",
"961 1081 OFFCURVE",
"925 1081 CURVE SMOOTH",
"733 1081 LINE SMOOTH",
"695 1081 OFFCURVE",
"681 1060 OFFCURVE",
"681 1008 CURVE SMOOTH",
"681 926 LINE",
"624 1042 OFFCURVE",
"537 1107 OFFCURVE",
"433 1107 CURVE SMOOTH"
);
},
{
closed = 1;
nodes = (
"568 841 OFFCURVE",
"654 748 OFFCURVE",
"654 558 CURVE SMOOTH",
"654 369 OFFCURVE",
"568 275 OFFCURVE",
"466 275 CURVE SMOOTH",
"365 275 OFFCURVE",
"300 376 OFFCURVE",
"300 558 CURVE SMOOTH",
"300 741 OFFCURVE",
"365 841 OFFCURVE",
"466 841 CURVE SMOOTH"
);
}
);
width = 1006;
}
);
unicode = 0067;
},
{
glyphname = h;
lastChange = "2026-02-27 13:18:02 +0000";
layers = (
{
layerId = UUID0;
paths = (
{
closed = 1;
nodes = (
"115 1535 LINE SMOOTH",
"78 1535 OFFCURVE",
"63 1514 OFFCURVE",
"63 1456 CURVE SMOOTH",
"63 1397 OFFCURVE",
"78 1376 OFFCURVE",
"115 1376 CURVE SMOOTH",
"190 1376 LINE",
"190 159 LINE",
"123 159 LINE SMOOTH",
"87 159 OFFCURVE",
"71 138 OFFCURVE",
"71 80 CURVE SMOOTH",
"71 21 OFFCURVE",
"87 0 OFFCURVE",
"123 0 CURVE SMOOTH",
"389 0 LINE SMOOTH",
"425 0 OFFCURVE",
"440 21 OFFCURVE",
"440 80 CURVE SMOOTH",
"440 138 OFFCURVE",
"425 159 OFFCURVE",
"389 159 CURVE SMOOTH",
"312 159 LINE",
"312 494 LINE SMOOTH",
"312 749 OFFCURVE",
"435 934 OFFCURVE",
"575 934 CURVE SMOOTH",
"665 934 OFFCURVE",
"708 843 OFFCURVE",
"708 708 CURVE SMOOTH",
"708 159 LINE",
"632 159 LINE SMOOTH",
"596 159 OFFCURVE",
"580 138 OFFCURVE",
"580 80 CURVE SMOOTH",
"580 21 OFFCURVE",
"596 0 OFFCURVE",
"632 0 CURVE SMOOTH",
"898 0 LINE SMOOTH",
"935 0 OFFCURVE",
"949 21 OFFCURVE",
"949 80 CURVE SMOOTH",
"949 138 OFFCURVE",
"935 159 OFFCURVE",
"898 159 CURVE SMOOTH",
"831 159 LINE",
"831 726 LINE SMOOTH",
"831 960 OFFCURVE",
"738 1107 OFFCURVE",
"587 1107 CURVE SMOOTH",
"480 1107 OFFCURVE",
"384 1024 OFFCURVE",
"312 873 CURVE",
"312 1456 LINE SMOOTH",
"312 1514 OFFCURVE",
"298 1535 OFFCURVE",
"261 1535 CURVE SMOOTH"
);
}
);
width = 1006;
},
{
layerId = "8538028E-5D6C-4318-9676-30148CDA39CA";
paths = (
{
closed = 1;
nodes = (
"90 1535 LINE SMOOTH",
"54 1535 OFFCURVE",
"39 1514 OFFCURVE",
"39 1415 CURVE SMOOTH",
"39 1315 OFFCURVE",
"54 1296 OFFCURVE",
"90 1296 CURVE SMOOTH",
"170 1296 LINE",
"170 240 LINE",
"106 240 LINE SMOOTH",
"70 240 OFFCURVE",
"55 219 OFFCURVE",
"55 119 CURVE SMOOTH",
"55 20 OFFCURVE",
"70 0 OFFCURVE",
"106 0 CURVE SMOOTH",
"413 0 LINE SMOOTH",
"449 0 OFFCURVE",
"465 20 OFFCURVE",
"465 119 CURVE SMOOTH",
"465 219 OFFCURVE",
"449 240 OFFCURVE",
"413 240 CURVE SMOOTH",
"374 240 LINE",
"374 431 LINE SMOOTH",
"374 651 OFFCURVE",
"461 841 OFFCURVE",
"558 841 CURVE SMOOTH",
"631 841 OFFCURVE",
"654 771 OFFCURVE",
"654 657 CURVE SMOOTH",
"654 240 LINE",
"616 240 LINE SMOOTH",
"579 240 OFFCURVE",
"564 219 OFFCURVE",
"564 119 CURVE SMOOTH",
"564 20 OFFCURVE",
"579 0 OFFCURVE",
"616 0 CURVE SMOOTH",
"922 0 LINE SMOOTH",
"960 0 OFFCURVE",
"974 20 OFFCURVE",
"974 119 CURVE SMOOTH",
"974 219 OFFCURVE",
"960 240 OFFCURVE",
"922 240 CURVE SMOOTH",
"859 240 LINE",
"859 726 LINE SMOOTH",
"859 960 OFFCURVE",
"763 1107 OFFCURVE",
"612 1107 CURVE SMOOTH",
"522 1107 OFFCURVE",
"442 1042 OFFCURVE",
"374 893 CURVE",
"374 1462 LINE SMOOTH",
"374 1514 OFFCURVE",
"359 1535 OFFCURVE",
"323 1535 CURVE SMOOTH"
);
}
);
width = 1006;
}
);
unicode = 0068;
},
{
glyphname = k;
lastChange = "2026-02-27 13:18:02 +0000";
layers = (
{
layerId = UUID0;
paths = (
{
closed = 1;
nodes = (
"106 1535 LINE SMOOTH",
"70 1535 OFFCURVE",
"55 1514 OFFCURVE",
"55 1456 CURVE SMOOTH",
"55 1397 OFFCURVE",
"70 1376 OFFCURVE",
"106 1376 CURVE SMOOTH",
"214 1376 LINE",
"214 159 LINE",
"123 159 LINE SMOOTH",
"87 159 OFFCURVE",
"71 138 OFFCURVE",
"71 80 CURVE SMOOTH",
"71 21 OFFCURVE",
"87 0 OFFCURVE",
"123 0 CURVE SMOOTH",
"397 0 LINE SMOOTH",
"433 0 OFFCURVE",
"448 21 OFFCURVE",
"448 80 CURVE SMOOTH",
"448 138 OFFCURVE",
"433 159 OFFCURVE",
"397 159 CURVE SMOOTH",
"337 159 LINE",
"337 1456 LINE SMOOTH",
"337 1514 OFFCURVE",
"322 1535 OFFCURVE",
"286 1535 CURVE SMOOTH"
);
},
{
closed = 1;
nodes = (
"659 935 LINE",
"327 516 LINE",
"327 308 LINE",
"496 521 LINE",
"565 606 LINE",
"826 935 LINE"
);
},
{
closed = 1;
nodes = (
"591 1081 LINE SMOOTH",
"554 1081 OFFCURVE",
"540 1060 OFFCURVE",
"540 1002 CURVE SMOOTH",
"540 943 OFFCURVE",
"554 922 OFFCURVE",
"591 922 CURVE SMOOTH",
"865 922 LINE SMOOTH",
"901 922 OFFCURVE",
"916 943 OFFCURVE",
"916 1002 CURVE SMOOTH",
"916 1060 OFFCURVE",
"901 1081 OFFCURVE",
"865 1081 CURVE SMOOTH"
);
},
{
closed = 1;
nodes = (
"477 522 LINE",
"763 36 LINE SMOOTH",
"779 11 OFFCURVE",
"799 0 OFFCURVE",
"822 0 CURVE SMOOTH",
"859 0 LINE",
"859 145 LINE",
"566 633 LINE"
);
},
{
closed = 1;
nodes = (
"632 159 LINE SMOOTH",
"596 159 OFFCURVE",
"580 138 OFFCURVE",
"580 80 CURVE SMOOTH",
"580 21 OFFCURVE",
"596 0 OFFCURVE",
"632 0 CURVE SMOOTH",
"898 0 LINE SMOOTH",
"935 0 OFFCURVE",
"949 21 OFFCURVE",
"949 80 CURVE SMOOTH",
"949 138 OFFCURVE",
"935 159 OFFCURVE",
"898 159 CURVE SMOOTH"
);
}
);
width = 1006;
},
{
layerId = "8538028E-5D6C-4318-9676-30148CDA39CA";
paths = (
{
closed = 1;
nodes = (
"98 1535 LINE SMOOTH",
"62 1535 OFFCURVE",
"47 1514 OFFCURVE",
"47 1415 CURVE SMOOTH",
"47 1315 OFFCURVE",
"62 1296 OFFCURVE",
"98 1296 CURVE SMOOTH",
"178 1296 LINE",
"178 240 LINE",
"115 240 LINE SMOOTH",
"78 240 OFFCURVE",
"63 219 OFFCURVE",
"63 119 CURVE SMOOTH",
"63 20 OFFCURVE",
"78 0 OFFCURVE",
"115 0 CURVE SMOOTH",
"454 0 LINE SMOOTH",
"490 0 OFFCURVE",
"506 20 OFFCURVE",
"506 119 CURVE SMOOTH",
"506 219 OFFCURVE",
"490 240 OFFCURVE",
"454 240 CURVE SMOOTH",
"383 240 LINE",
"383 1462 LINE SMOOTH",
"383 1514 OFFCURVE",
"367 1535 OFFCURVE",
"331 1535 CURVE SMOOTH"
);
},
{
closed = 1;
nodes = (
"605 877 LINE",
"373 605 LINE",
"372 322 LINE",
"507 468 LINE",
"647 618 LINE",
"871 877 LINE"
);
},
{
closed = 1;
nodes = (
"555 1081 LINE SMOOTH",
"517 1081 OFFCURVE",
"503 1060 OFFCURVE",
"503 973 CURVE SMOOTH",
"503 885 OFFCURVE",
"517 865 OFFCURVE",
"555 865 CURVE SMOOTH",
"894 865 LINE SMOOTH",
"930 865 OFFCURVE",
"946 885 OFFCURVE",
"946 973 CURVE SMOOTH",
"946 1060 OFFCURVE",
"930 1081 OFFCURVE",
"894 1081 CURVE SMOOTH"
);
},
{
closed = 1;
nodes = (
"488 472 LINE",
"702 47 LINE SMOOTH",
"719 13 OFFCURVE",
"741 0 OFFCURVE",
"767 0 CURVE SMOOTH",
"892 0 LINE",
"892 171 LINE",
"650 645 LINE"
);
},
{
closed = 1;
nodes = (
"796 240 LINE SMOOTH",
"760 240 OFFCURVE",
"744 219 OFFCURVE",
"744 119 CURVE SMOOTH",
"744 20 OFFCURVE",
"760 0 OFFCURVE",
"796 0 CURVE SMOOTH",
"906 0 LINE SMOOTH",
"943 0 OFFCURVE",
"957 20 OFFCURVE",
"957 119 CURVE SMOOTH",
"957 219 OFFCURVE",
"942 240 OFFCURVE",
"906 240 CURVE SMOOTH"
);
}
);
width = 1006;
}
);
unicode = 006B;
},
{
glyphname = l;
lastChange = "2026-02-27 13:18:02 +0000";
layers = (
{
layerId = UUID0;
paths = (
{
closed = 1;
nodes = (
"229 1535 LINE SMOOTH",
"193 1535 OFFCURVE",
"178 1514 OFFCURVE",
"178 1456 CURVE SMOOTH",
"178 1397 OFFCURVE",
"193 1376 OFFCURVE",
"229 1376 CURVE SMOOTH",
"453 1376 LINE",
"453 159 LINE",
"197 159 LINE SMOOTH",
"160 159 OFFCURVE",
"145 138 OFFCURVE",
"145 80 CURVE SMOOTH",
"145 21 OFFCURVE",
"160 0 OFFCURVE",
"197 0 CURVE SMOOTH",
"839 0 LINE SMOOTH",
"875 0 OFFCURVE",
"891 21 OFFCURVE",
"891 80 CURVE SMOOTH",
"891 138 OFFCURVE",
"875 159 OFFCURVE",
"839 159 CURVE SMOOTH",
"576 159 LINE",
"576 1456 LINE SMOOTH",
"576 1514 OFFCURVE",
"562 1535 OFFCURVE",
"524 1535 CURVE SMOOTH"
);
}
);
width = 1006;
},
{
layerId = "8538028E-5D6C-4318-9676-30148CDA39CA";
paths = (
{
closed = 1;
nodes = (
"213 1535 LINE SMOOTH",
"177 1535 OFFCURVE",
"161 1514 OFFCURVE",
"161 1415 CURVE SMOOTH",
"161 1315 OFFCURVE",
"177 1296 OFFCURVE",
"213 1296 CURVE SMOOTH",
"404 1296 LINE",
"404 240 LINE",
"180 240 LINE SMOOTH",
"144 240 OFFCURVE",
"129 219 OFFCURVE",
"129 119 CURVE SMOOTH",
"129 20 OFFCURVE",
"144 0 OFFCURVE",
"180 0 CURVE SMOOTH",
"839 0 LINE SMOOTH",
"875 0 OFFCURVE",
"891 20 OFFCURVE",
"891 119 CURVE SMOOTH",
"891 219 OFFCURVE",
"875 240 OFFCURVE",
"839 240 CURVE SMOOTH",
"609 240 LINE",
"609 1462 LINE SMOOTH",
"609 1514 OFFCURVE",
"595 1535 OFFCURVE",
"557 1535 CURVE SMOOTH"
);
}
);
width = 1006;
}
);
unicode = 006C;
},
{
glyphname = m;
lastChange = "2026-02-27 13:18:02 +0000";
layers = (
{
layerId = UUID0;
paths = (
{
closed = 1;
nodes = (
"680 1107 OFFCURVE",
"616 1038 OFFCURVE",
"566 895 CURVE",
"547 1039 OFFCURVE",
"484 1107 OFFCURVE",
"413 1107 CURVE SMOOTH",
"338 1107 OFFCURVE",
"269 1036 OFFCURVE",
"222 886 CURVE",
"222 1002 LINE SMOOTH",
"222 1060 OFFCURVE",
"207 1081 OFFCURVE",
"171 1081 CURVE SMOOTH",
"48 1081 LINE SMOOTH",
"12 1081 OFFCURVE",
"-4 1060 OFFCURVE",
"-4 1002 CURVE SMOOTH",
"-4 943 OFFCURVE",
"12 922 OFFCURVE",
"48 922 CURVE SMOOTH",
"116 922 LINE",
"116 76 LINE SMOOTH",
"116 22 OFFCURVE",
"130 0 OFFCURVE",
"177 0 CURVE SMOOTH",
"178 0 LINE SMOOTH",
"224 0 OFFCURVE",
"239 22 OFFCURVE",
"239 76 CURVE SMOOTH",
"239 535 LINE SMOOTH",
"239 771 OFFCURVE",
"303 934 OFFCURVE",
"382 934 CURVE SMOOTH",
"437 934 OFFCURVE",
"459 877 OFFCURVE",
"459 772 CURVE SMOOTH",
"459 80 LINE SMOOTH",
"459 21 OFFCURVE",
"474 0 OFFCURVE",
"510 0 CURVE SMOOTH",
"530 0 LINE SMOOTH",
"566 0 OFFCURVE",
"582 21 OFFCURVE",
"582 80 CURVE SMOOTH",
"582 535 LINE SMOOTH",
"582 771 OFFCURVE",
"646 934 OFFCURVE",
"724 934 CURVE SMOOTH",
"779 934 OFFCURVE",
"802 877 OFFCURVE",
"802 772 CURVE SMOOTH",
"802 80 LINE SMOOTH",
"802 21 OFFCURVE",
"817 0 OFFCURVE",
"853 0 CURVE SMOOTH",
"873 0 LINE SMOOTH",
"910 0 OFFCURVE",
"925 21 OFFCURVE",
"925 80 CURVE SMOOTH",
"925 793 LINE SMOOTH",
"925 1008 OFFCURVE",
"848 1107 OFFCURVE",
"755 1107 CURVE SMOOTH"
);
},
{
closed = 1;
nodes = (
"48 159 LINE SMOOTH",
"12 159 OFFCURVE",
"-4 138 OFFCURVE",
"-4 80 CURVE SMOOTH",
"-4 21 OFFCURVE",
"12 0 OFFCURVE",
"48 0 CURVE SMOOTH",
"281 0 LINE SMOOTH",
"318 0 OFFCURVE",
"332 21 OFFCURVE",
"332 80 CURVE SMOOTH",
"332 138 OFFCURVE",
"318 159 OFFCURVE",
"281 159 CURVE SMOOTH"
);
},
{
closed = 1;
nodes = (
"521 159 LINE",
"521 0 LINE",
"628 0 LINE SMOOTH",
"665 0 OFFCURVE",
"680 21 OFFCURVE",
"680 80 CURVE SMOOTH",
"680 138 OFFCURVE",
"665 159 OFFCURVE",
"628 159 CURVE SMOOTH"
);
},
{
closed = 1;
nodes = (
"864 159 LINE",
"864 0 LINE",
"976 0 LINE SMOOTH",
"1012 0 OFFCURVE",
"1028 21 OFFCURVE",
"1028 80 CURVE SMOOTH",
"1028 138 OFFCURVE",
"1012 159 OFFCURVE",
"976 159 CURVE SMOOTH"
);
}
);
width = 1006;
},
{
layerId = "8538028E-5D6C-4318-9676-30148CDA39CA";
paths = (
{
closed = 1;
nodes = (
"714 1107 OFFCURVE",
"646 1028 OFFCURVE",
"596 870 CURVE",
"573 1019 OFFCURVE",
"524 1107 OFFCURVE",
"439 1107 CURVE SMOOTH",
"357 1107 OFFCURVE",
"286 1017 OFFCURVE",
"234 839 CURVE",
"234 1008 LINE SMOOTH",
"234 1060 OFFCURVE",
"220 1081 OFFCURVE",
"183 1081 CURVE SMOOTH",
"40 1081 LINE SMOOTH",
"4 1081 OFFCURVE",
"-12 1060 OFFCURVE",
"-12 961 CURVE SMOOTH",
"-12 861 OFFCURVE",
"4 841 OFFCURVE",
"40 841 CURVE SMOOTH",
"87 841 LINE",
"87 74 LINE SMOOTH",
"87 21 OFFCURVE",
"102 0 OFFCURVE",
"138 0 CURVE SMOOTH",
"240 0 LINE SMOOTH",
"277 0 OFFCURVE",
"291 21 OFFCURVE",
"291 74 CURVE SMOOTH",
"291 472 LINE SMOOTH",
"291 696 OFFCURVE",
"325 806 OFFCURVE",
"376 806 CURVE SMOOTH",
"406 806 OFFCURVE",
"418 767 OFFCURVE",
"418 686 CURVE SMOOTH",
"418 74 LINE SMOOTH",
"418 21 OFFCURVE",
"433 0 OFFCURVE",
"469 0 CURVE SMOOTH",
"571 0 LINE SMOOTH",
"607 0 OFFCURVE",
"623 21 OFFCURVE",
"623 74 CURVE SMOOTH",
"623 472 LINE SMOOTH",
"623 696 OFFCURVE",
"657 806 OFFCURVE",
"706 806 CURVE SMOOTH",
"736 806 OFFCURVE",
"749 767 OFFCURVE",
"749 686 CURVE SMOOTH",
"749 74 LINE SMOOTH",
"749 21 OFFCURVE",
"763 0 OFFCURVE",
"800 0 CURVE SMOOTH",
"902 0 LINE SMOOTH",
"939 0 OFFCURVE",
"954 21 OFFCURVE",
"954 74 CURVE SMOOTH",
"954 752 LINE SMOOTH",
"954 1001 OFFCURVE",
"887 1107 OFFCURVE",
"791 1107 CURVE SMOOTH"
);
},
{
closed = 1;
nodes = (
"142 240 LINE SMOOTH",
"105 240 OFFCURVE",
"90 219 OFFCURVE",
"90 119 CURVE SMOOTH",
"90 20 OFFCURVE",
"105 0 OFFCURVE",
"142 0 CURVE SMOOTH",
"236 0 LINE SMOOTH",
"274 0 OFFCURVE",
"288 20 OFFCURVE",
"288 119 CURVE SMOOTH",
"288 219 OFFCURVE",
"274 240 OFFCURVE",
"236 240 CURVE SMOOTH"
);
},
{
closed = 1;
nodes = (
"497 240 LINE",
"497 0 LINE",
"568 0 LINE SMOOTH",
"605 0 OFFCURVE",
"619 20 OFFCURVE",
"619 119 CURVE SMOOTH",
"619 219 OFFCURVE",
"605 240 OFFCURVE",
"568 240 CURVE SMOOTH"
);
},
{
closed = 1;
nodes = (
"829 240 LINE",
"829 0 LINE",
"899 0 LINE SMOOTH",
"935 0 OFFCURVE",
"950 20 OFFCURVE",
"950 119 CURVE SMOOTH",
"950 219 OFFCURVE",
"935 240 OFFCURVE",
"899 240 CURVE SMOOTH"
);
}
);
width = 1006;
}
);
unicode = 006D;
},
{
glyphname = n;
lastChange = "2026-02-27 13:18:02 +0000";
layers = (
{
layerId = UUID0;
paths = (
{
closed = 1;
nodes = (
"484 1107 OFFCURVE",
"385 1020 OFFCURVE",
"312 861 CURVE",
"312 1002 LINE SMOOTH",
"312 1060 OFFCURVE",
"298 1081 OFFCURVE",
"261 1081 CURVE SMOOTH",
"115 1081 LINE SMOOTH",
"78 1081 OFFCURVE",
"63 1060 OFFCURVE",
"63 1002 CURVE SMOOTH",
"63 943 OFFCURVE",
"78 922 OFFCURVE",
"115 922 CURVE SMOOTH",
"198 922 LINE",
"198 159 LINE",
"131 159 LINE SMOOTH",
"95 159 OFFCURVE",
"80 138 OFFCURVE",
"80 80 CURVE SMOOTH",
"80 21 OFFCURVE",
"95 0 OFFCURVE",
"131 0 CURVE SMOOTH",
"397 0 LINE SMOOTH",
"433 0 OFFCURVE",
"448 21 OFFCURVE",
"448 80 CURVE SMOOTH",
"448 138 OFFCURVE",
"433 159 OFFCURVE",
"397 159 CURVE SMOOTH",
"321 159 LINE",
"321 494 LINE SMOOTH",
"321 749 OFFCURVE",
"444 934 OFFCURVE",
"583 934 CURVE SMOOTH",
"673 934 OFFCURVE",
"716 843 OFFCURVE",
"716 708 CURVE SMOOTH",
"716 159 LINE",
"640 159 LINE SMOOTH",
"604 159 OFFCURVE",
"589 138 OFFCURVE",
"589 80 CURVE SMOOTH",
"589 21 OFFCURVE",
"604 0 OFFCURVE",
"640 0 CURVE SMOOTH",
"906 0 LINE SMOOTH",
"943 0 OFFCURVE",
"957 21 OFFCURVE",
"957 80 CURVE SMOOTH",
"957 138 OFFCURVE",
"943 159 OFFCURVE",
"906 159 CURVE SMOOTH",
"839 159 LINE",
"839 726 LINE SMOOTH",
"839 960 OFFCURVE",
"747 1107 OFFCURVE",
"596 1107 CURVE SMOOTH"
);
}
);
width = 1006;
},
{
layerId = "8538028E-5D6C-4318-9676-30148CDA39CA";
paths = (
{
closed = 1;
nodes = (
"517 1107 OFFCURVE",
"426 1028 OFFCURVE",
"350 838 CURVE",
"350 1008 LINE SMOOTH",
"350 1060 OFFCURVE",
"335 1081 OFFCURVE",
"298 1081 CURVE SMOOTH",
"98 1081 LINE SMOOTH",
"62 1081 OFFCURVE",
"47 1060 OFFCURVE",
"47 961 CURVE SMOOTH",
"47 861 OFFCURVE",
"62 841 OFFCURVE",
"98 841 CURVE SMOOTH",
"178 841 LINE",
"178 240 LINE",
"115 240 LINE SMOOTH",
"78 240 OFFCURVE",
"63 219 OFFCURVE",
"63 119 CURVE SMOOTH",
"63 20 OFFCURVE",
"78 0 OFFCURVE",
"115 0 CURVE SMOOTH",
"421 0 LINE SMOOTH",
"458 0 OFFCURVE",
"473 20 OFFCURVE",
"473 119 CURVE SMOOTH",
"473 219 OFFCURVE",
"458 240 OFFCURVE",
"421 240 CURVE SMOOTH",
"383 240 LINE",
"383 431 LINE SMOOTH",
"383 651 OFFCURVE",
"469 841 OFFCURVE",
"566 841 CURVE SMOOTH",
"639 841 OFFCURVE",
"662 771 OFFCURVE",
"662 657 CURVE SMOOTH",
"662 240 LINE",
"624 240 LINE SMOOTH",
"587 240 OFFCURVE",
"572 219 OFFCURVE",
"572 119 CURVE SMOOTH",
"572 20 OFFCURVE",
"587 0 OFFCURVE",
"624 0 CURVE SMOOTH",
"930 0 LINE SMOOTH",
"968 0 OFFCURVE",
"982 20 OFFCURVE",
"982 119 CURVE SMOOTH",
"982 219 OFFCURVE",
"968 240 OFFCURVE",
"930 240 CURVE SMOOTH",
"867 240 LINE",
"867 726 LINE SMOOTH",
"867 960 OFFCURVE",
"771 1107 OFFCURVE",
"620 1107 CURVE SMOOTH"
);
}
);
width = 1006;
}
);
unicode = 006E;
},
{
glyphname = o;
lastChange = "2026-02-27 13:18:02 +0000";
layers = (
{
layerId = UUID0;
paths = (
{
closed = 1;
nodes = (
"277 1107 OFFCURVE",
"108 871 OFFCURVE",
"108 541 CURVE SMOOTH",
"108 211 OFFCURVE",
"277 -26 OFFCURVE",
"503 -26 CURVE SMOOTH",
"729 -26 OFFCURVE",
"898 211 OFFCURVE",
"898 541 CURVE SMOOTH",
"898 871 OFFCURVE",
"729 1107 OFFCURVE",
"503 1107 CURVE SMOOTH"
);
},
{
closed = 1;
nodes = (
"664 934 OFFCURVE",
"769 771 OFFCURVE",
"769 541 CURVE SMOOTH",
"769 310 OFFCURVE",
"664 147 OFFCURVE",
"503 147 CURVE SMOOTH",
"343 147 OFFCURVE",
"238 310 OFFCURVE",
"238 541 CURVE SMOOTH",
"238 771 OFFCURVE",
"343 934 OFFCURVE",
"503 934 CURVE SMOOTH"
);
}
);
width = 1006;
},
{
layerId = "8538028E-5D6C-4318-9676-30148CDA39CA";
paths = (
{
closed = 1;
nodes = (
"250 1107 OFFCURVE",
"91 868 OFFCURVE",
"91 541 CURVE SMOOTH",
"91 213 OFFCURVE",
"250 -26 OFFCURVE",
"503 -26 CURVE SMOOTH",
"756 -26 OFFCURVE",
"915 213 OFFCURVE",
"915 541 CURVE SMOOTH",
"915 868 OFFCURVE",
"756 1107 OFFCURVE",
"503 1107 CURVE SMOOTH"
);
},
{
closed = 1;
nodes = (
"621 841 OFFCURVE",
"695 723 OFFCURVE",
"695 541 CURVE SMOOTH",
"695 358 OFFCURVE",
"621 240 OFFCURVE",
"503 240 CURVE SMOOTH",
"384 240 OFFCURVE",
"310 358 OFFCURVE",
"310 541 CURVE SMOOTH",
"310 723 OFFCURVE",
"384 841 OFFCURVE",
"503 841 CURVE SMOOTH"
);
}
);
width = 1006;
}
);
unicode = 006F;
},
{
glyphname = p;
lastChange = "2026-02-27 13:18:02 +0000";
layers = (
{
layerId = UUID0;
paths = (
{
closed = 1;
nodes = (
"439 1107 OFFCURVE",
"348 1033 OFFCURVE",
"280 908 CURVE",
"280 1002 LINE SMOOTH",
"280 1060 OFFCURVE",
"266 1081 OFFCURVE",
"228 1081 CURVE SMOOTH",
"98 1081 LINE SMOOTH",
"62 1081 OFFCURVE",
"47 1060 OFFCURVE",
"47 1002 CURVE SMOOTH",
"47 943 OFFCURVE",
"62 922 OFFCURVE",
"98 922 CURVE SMOOTH",
"165 922 LINE",
"165 -295 LINE",
"82 -295 LINE SMOOTH",
"46 -295 OFFCURVE",
"30 -316 OFFCURVE",
"30 -374 CURVE SMOOTH",
"30 -433 OFFCURVE",
"46 -454 OFFCURVE",
"82 -454 CURVE SMOOTH",
"429 -454 LINE SMOOTH",
"466 -454 OFFCURVE",
"481 -433 OFFCURVE",
"481 -374 CURVE SMOOTH",
"481 -316 OFFCURVE",
"466 -295 OFFCURVE",
"429 -295 CURVE SMOOTH",
"288 -295 LINE",
"288 167 LINE",
"353 48 OFFCURVE",
"439 -26 OFFCURVE",
"548 -26 CURVE SMOOTH",
"750 -26 OFFCURVE",
"902 187 OFFCURVE",
"902 541 CURVE SMOOTH",
"902 894 OFFCURVE",
"750 1107 OFFCURVE",
"548 1107 CURVE SMOOTH"
);
},
{
closed = 1;
nodes = (
"688 934 OFFCURVE",
"772 770 OFFCURVE",
"772 541 CURVE SMOOTH",
"772 311 OFFCURVE",
"688 147 OFFCURVE",
"540 147 CURVE SMOOTH",
"394 147 OFFCURVE",
"288 293 OFFCURVE",
"288 541 CURVE SMOOTH",
"288 789 OFFCURVE",
"394 934 OFFCURVE",
"540 934 CURVE SMOOTH"
);
}
);
width = 1006;
},
{
layerId = "8538028E-5D6C-4318-9676-30148CDA39CA";
paths = (
{
closed = 1;
nodes = (
"468 1107 OFFCURVE",
"382 1032 OFFCURVE",
"325 909 CURVE",
"325 1008 LINE SMOOTH",
"325 1060 OFFCURVE",
"310 1081 OFFCURVE",
"274 1081 CURVE SMOOTH",
"82 1081 LINE SMOOTH",
"46 1081 OFFCURVE",
"30 1060 OFFCURVE",
"30 961 CURVE SMOOTH",
"30 861 OFFCURVE",
"46 841 OFFCURVE",
"82 841 CURVE SMOOTH",
"153 841 LINE",
"153 -214 LINE",
"82 -214 LINE SMOOTH",
"46 -214 OFFCURVE",
"30 -235 OFFCURVE",
"30 -335 CURVE SMOOTH",
"30 -434 OFFCURVE",
"46 -454 OFFCURVE",
"82 -454 CURVE SMOOTH",
"495 -454 LINE SMOOTH",
"531 -454 OFFCURVE",
"547 -433 OFFCURVE",
"547 -334 CURVE SMOOTH",
"547 -234 OFFCURVE",
"531 -214 OFFCURVE",
"495 -214 CURVE SMOOTH",
"358 -214 LINE",
"358 112 LINE",
"413 26 OFFCURVE",
"487 -26 OFFCURVE",
"573 -26 CURVE SMOOTH",
"793 -26 OFFCURVE",
"927 225 OFFCURVE",
"927 541 CURVE SMOOTH",
"927 857 OFFCURVE",
"793 1107 OFFCURVE",
"573 1107 CURVE SMOOTH"
);
},
{
closed = 1;
nodes = (
"644 841 OFFCURVE",
"707 723 OFFCURVE",
"707 541 CURVE SMOOTH",
"707 358 OFFCURVE",
"644 240 OFFCURVE",
"541 240 CURVE SMOOTH",
"439 240 OFFCURVE",
"352 346 OFFCURVE",
"352 541 CURVE SMOOTH",
"352 735 OFFCURVE",
"439 841 OFFCURVE",
"541 841 CURVE SMOOTH"
);
}
);
width = 1006;
}
);
unicode = 0070;
},
{
glyphname = q;
lastChange = "2026-02-27 13:18:02 +0000";
layers = (
{
layerId = UUID0;
paths = (
{
closed = 1;
nodes = (
"255 1107 OFFCURVE",
"104 894 OFFCURVE",
"104 541 CURVE SMOOTH",
"104 187 OFFCURVE",
"255 -26 OFFCURVE",
"458 -26 CURVE SMOOTH",
"566 -26 OFFCURVE",
"652 48 OFFCURVE",
"717 167 CURVE",
"717 -295 LINE",
"577 -295 LINE SMOOTH",
"540 -295 OFFCURVE",
"525 -316 OFFCURVE",
"525 -374 CURVE SMOOTH",
"525 -433 OFFCURVE",
"540 -454 OFFCURVE",
"577 -454 CURVE SMOOTH",
"925 -454 LINE SMOOTH",
"961 -454 OFFCURVE",
"976 -433 OFFCURVE",
"976 -374 CURVE SMOOTH",
"976 -316 OFFCURVE",
"961 -295 OFFCURVE",
"925 -295 CURVE SMOOTH",
"840 -295 LINE",
"840 922 LINE",
"908 922 LINE SMOOTH",
"944 922 OFFCURVE",
"960 943 OFFCURVE",
"960 1002 CURVE SMOOTH",
"960 1060 OFFCURVE",
"944 1081 OFFCURVE",
"908 1081 CURVE SMOOTH",
"777 1081 LINE SMOOTH",
"741 1081 OFFCURVE",
"726 1060 OFFCURVE",
"726 1002 CURVE SMOOTH",
"726 908 LINE",
"659 1033 OFFCURVE",
"566 1107 OFFCURVE",
"458 1107 CURVE SMOOTH"
);
},
{
closed = 1;
nodes = (
"611 934 OFFCURVE",
"717 789 OFFCURVE",
"717 541 CURVE SMOOTH",
"717 293 OFFCURVE",
"611 147 OFFCURVE",
"466 147 CURVE SMOOTH",
"318 147 OFFCURVE",
"234 311 OFFCURVE",
"234 541 CURVE SMOOTH",
"234 770 OFFCURVE",
"318 934 OFFCURVE",
"466 934 CURVE SMOOTH"
);
}
);
width = 1006;
},
{
layerId = "8538028E-5D6C-4318-9676-30148CDA39CA";
paths = (
{
closed = 1;
nodes = (
"212 1107 OFFCURVE",
"80 857 OFFCURVE",
"80 541 CURVE SMOOTH",
"80 225 OFFCURVE",
"212 -26 OFFCURVE",
"433 -26 CURVE SMOOTH",
"520 -26 OFFCURVE",
"593 26 OFFCURVE",
"648 112 CURVE",
"648 -214 LINE",
"511 -214 LINE SMOOTH",
"474 -214 OFFCURVE",
"460 -234 OFFCURVE",
"460 -334 CURVE SMOOTH",
"460 -433 OFFCURVE",
"474 -454 OFFCURVE",
"511 -454 CURVE SMOOTH",
"925 -454 LINE SMOOTH",
"961 -454 OFFCURVE",
"976 -434 OFFCURVE",
"976 -335 CURVE SMOOTH",
"976 -235 OFFCURVE",
"961 -214 OFFCURVE",
"925 -214 CURVE SMOOTH",
"853 -214 LINE",
"853 841 LINE",
"925 841 LINE SMOOTH",
"961 841 OFFCURVE",
"976 861 OFFCURVE",
"976 961 CURVE SMOOTH",
"976 1060 OFFCURVE",
"961 1081 OFFCURVE",
"925 1081 CURVE SMOOTH",
"733 1081 LINE SMOOTH",
"695 1081 OFFCURVE",
"681 1060 OFFCURVE",
"681 1008 CURVE SMOOTH",
"681 909 LINE",
"625 1032 OFFCURVE",
"537 1107 OFFCURVE",
"433 1107 CURVE SMOOTH"
);
},
{
closed = 1;
nodes = (
"568 841 OFFCURVE",
"654 735 OFFCURVE",
"654 541 CURVE SMOOTH",
"654 346 OFFCURVE",
"568 240 OFFCURVE",
"466 240 CURVE SMOOTH",
"363 240 OFFCURVE",
"300 358 OFFCURVE",
"300 541 CURVE SMOOTH",
"300 723 OFFCURVE",
"363 841 OFFCURVE",
"466 841 CURVE SMOOTH"
);
}
);
width = 1006;
}
);
unicode = 0071;
},
{
glyphname = r;
lastChange = "2026-02-27 13:18:02 +0000";
layers = (
{
layerId = UUID0;
paths = (
{
closed = 1;
nodes = (
"630 1107 OFFCURVE",
"496 974 OFFCURVE",
"415 765 CURVE",
"415 1002 LINE SMOOTH",
"415 1060 OFFCURVE",
"400 1081 OFFCURVE",
"364 1081 CURVE SMOOTH",
"197 1081 LINE SMOOTH",
"160 1081 OFFCURVE",
"145 1060 OFFCURVE",
"145 1002 CURVE SMOOTH",
"145 943 OFFCURVE",
"160 922 OFFCURVE",
"197 922 CURVE SMOOTH",
"301 922 LINE",
"301 159 LINE",
"172 159 LINE SMOOTH",
"136 159 OFFCURVE",
"121 138 OFFCURVE",
"121 80 CURVE SMOOTH",
"121 21 OFFCURVE",
"136 0 OFFCURVE",
"172 0 CURVE SMOOTH",
"700 0 LINE SMOOTH",
"736 0 OFFCURVE",
"751 21 OFFCURVE",
"751 80 CURVE SMOOTH",
"751 138 OFFCURVE",
"736 159 OFFCURVE",
"700 159 CURVE SMOOTH",
"424 159 LINE",
"424 386 LINE SMOOTH",
"424 671 OFFCURVE",
"595 913 OFFCURVE",
"742 913 CURVE SMOOTH",
"772 913 OFFCURVE",
"802 902 OFFCURVE",
"829 881 CURVE SMOOTH",
"859 855 OFFCURVE",
"884 882 OFFCURVE",
"899 939 CURVE SMOOTH",
"914 996 OFFCURVE",
"906 1033 OFFCURVE",
"873 1060 CURVE SMOOTH",
"836 1092 OFFCURVE",
"796 1107 OFFCURVE",
"754 1107 CURVE SMOOTH"
);
}
);
width = 1006;
},
{
layerId = "8538028E-5D6C-4318-9676-30148CDA39CA";
paths = (
{
closed = 1;
nodes = (
"651 1107 OFFCURVE",
"540 981 OFFCURVE",
"456 754 CURVE",
"456 1008 LINE SMOOTH",
"456 1060 OFFCURVE",
"441 1081 OFFCURVE",
"405 1081 CURVE SMOOTH",
"180 1081 LINE SMOOTH",
"144 1081 OFFCURVE",
"129 1060 OFFCURVE",
"129 961 CURVE SMOOTH",
"129 861 OFFCURVE",
"144 841 OFFCURVE",
"180 841 CURVE SMOOTH",
"276 841 LINE",
"276 240 LINE",
"156 240 LINE SMOOTH",
"119 240 OFFCURVE",
"104 219 OFFCURVE",
"104 119 CURVE SMOOTH",
"104 20 OFFCURVE",
"119 0 OFFCURVE",
"156 0 CURVE SMOOTH",
"716 0 LINE SMOOTH",
"752 0 OFFCURVE",
"768 20 OFFCURVE",
"768 119 CURVE SMOOTH",
"768 219 OFFCURVE",
"752 240 OFFCURVE",
"716 240 CURVE SMOOTH",
"481 240 LINE",
"481 351 LINE SMOOTH",
"481 606 OFFCURVE",
"595 791 OFFCURVE",
"720 791 CURVE SMOOTH",
"751 791 OFFCURVE",
"784 779 OFFCURVE",
"816 755 CURVE SMOOTH",
"850 728 OFFCURVE",
"886 757 OFFCURVE",
"912 852 CURVE SMOOTH",
"936 940 OFFCURVE",
"930 998 OFFCURVE",
"891 1042 CURVE SMOOTH",
"848 1086 OFFCURVE",
"804 1107 OFFCURVE",
"760 1107 CURVE SMOOTH"
);
}
);
width = 1006;
}
);
unicode = 0072;
},
{
glyphname = s;
lastChange = "2026-02-27 13:18:02 +0000";
layers = (
{
layerId = UUID0;
paths = (
{
closed = 1;
nodes = (
"715 1107 OFFCURVE",
"700 1085 OFFCURVE",
"700 1031 CURVE SMOOTH",
"700 978 LINE",
"638 1058 OFFCURVE",
"549 1107 OFFCURVE",
"441 1107 CURVE SMOOTH",
"275 1107 OFFCURVE",
"151 994 OFFCURVE",
"151 784 CURVE SMOOTH",
"151 647 OFFCURVE",
"204 575 OFFCURVE",
"277 532 CURVE SMOOTH",
"394 466 OFFCURVE",
"566 477 OFFCURVE",
"661 432 CURVE SMOOTH",
"703 412 OFFCURVE",
"730 380 OFFCURVE",
"730 324 CURVE SMOOTH",
"730 218 OFFCURVE",
"665 144 OFFCURVE",
"534 144 CURVE SMOOTH",
"383 144 OFFCURVE",
"293 208 OFFCURVE",
"253 359 CURVE SMOOTH",
"243 392 OFFCURVE",
"232 407 OFFCURVE",
"208 407 CURVE SMOOTH",
"163 407 OFFCURVE",
"146 385 OFFCURVE",
"146 331 CURVE SMOOTH",
"146 50 LINE SMOOTH",
"146 -4 OFFCURVE",
"163 -26 OFFCURVE",
"208 -26 CURVE SMOOTH",
"254 -26 OFFCURVE",
"269 -4 OFFCURVE",
"269 50 CURVE SMOOTH",
"269 116 LINE",
"336 21 OFFCURVE",
"424 -26 OFFCURVE",
"542 -26 CURVE SMOOTH",
"747 -26 OFFCURVE",
"860 115 OFFCURVE",
"860 324 CURVE SMOOTH",
"860 473 OFFCURVE",
"802 550 OFFCURVE",
"722 592 CURVE SMOOTH",
"603 654 OFFCURVE",
"438 642 OFFCURVE",
"346 685 CURVE SMOOTH",
"305 703 OFFCURVE",
"280 733 OFFCURVE",
"280 784 CURVE SMOOTH",
"280 881 OFFCURVE",
"343 937 OFFCURVE",
"449 937 CURVE SMOOTH",
"577 937 OFFCURVE",
"673 899 OFFCURVE",
"722 763 CURVE SMOOTH",
"729 743 OFFCURVE",
"742 733 OFFCURVE",
"761 733 CURVE SMOOTH",
"807 733 OFFCURVE",
"823 755 OFFCURVE",
"823 809 CURVE SMOOTH",
"823 1031 LINE SMOOTH",
"823 1085 OFFCURVE",
"807 1107 OFFCURVE",
"761 1107 CURVE SMOOTH"
);
}
);
width = 1006;
},
{
layerId = "8538028E-5D6C-4318-9676-30148CDA39CA";
paths = (
{
closed = 1;
nodes = (
"673 1107 OFFCURVE",
"651 1086 OFFCURVE",
"651 1033 CURVE SMOOTH",
"651 1022 LINE",
"590 1075 OFFCURVE",
"520 1107 OFFCURVE",
"431 1107 CURVE SMOOTH",
"262 1107 OFFCURVE",
"135 981 OFFCURVE",
"135 772 CURVE SMOOTH",
"135 627 OFFCURVE",
"181 543 OFFCURVE",
"247 492 CURVE SMOOTH",
"351 410 OFFCURVE",
"503 410 OFFCURVE",
"592 382 CURVE SMOOTH",
"637 367 OFFCURVE",
"665 346 OFFCURVE",
"665 305 CURVE SMOOTH",
"665 243 OFFCURVE",
"625 208 OFFCURVE",
"534 208 CURVE SMOOTH",
"440 208 OFFCURVE",
"348 246 OFFCURVE",
"289 350 CURVE SMOOTH",
"277 371 OFFCURVE",
"257 383 OFFCURVE",
"221 383 CURVE SMOOTH",
"169 383 OFFCURVE",
"143 362 OFFCURVE",
"143 309 CURVE SMOOTH",
"143 48 LINE SMOOTH",
"143 -5 OFFCURVE",
"170 -26 OFFCURVE",
"239 -26 CURVE SMOOTH",
"309 -26 OFFCURVE",
"339 -5 OFFCURVE",
"339 48 CURVE SMOOTH",
"339 57 LINE",
"398 7 OFFCURVE",
"466 -26 OFFCURVE",
"550 -26 CURVE SMOOTH",
"761 -26 OFFCURVE",
"877 115 OFFCURVE",
"877 336 CURVE SMOOTH",
"877 496 OFFCURVE",
"817 579 OFFCURVE",
"737 626 CURVE SMOOTH",
"630 689 OFFCURVE",
"487 685 OFFCURVE",
"406 713 CURVE SMOOTH",
"370 726 OFFCURVE",
"345 747 OFFCURVE",
"345 783 CURVE SMOOTH",
"345 836 OFFCURVE",
"383 873 OFFCURVE",
"449 873 CURVE SMOOTH",
"554 873 OFFCURVE",
"637 839 OFFCURVE",
"703 737 CURVE SMOOTH",
"715 720 OFFCURVE",
"735 713 OFFCURVE",
"763 713 CURVE SMOOTH",
"817 713 OFFCURVE",
"839 734 OFFCURVE",
"839 786 CURVE SMOOTH",
"839 1033 LINE SMOOTH",
"839 1086 OFFCURVE",
"812 1107 OFFCURVE",
"742 1107 CURVE SMOOTH"
);
}
);
width = 1006;
}
);
unicode = 0073;
},
{
glyphname = t;
lastChange = "2026-02-27 13:18:02 +0000";
layers = (
{
layerId = UUID0;
paths = (
{
closed = 1;
nodes = (
"329 1415 OFFCURVE",
"314 1393 OFFCURVE",
"314 1339 CURVE SMOOTH",
"314 988 LINE",
"147 988 LINE SMOOTH",
"111 988 OFFCURVE",
"96 967 OFFCURVE",
"96 908 CURVE SMOOTH",
"96 850 OFFCURVE",
"111 829 OFFCURVE",
"147 829 CURVE SMOOTH",
"314 829 LINE",
"314 387 LINE SMOOTH",
"314 119 OFFCURVE",
"392 -26 OFFCURVE",
"582 -26 CURVE SMOOTH",
"676 -26 OFFCURVE",
"789 32 OFFCURVE",
"871 105 CURVE SMOOTH",
"898 130 OFFCURVE",
"908 163 OFFCURVE",
"887 219 CURVE SMOOTH",
"867 275 OFFCURVE",
"839 284 OFFCURVE",
"815 261 CURVE SMOOTH",
"743 194 OFFCURVE",
"658 145 OFFCURVE",
"582 145 CURVE SMOOTH",
"472 145 OFFCURVE",
"437 231 OFFCURVE",
"437 403 CURVE SMOOTH",
"437 829 LINE",
"774 829 LINE SMOOTH",
"810 829 OFFCURVE",
"825 850 OFFCURVE",
"825 908 CURVE SMOOTH",
"825 967 OFFCURVE",
"810 988 OFFCURVE",
"774 988 CURVE SMOOTH",
"437 988 LINE",
"437 1339 LINE SMOOTH",
"437 1393 OFFCURVE",
"421 1415 OFFCURVE",
"376 1415 CURVE SMOOTH"
);
}
);
width = 1006;
},
{
layerId = "8538028E-5D6C-4318-9676-30148CDA39CA";
paths = (
{
closed = 1;
nodes = (
"319 1415 OFFCURVE",
"289 1394 OFFCURVE",
"289 1341 CURVE SMOOTH",
"289 1011 LINE",
"131 1011 LINE SMOOTH",
"95 1011 OFFCURVE",
"80 984 OFFCURVE",
"80 885 CURVE SMOOTH",
"80 785 OFFCURVE",
"95 760 OFFCURVE",
"131 760 CURVE SMOOTH",
"289 760 LINE",
"289 419 LINE SMOOTH",
"289 128 OFFCURVE",
"392 -26 OFFCURVE",
"582 -26 CURVE SMOOTH",
"676 -26 OFFCURVE",
"775 25 OFFCURVE",
"874 96 CURVE SMOOTH",
"910 122 OFFCURVE",
"920 161 OFFCURVE",
"894 254 CURVE SMOOTH",
"868 346 OFFCURVE",
"839 352 OFFCURVE",
"805 331 CURVE SMOOTH",
"734 286 OFFCURVE",
"655 240 OFFCURVE",
"599 240 CURVE SMOOTH",
"532 240 OFFCURVE",
"494 300 OFFCURVE",
"494 434 CURVE SMOOTH",
"494 760 LINE",
"798 760 LINE SMOOTH",
"834 760 OFFCURVE",
"850 785 OFFCURVE",
"850 885 CURVE SMOOTH",
"850 984 OFFCURVE",
"834 1011 OFFCURVE",
"798 1011 CURVE SMOOTH",
"494 1011 LINE",
"494 1341 LINE SMOOTH",
"494 1394 OFFCURVE",
"475 1415 OFFCURVE",
"398 1415 CURVE SMOOTH"
);
}
);
width = 1006;
}
);
unicode = 0074;
},
{
glyphname = u;
lastChange = "2026-02-27 13:18:02 +0000";
layers = (
{
layerId = UUID0;
paths = (
{
closed = 1;
nodes = (
"579 1081 LINE SMOOTH",
"542 1081 OFFCURVE",
"528 1060 OFFCURVE",
"528 1002 CURVE SMOOTH",
"528 943 OFFCURVE",
"542 922 OFFCURVE",
"579 922 CURVE SMOOTH",
"695 922 LINE",
"695 587 LINE SMOOTH",
"695 332 OFFCURVE",
"573 147 OFFCURVE",
"433 147 CURVE SMOOTH",
"344 147 OFFCURVE",
"301 239 OFFCURVE",
"301 373 CURVE SMOOTH",
"301 1002 LINE SMOOTH",
"301 1060 OFFCURVE",
"286 1081 OFFCURVE",
"249 1081 CURVE SMOOTH",
"111 1081 LINE SMOOTH",
"74 1081 OFFCURVE",
"59 1060 OFFCURVE",
"59 1002 CURVE SMOOTH",
"59 943 OFFCURVE",
"74 922 OFFCURVE",
"111 922 CURVE SMOOTH",
"178 922 LINE",
"178 356 LINE SMOOTH",
"178 122 OFFCURVE",
"270 -26 OFFCURVE",
"421 -26 CURVE SMOOTH",
"532 -26 OFFCURVE",
"632 61 OFFCURVE",
"703 220 CURVE",
"703 78 LINE SMOOTH",
"703 20 OFFCURVE",
"719 0 OFFCURVE",
"755 0 CURVE SMOOTH",
"886 0 LINE SMOOTH",
"922 0 OFFCURVE",
"937 21 OFFCURVE",
"937 80 CURVE SMOOTH",
"937 138 OFFCURVE",
"922 159 OFFCURVE",
"886 159 CURVE SMOOTH",
"818 159 LINE",
"818 1002 LINE SMOOTH",
"818 1060 OFFCURVE",
"804 1081 OFFCURVE",
"767 1081 CURVE SMOOTH"
);
}
);
width = 1006;
},
{
layerId = "8538028E-5D6C-4318-9676-30148CDA39CA";
paths = (
{
closed = 1;
nodes = (
"554 1081 LINE SMOOTH",
"516 1081 OFFCURVE",
"501 1061 OFFCURVE",
"501 962 CURVE SMOOTH",
"501 863 OFFCURVE",
"516 841 OFFCURVE",
"554 841 CURVE SMOOTH",
"640 841 LINE",
"640 651 LINE SMOOTH",
"640 431 OFFCURVE",
"554 240 OFFCURVE",
"456 240 CURVE SMOOTH",
"384 240 OFFCURVE",
"360 310 OFFCURVE",
"360 425 CURVE SMOOTH",
"360 1008 LINE SMOOTH",
"360 1060 OFFCURVE",
"345 1081 OFFCURVE",
"309 1081 CURVE SMOOTH",
"92 1081 LINE SMOOTH",
"56 1081 OFFCURVE",
"41 1061 OFFCURVE",
"41 962 CURVE SMOOTH",
"41 863 OFFCURVE",
"56 841 OFFCURVE",
"92 841 CURVE SMOOTH",
"156 841 LINE",
"156 356 LINE SMOOTH",
"156 122 OFFCURVE",
"253 -26 OFFCURVE",
"403 -26 CURVE SMOOTH",
"506 -26 OFFCURVE",
"597 54 OFFCURVE",
"673 243 CURVE",
"673 74 LINE SMOOTH",
"673 21 OFFCURVE",
"688 0 OFFCURVE",
"726 0 CURVE SMOOTH",
"908 0 LINE SMOOTH",
"946 0 OFFCURVE",
"960 21 OFFCURVE",
"960 121 CURVE SMOOTH",
"960 220 OFFCURVE",
"946 240 OFFCURVE",
"908 240 CURVE SMOOTH",
"845 240 LINE",
"845 1008 LINE SMOOTH",
"845 1060 OFFCURVE",
"831 1081 OFFCURVE",
"793 1081 CURVE SMOOTH"
);
}
);
width = 1006;
}
);
unicode = 0075;
},
{
glyphname = v;
lastChange = "2026-02-27 13:18:02 +0000";
layers = (
{
layerId = UUID0;
paths = (
{
closed = 1;
nodes = (
"657 1081 LINE SMOOTH",
"619 1081 OFFCURVE",
"605 1060 OFFCURVE",
"605 1002 CURVE SMOOTH",
"605 943 OFFCURVE",
"619 922 OFFCURVE",
"657 922 CURVE SMOOTH",
"728 922 LINE",
"501 159 LINE",
"277 922 LINE",
"383 922 LINE SMOOTH",
"419 922 OFFCURVE",
"434 943 OFFCURVE",
"434 1002 CURVE SMOOTH",
"434 1060 OFFCURVE",
"419 1081 OFFCURVE",
"383 1081 CURVE SMOOTH",
"92 1081 LINE SMOOTH",
"56 1081 OFFCURVE",
"41 1060 OFFCURVE",
"41 1002 CURVE SMOOTH",
"41 943 OFFCURVE",
"56 922 OFFCURVE",
"92 922 CURVE SMOOTH",
"144 922 LINE",
"406 50 LINE SMOOTH",
"421 -1 OFFCURVE",
"447 -26 OFFCURVE",
"501 -26 CURVE SMOOTH",
"555 -26 OFFCURVE",
"582 -2 OFFCURVE",
"597 50 CURVE SMOOTH",
"861 922 LINE",
"914 922 LINE SMOOTH",
"950 922 OFFCURVE",
"965 943 OFFCURVE",
"965 1002 CURVE SMOOTH",
"965 1060 OFFCURVE",
"950 1081 OFFCURVE",
"914 1081 CURVE SMOOTH"
);
}
);
width = 1006;
},
{
layerId = "8538028E-5D6C-4318-9676-30148CDA39CA";
paths = (
{
closed = 1;
nodes = (
"607 1081 LINE SMOOTH",
"570 1081 OFFCURVE",
"556 1060 OFFCURVE",
"556 961 CURVE SMOOTH",
"556 861 OFFCURVE",
"570 841 OFFCURVE",
"607 841 CURVE SMOOTH",
"652 841 LINE",
"506 325 LINE",
"360 841 LINE",
"415 841 LINE SMOOTH",
"452 841 OFFCURVE",
"467 861 OFFCURVE",
"467 961 CURVE SMOOTH",
"467 1060 OFFCURVE",
"452 1081 OFFCURVE",
"415 1081 CURVE SMOOTH",
"84 1081 LINE SMOOTH",
"48 1081 OFFCURVE",
"33 1060 OFFCURVE",
"33 961 CURVE SMOOTH",
"33 861 OFFCURVE",
"48 841 OFFCURVE",
"84 841 CURVE SMOOTH",
"138 841 LINE",
"377 50 LINE SMOOTH",
"392 -1 OFFCURVE",
"421 -26 OFFCURVE",
"501 -26 CURVE SMOOTH",
"579 -26 OFFCURVE",
"611 -2 OFFCURVE",
"626 50 CURVE SMOOTH",
"866 841 LINE",
"922 841 LINE SMOOTH",
"958 841 OFFCURVE",
"974 861 OFFCURVE",
"974 961 CURVE SMOOTH",
"974 1060 OFFCURVE",
"958 1081 OFFCURVE",
"922 1081 CURVE SMOOTH"
);
}
);
width = 1006;
}
);
unicode = 0076;
},
{
glyphname = w;
lastChange = "2026-02-27 13:18:02 +0000";
layers = (
{
layerId = UUID0;
paths = (
{
closed = 1;
nodes = (
"738 1081 LINE SMOOTH",
"701 1081 OFFCURVE",
"687 1060 OFFCURVE",
"687 1002 CURVE SMOOTH",
"687 943 OFFCURVE",
"701 922 OFFCURVE",
"738 922 CURVE SMOOTH",
"820 922 LINE",
"700 241 LINE",
"564 792 LINE SMOOTH",
"556 823 OFFCURVE",
"537 839 OFFCURVE",
"501 839 CURVE SMOOTH",
"465 839 OFFCURVE",
"446 815 OFFCURVE",
"439 784 CURVE SMOOTH",
"302 241 LINE",
"184 922 LINE",
"284 922 LINE SMOOTH",
"321 922 OFFCURVE",
"336 943 OFFCURVE",
"336 1002 CURVE SMOOTH",
"336 1060 OFFCURVE",
"321 1081 OFFCURVE",
"284 1081 CURVE SMOOTH",
"43 1081 LINE SMOOTH",
"7 1081 OFFCURVE",
"-8 1060 OFFCURVE",
"-8 1002 CURVE SMOOTH",
"-8 943 OFFCURVE",
"7 922 OFFCURVE",
"43 922 CURVE SMOOTH",
"59 922 LINE",
"217 50 LINE SMOOTH",
"226 -5 OFFCURVE",
"245 -26 OFFCURVE",
"286 -26 CURVE SMOOTH",
"332 -26 OFFCURVE",
"359 -4 OFFCURVE",
"373 50 CURVE SMOOTH",
"500 558 LINE",
"625 50 LINE SMOOTH",
"638 -2 OFFCURVE",
"664 -26 OFFCURVE",
"710 -26 CURVE SMOOTH",
"752 -26 OFFCURVE",
"771 -6 OFFCURVE",
"782 50 CURVE SMOOTH",
"943 922 LINE",
"963 922 LINE SMOOTH",
"999 922 OFFCURVE",
"1015 943 OFFCURVE",
"1015 1002 CURVE SMOOTH",
"1015 1060 OFFCURVE",
"999 1081 OFFCURVE",
"963 1081 CURVE SMOOTH"
);
}
);
width = 1006;
},
{
layerId = "8538028E-5D6C-4318-9676-30148CDA39CA";
paths = (
{
closed = 1;
nodes = (
"697 1081 LINE SMOOTH",
"660 1081 OFFCURVE",
"646 1060 OFFCURVE",
"646 961 CURVE SMOOTH",
"646 861 OFFCURVE",
"660 841 OFFCURVE",
"697 841 CURVE SMOOTH",
"756 841 LINE",
"693 387 LINE",
"580 792 LINE SMOOTH",
"569 832 OFFCURVE",
"549 851 OFFCURVE",
"501 851 CURVE SMOOTH",
"453 851 OFFCURVE",
"433 825 OFFCURVE",
"422 784 CURVE SMOOTH",
"309 387 LINE",
"247 841 LINE",
"317 841 LINE SMOOTH",
"353 841 OFFCURVE",
"369 861 OFFCURVE",
"369 961 CURVE SMOOTH",
"369 1060 OFFCURVE",
"353 1081 OFFCURVE",
"317 1081 CURVE SMOOTH",
"35 1081 LINE SMOOTH",
"-1 1081 OFFCURVE",
"-16 1060 OFFCURVE",
"-16 961 CURVE SMOOTH",
"-16 861 OFFCURVE",
"-1 841 OFFCURVE",
"35 841 CURVE SMOOTH",
"63 841 LINE",
"180 50 LINE SMOOTH",
"188 -5 OFFCURVE",
"212 -26 OFFCURVE",
"277 -26 CURVE SMOOTH",
"344 -26 OFFCURVE",
"369 -1 OFFCURVE",
"384 50 CURVE SMOOTH",
"500 466 LINE",
"614 50 LINE SMOOTH",
"628 -1 OFFCURVE",
"652 -26 OFFCURVE",
"719 -26 CURVE SMOOTH",
"785 -26 OFFCURVE",
"810 -6 OFFCURVE",
"818 50 CURVE SMOOTH",
"937 841 LINE",
"971 841 LINE SMOOTH",
"1008 841 OFFCURVE",
"1023 861 OFFCURVE",
"1023 961 CURVE SMOOTH",
"1023 1060 OFFCURVE",
"1008 1081 OFFCURVE",
"971 1081 CURVE SMOOTH"
);
}
);
width = 1006;
}
);
unicode = 0077;
},
{
glyphname = x;
lastChange = "2026-02-27 13:18:02 +0000";
layers = (
{
layerId = UUID0;
paths = (
{
closed = 1;
nodes = (
"640 1081 LINE SMOOTH",
"603 1081 OFFCURVE",
"589 1060 OFFCURVE",
"589 1002 CURVE SMOOTH",
"589 943 OFFCURVE",
"603 922 OFFCURVE",
"640 922 CURVE SMOOTH",
"685 922 LINE",
"510 653 LINE",
"337 922 LINE",
"399 922 LINE SMOOTH",
"435 922 OFFCURVE",
"451 943 OFFCURVE",
"451 1002 CURVE SMOOTH",
"451 1060 OFFCURVE",
"435 1081 OFFCURVE",
"399 1081 CURVE SMOOTH",
"117 1081 LINE SMOOTH",
"81 1081 OFFCURVE",
"66 1060 OFFCURVE",
"66 1002 CURVE SMOOTH",
"66 943 OFFCURVE",
"81 922 OFFCURVE",
"117 922 CURVE SMOOTH",
"176 922 LINE",
"417 558 LINE",
"150 159 LINE",
"109 159 LINE SMOOTH",
"73 159 OFFCURVE",
"57 138 OFFCURVE",
"57 80 CURVE SMOOTH",
"57 21 OFFCURVE",
"73 0 OFFCURVE",
"109 0 CURVE SMOOTH",
"366 0 LINE SMOOTH",
"403 0 OFFCURVE",
"418 21 OFFCURVE",
"418 80 CURVE SMOOTH",
"418 138 OFFCURVE",
"403 159 OFFCURVE",
"366 159 CURVE SMOOTH",
"302 159 LINE",
"497 461 LINE",
"694 159 LINE",
"616 159 LINE SMOOTH",
"578 159 OFFCURVE",
"564 138 OFFCURVE",
"564 80 CURVE SMOOTH",
"564 21 OFFCURVE",
"578 0 OFFCURVE",
"616 0 CURVE SMOOTH",
"898 0 LINE SMOOTH",
"934 0 OFFCURVE",
"949 21 OFFCURVE",
"949 80 CURVE SMOOTH",
"949 138 OFFCURVE",
"934 159 OFFCURVE",
"898 159 CURVE SMOOTH",
"855 159 LINE",
"592 556 LINE",
"836 922 LINE",
"889 922 LINE SMOOTH",
"926 922 OFFCURVE",
"941 943 OFFCURVE",
"941 1002 CURVE SMOOTH",
"941 1060 OFFCURVE",
"926 1081 OFFCURVE",
"889 1081 CURVE SMOOTH"
);
}
);
width = 1006;
},
{
layerId = "8538028E-5D6C-4318-9676-30148CDA39CA";
paths = (
{
closed = 1;
nodes = (
"599 1081 LINE SMOOTH",
"562 1081 OFFCURVE",
"548 1060 OFFCURVE",
"548 961 CURVE SMOOTH",
"548 861 OFFCURVE",
"562 841 OFFCURVE",
"599 841 CURVE SMOOTH",
"617 841 LINE",
"517 688 LINE",
"413 841 LINE",
"424 841 LINE SMOOTH",
"460 841 OFFCURVE",
"475 861 OFFCURVE",
"475 961 CURVE SMOOTH",
"475 1060 OFFCURVE",
"460 1081 OFFCURVE",
"424 1081 CURVE SMOOTH",
"117 1081 LINE SMOOTH",
"81 1081 OFFCURVE",
"66 1060 OFFCURVE",
"66 961 CURVE SMOOTH",
"66 861 OFFCURVE",
"81 841 OFFCURVE",
"117 841 CURVE SMOOTH",
"160 841 LINE",
"362 549 LINE",
"153 240 LINE",
"109 240 LINE SMOOTH",
"73 240 OFFCURVE",
"57 219 OFFCURVE",
"57 119 CURVE SMOOTH",
"57 20 OFFCURVE",
"73 0 OFFCURVE",
"109 0 CURVE SMOOTH",
"399 0 LINE SMOOTH",
"435 0 OFFCURVE",
"451 20 OFFCURVE",
"451 119 CURVE SMOOTH",
"451 219 OFFCURVE",
"435 240 OFFCURVE",
"399 240 CURVE SMOOTH",
"385 240 LINE",
"487 397 LINE",
"595 240 LINE",
"583 240 LINE SMOOTH",
"545 240 OFFCURVE",
"531 219 OFFCURVE",
"531 119 CURVE SMOOTH",
"531 20 OFFCURVE",
"545 0 OFFCURVE",
"583 0 CURVE SMOOTH",
"898 0 LINE SMOOTH",
"934 0 OFFCURVE",
"949 20 OFFCURVE",
"949 119 CURVE SMOOTH",
"949 219 OFFCURVE",
"934 240 OFFCURVE",
"898 240 CURVE SMOOTH",
"855 240 LINE",
"644 548 LINE",
"840 841 LINE",
"889 841 LINE SMOOTH",
"926 841 OFFCURVE",
"941 861 OFFCURVE",
"941 961 CURVE SMOOTH",
"941 1060 OFFCURVE",
"926 1081 OFFCURVE",
"889 1081 CURVE SMOOTH"
);
}
);
width = 1006;
}
);
unicode = 0078;
},
{
glyphname = y;
lastChange = "2026-02-27 13:18:02 +0000";
layers = (
{
layerId = UUID0;
paths = (
{
closed = 1;
nodes = (
"657 1081 LINE SMOOTH",
"619 1081 OFFCURVE",
"605 1060 OFFCURVE",
"605 1002 CURVE SMOOTH",
"605 943 OFFCURVE",
"619 922 OFFCURVE",
"657 922 CURVE SMOOTH",
"729 922 LINE",
"509 264 LINE",
"277 922 LINE",
"383 922 LINE SMOOTH",
"419 922 OFFCURVE",
"434 943 OFFCURVE",
"434 1002 CURVE SMOOTH",
"434 1060 OFFCURVE",
"419 1081 OFFCURVE",
"383 1081 CURVE SMOOTH",
"92 1081 LINE SMOOTH",
"56 1081 OFFCURVE",
"41 1060 OFFCURVE",
"41 1002 CURVE SMOOTH",
"41 943 OFFCURVE",
"56 922 OFFCURVE",
"92 922 CURVE SMOOTH",
"144 922 LINE",
"444 82 LINE",
"337 -228 OFFCURVE",
"290 -291 OFFCURVE",
"138 -303 CURVE SMOOTH",
"109 -305 OFFCURVE",
"91 -334 OFFCURVE",
"96 -401 CURVE SMOOTH",
"99 -463 OFFCURVE",
"123 -481 OFFCURVE",
"154 -480 CURVE SMOOTH",
"335 -470 OFFCURVE",
"424 -363 OFFCURVE",
"528 -59 CURVE SMOOTH",
"863 922 LINE",
"914 922 LINE SMOOTH",
"950 922 OFFCURVE",
"965 943 OFFCURVE",
"965 1002 CURVE SMOOTH",
"965 1060 OFFCURVE",
"950 1081 OFFCURVE",
"914 1081 CURVE SMOOTH"
);
}
);
width = 1006;
},
{
layerId = "8538028E-5D6C-4318-9676-30148CDA39CA";
paths = (
{
closed = 1;
nodes = (
"607 1081 LINE SMOOTH",
"570 1081 OFFCURVE",
"556 1060 OFFCURVE",
"556 961 CURVE SMOOTH",
"556 861 OFFCURVE",
"570 841 OFFCURVE",
"607 841 CURVE SMOOTH",
"652 841 LINE",
"509 397 LINE",
"366 841 LINE",
"415 841 LINE SMOOTH",
"452 841 OFFCURVE",
"467 861 OFFCURVE",
"467 961 CURVE SMOOTH",
"467 1060 OFFCURVE",
"452 1081 OFFCURVE",
"415 1081 CURVE SMOOTH",
"84 1081 LINE SMOOTH",
"48 1081 OFFCURVE",
"33 1060 OFFCURVE",
"33 961 CURVE SMOOTH",
"33 861 OFFCURVE",
"48 841 OFFCURVE",
"84 841 CURVE SMOOTH",
"146 841 LINE",
"397 105 LINE",
"310 -136 OFFCURVE",
"267 -205 OFFCURVE",
"138 -215 CURVE SMOOTH",
"108 -218 OFFCURVE",
"91 -253 OFFCURVE",
"96 -359 CURVE SMOOTH",
"99 -456 OFFCURVE",
"123 -481 OFFCURVE",
"154 -480 CURVE SMOOTH",
"359 -470 OFFCURVE",
"444 -391 OFFCURVE",
"556 -67 CURVE SMOOTH",
"870 841 LINE",
"922 841 LINE SMOOTH",
"958 841 OFFCURVE",
"974 861 OFFCURVE",
"974 961 CURVE SMOOTH",
"974 1060 OFFCURVE",
"958 1081 OFFCURVE",
"922 1081 CURVE SMOOTH"
);
}
);
width = 1006;
}
);
unicode = 0079;
},
{
glyphname = z;
lastChange = "2026-02-27 13:18:02 +0000";
layers = (
{
layerId = UUID0;
paths = (
{
closed = 1;
nodes = (
"214 1081 LINE SMOOTH",
"177 1081 OFFCURVE",
"163 1060 OFFCURVE",
"163 1002 CURVE SMOOTH",
"163 748 LINE SMOOTH",
"163 694 OFFCURVE",
"178 672 OFFCURVE",
"224 672 CURVE SMOOTH",
"269 672 OFFCURVE",
"286 694 OFFCURVE",
"286 748 CURVE SMOOTH",
"286 922 LINE",
"658 922 LINE",
"157 132 LINE SMOOTH",
"149 119 OFFCURVE",
"146 102 OFFCURVE",
"146 80 CURVE SMOOTH",
"146 21 OFFCURVE",
"160 0 OFFCURVE",
"198 0 CURVE SMOOTH",
"809 0 LINE SMOOTH",
"845 0 OFFCURVE",
"860 21 OFFCURVE",
"860 80 CURVE SMOOTH",
"860 360 LINE SMOOTH",
"860 414 OFFCURVE",
"845 437 OFFCURVE",
"799 437 CURVE SMOOTH",
"752 437 OFFCURVE",
"737 414 OFFCURVE",
"737 360 CURVE SMOOTH",
"737 159 LINE",
"341 159 LINE",
"840 948 LINE SMOOTH",
"847 960 OFFCURVE",
"852 977 OFFCURVE",
"852 1002 CURVE SMOOTH",
"852 1060 OFFCURVE",
"837 1081 OFFCURVE",
"800 1081 CURVE SMOOTH"
);
}
);
width = 1006;
},
{
layerId = "8538028E-5D6C-4318-9676-30148CDA39CA";
paths = (
{
closed = 1;
nodes = (
"183 1081 LINE SMOOTH",
"145 1081 OFFCURVE",
"130 1059 OFFCURVE",
"130 1005 CURVE SMOOTH",
"130 708 LINE SMOOTH",
"130 655 OFFCURVE",
"140 634 OFFCURVE",
"218 634 CURVE SMOOTH",
"296 634 OFFCURVE",
"318 655 OFFCURVE",
"318 708 CURVE SMOOTH",
"318 841 LINE",
"568 841 LINE",
"139 215 LINE SMOOTH",
"119 186 OFFCURVE",
"114 161 OFFCURVE",
"114 119 CURVE SMOOTH",
"114 20 OFFCURVE",
"128 0 OFFCURVE",
"165 0 CURVE SMOOTH",
"832 0 LINE SMOOTH",
"870 0 OFFCURVE",
"885 22 OFFCURVE",
"885 76 CURVE SMOOTH",
"885 385 LINE SMOOTH",
"885 438 OFFCURVE",
"874 459 OFFCURVE",
"796 459 CURVE SMOOTH",
"719 459 OFFCURVE",
"696 438 OFFCURVE",
"696 385 CURVE SMOOTH",
"696 240 LINE",
"431 240 LINE",
"859 866 LINE SMOOTH",
"878 895 OFFCURVE",
"885 920 OFFCURVE",
"885 962 CURVE SMOOTH",
"885 1061 OFFCURVE",
"870 1081 OFFCURVE",
"833 1081 CURVE SMOOTH"
);
}
);
width = 1006;
}
);
unicode = 007A;
},
